<svg width="32" height="32" viewBox="0 0 32 32" fill="none" xmlns="http://www.w3.org/2000/svg">
<g clip-path="url(#clip0_76_3)">
<path d="M32 24.8233C32.0016 25.76 31.8188 26.688 31.4618 27.554C31.1049 28.4201 30.5809 29.2074 29.9197 29.871C29.2585 30.5345 28.4731 31.0613 27.6084 31.4213C26.7436 31.7813 25.8164 31.9675 24.8798 31.9691L7.17604 32C6.23937 32.0016 5.31154 31.8187 4.44553 31.4618C3.57953 31.1048 2.79231 30.5807 2.12882 29.9195C1.46534 29.2582 0.938573 28.4728 0.578611 27.6079C0.218649 26.7431 0.032538 25.8158 0.0309033 24.8791L1.08748e-05 7.17674C-0.0016247 6.23997 0.181248 5.31205 0.538189 4.44597C0.895129 3.57988 1.41915 2.79258 2.08032 2.12903C2.7415 1.46548 3.52688 0.938664 4.39163 0.578667C5.25639 0.218671 6.18357 0.0325412 7.12025 0.0309063L24.824 1.08758e-05C25.7606 -0.00162486 26.6885 0.181266 27.5545 0.538241C28.4205 0.895216 29.2077 1.41928 29.8712 2.08052C30.5347 2.74176 31.0614 3.52722 31.4214 4.39206C31.7813 5.2569 31.9675 6.18417 31.9691 7.12094L32 24.8233ZM10.6625 28.4109C10.678 28.265 10.7292 28.2505 10.8161 28.3674C11.2464 28.9457 11.7729 29.2825 12.3956 29.3776C12.7691 29.4356 12.9956 29.2892 13.0752 28.9385C13.0779 28.9264 13.0837 28.9152 13.0921 28.9061C13.1005 28.897 13.1111 28.8902 13.123 28.8866C13.1348 28.883 13.1474 28.8826 13.1595 28.8854C13.1715 28.8882 13.1826 28.8942 13.1916 28.9028C13.5128 29.2023 13.8355 29.553 14.1691 29.7733C15.2645 30.498 16.4981 30.6268 17.6928 30.0557C18.6858 29.5794 19.8169 29.3125 20.4236 28.3038C20.4285 28.2955 20.4355 28.2886 20.4439 28.2839C20.4522 28.2792 20.4617 28.2768 20.4714 28.2769C20.481 28.2771 20.4904 28.2798 20.4987 28.2848C20.5069 28.2898 20.5137 28.2969 20.5183 28.3054L20.6998 28.6499C20.7308 28.7068 20.7779 28.7409 20.841 28.7523C22.0714 28.985 22.6641 27.1121 22.8565 26.2617C22.8679 26.21 22.8963 26.1712 22.9419 26.1453C23.3349 25.9157 23.5294 25.5583 23.5253 25.0731C23.5242 24.8579 23.5242 24.6355 23.5253 24.4058C23.5258 24.3824 23.5335 24.3597 23.5474 24.3411C23.5614 24.3224 23.5807 24.3087 23.6028 24.3019C23.8004 24.2388 23.8961 24.0841 23.8899 23.8379C23.8578 22.6803 23.519 21.6587 22.8736 20.7732C22.8363 20.7225 22.8477 20.6884 22.9077 20.6708C23.1513 20.5978 23.4492 20.6087 23.6556 20.5327C25.1048 20.002 25.772 18.4083 24.8814 17.0645C24.8724 17.051 24.8668 17.0357 24.8648 17.0197C24.8629 17.0036 24.8647 16.9874 24.8701 16.9722C24.8755 16.957 24.8844 16.9432 24.896 16.932C24.9077 16.9209 24.9218 16.9126 24.9372 16.9078C26.8814 16.315 27.1296 14.0681 25.4492 13.0641C25.4273 13.051 25.4085 13.0332 25.394 13.0121C25.3795 12.9909 25.3698 12.9668 25.3654 12.9415C25.2961 12.5267 25.2268 12.1118 25.1575 11.697C24.6315 8.58575 23.1141 4.98414 20.0978 3.55963C16.8534 2.02495 12.9744 2.15375 9.9286 4.25016C7.24278 6.09829 6.02943 9.94042 5.68653 13.0393C5.68135 13.091 5.65911 13.1344 5.61981 13.1696C4.48714 14.1782 4.30715 15.55 5.50964 16.5478C5.72687 16.7278 6.0015 16.8069 6.27303 16.9078C6.28367 16.9119 6.29329 16.9183 6.30121 16.9264C6.30914 16.9346 6.31516 16.9444 6.31887 16.955C6.32257 16.9657 6.32386 16.977 6.32264 16.9882C6.32143 16.9993 6.31773 17.01 6.31182 17.0195C5.29863 18.6721 6.3382 20.5978 8.26218 20.6553C8.33148 20.6573 8.35062 20.6899 8.31959 20.753C7.78118 21.8051 7.34208 22.5717 7.3126 23.9139C7.30846 24.1167 7.38242 24.2543 7.53448 24.3267C7.57792 24.3463 7.59913 24.3794 7.59809 24.426C7.59603 24.9515 7.70205 25.4522 7.91617 25.9281C7.92769 25.9541 7.94748 25.9755 7.97228 25.9888C7.99709 26.002 8.02545 26.0063 8.05271 26.001L8.20012 25.9731C8.24666 25.9648 8.27407 25.984 8.28235 26.0305C8.38372 26.6036 8.58439 27.2093 8.88437 27.8476C9.12021 28.3488 9.84946 29.0875 10.4406 28.7274C10.5761 28.6447 10.6501 28.5392 10.6625 28.4109Z" fill="#FAB921"/>
<path d="M10.9479 4.29038C13.685 2.73166 17.0555 2.6059 19.8842 4.06372C22.8619 5.59916 24.1831 9.15442 24.6519 12.2641C24.6799 12.4473 24.6152 12.4897 24.4579 12.3914C18.4672 8.62191 12.4693 8.61828 6.46419 12.3806C6.41141 12.4137 6.38916 12.3992 6.39744 12.3371C6.74054 9.75524 7.73571 7.07715 9.60183 5.1924C9.80883 4.98333 10.2575 4.68265 10.9479 4.29038ZM13.0469 4.59468C13.0469 4.38798 12.9648 4.18974 12.8186 4.04358C12.6724 3.89743 12.4742 3.81531 12.2675 3.81531C12.0608 3.81531 11.8626 3.89743 11.7164 4.04358C11.5703 4.18974 11.4881 4.38798 11.4881 4.59468C11.4881 4.80138 11.5703 4.99961 11.7164 5.14577C11.8626 5.29193 12.0608 5.37404 12.2675 5.37404C12.4742 5.37404 12.6724 5.29193 12.8186 5.14577C12.9648 4.99961 13.0469 4.80138 13.0469 4.59468ZM17.8535 5.06043C17.8535 4.73227 17.7231 4.41754 17.491 4.18549C17.259 3.95344 16.9443 3.82308 16.6161 3.82308C16.2879 3.82308 15.9732 3.95344 15.7412 4.18549C15.5091 4.41754 15.3787 4.73227 15.3787 5.06043C15.3787 5.3886 15.5091 5.70333 15.7412 5.93538C15.9732 6.16743 16.2879 6.29779 16.6161 6.29779C16.9443 6.29779 17.259 6.16743 17.491 5.93538C17.7231 5.70333 17.8535 5.3886 17.8535 5.06043ZM21.8916 6.07267C21.8916 5.84621 21.8016 5.62902 21.6415 5.46889C21.4813 5.30875 21.2641 5.21879 21.0377 5.21879C20.8112 5.21879 20.594 5.30875 20.4339 5.46889C20.2737 5.62902 20.1838 5.84621 20.1838 6.07267C20.1838 6.29914 20.2737 6.51633 20.4339 6.67646C20.594 6.8366 20.8112 6.92656 21.0377 6.92656C21.2641 6.92656 21.4813 6.8366 21.6415 6.67646C21.8016 6.51633 21.8916 6.29914 21.8916 6.07267ZM10.0955 7.07871C10.0955 6.87283 10.0137 6.67538 9.86817 6.52981C9.72259 6.38423 9.52515 6.30245 9.31927 6.30245C9.1134 6.30245 8.91595 6.38423 8.77037 6.52981C8.6248 6.67538 8.54301 6.87283 8.54301 7.07871C8.54301 7.28458 8.6248 7.48203 8.77037 7.6276C8.91595 7.77318 9.1134 7.85496 9.31927 7.85496C9.52515 7.85496 9.72259 7.77318 9.86817 7.6276C10.0137 7.48203 10.0955 7.28458 10.0955 7.07871ZM13.6679 8.32227C13.6679 8.17935 13.6397 8.03783 13.585 7.90579C13.5303 7.77375 13.4502 7.65378 13.3491 7.55272C13.2481 7.45166 13.1281 7.37149 12.996 7.3168C12.864 7.26211 12.7225 7.23396 12.5796 7.23396C12.4366 7.23396 12.2951 7.26211 12.1631 7.3168C12.031 7.37149 11.9111 7.45166 11.81 7.55272C11.7089 7.65378 11.6288 7.77375 11.5741 7.90579C11.5194 8.03783 11.4912 8.17935 11.4912 8.32227C11.4912 8.61091 11.6059 8.88773 11.81 9.09183C12.0141 9.29592 12.2909 9.41059 12.5796 9.41059C12.8682 9.41059 13.145 9.29592 13.3491 9.09183C13.5532 8.88773 13.6679 8.61091 13.6679 8.32227ZM18.1624 8.16392C18.1624 7.9181 18.0648 7.68235 17.8909 7.50853C17.7171 7.33471 17.4814 7.23706 17.2356 7.23706C16.9897 7.23706 16.754 7.33471 16.5802 7.50853C16.4064 7.68235 16.3087 7.9181 16.3087 8.16392C16.3087 8.40973 16.4064 8.64548 16.5802 8.8193C16.754 8.99312 16.9897 9.09077 17.2356 9.09077C17.4814 9.09077 17.7171 8.99312 17.8909 8.8193C18.0648 8.64548 18.1624 8.40973 18.1624 8.16392ZM22.0484 9.01625C22.0484 8.70784 21.9258 8.41207 21.7078 8.194C21.4897 7.97592 21.1939 7.85341 20.8855 7.85341C20.5771 7.85341 20.2814 7.97592 20.0633 8.194C19.8452 8.41207 19.7227 8.70784 19.7227 9.01625C19.7227 9.32465 19.8452 9.62042 20.0633 9.83849C20.2814 10.0566 20.5771 10.1791 20.8855 10.1791C21.1939 10.1791 21.4897 10.0566 21.7078 9.83849C21.9258 9.62042 22.0484 9.32465 22.0484 9.01625ZM9.16247 10.03C9.16247 9.78381 9.06465 9.54767 8.89054 9.37356C8.71643 9.19945 8.48029 9.10163 8.23406 9.10163C7.98783 9.10163 7.75169 9.19945 7.57758 9.37356C7.40347 9.54767 7.30566 9.78381 7.30566 10.03C7.30566 10.152 7.32967 10.2727 7.37633 10.3853C7.42299 10.498 7.49137 10.6003 7.57758 10.6865C7.66379 10.7727 7.76614 10.8411 7.87878 10.8878C7.99142 10.9344 8.11214 10.9584 8.23406 10.9584C8.35598 10.9584 8.47671 10.9344 8.58935 10.8878C8.70199 10.8411 8.80433 10.7727 8.89054 10.6865C8.97675 10.6003 9.04514 10.498 9.0918 10.3853C9.13845 10.2727 9.16247 10.152 9.16247 10.03Z" fill="#FE453A"/>
<path d="M22.3124 11.8496C23.3805 12.4069 24.2825 12.9503 25.2482 13.6629C26.2278 14.3864 26.1828 15.6828 24.9796 16.1314C24.4719 16.3208 23.7624 16.1687 23.1383 16.3985C23.1151 16.4068 23.0903 16.4095 23.0659 16.4065C23.0415 16.4034 23.0181 16.3946 22.9977 16.3809C22.9773 16.3671 22.9604 16.3488 22.9485 16.3273C22.9365 16.3058 22.9297 16.2818 22.9287 16.2572C22.9039 15.6036 22.7703 15.2418 22.2145 14.8413C18.178 11.9412 13.0221 11.921 8.97623 14.7435C8.45769 15.1047 8.20981 15.6124 8.23258 16.2665C8.23465 16.3245 8.20722 16.3488 8.15029 16.3395C7.58725 16.2474 7.033 16.2148 6.48755 16.2417C6.26812 16.253 6.01196 16.1076 5.71905 15.8054C5.34955 15.4214 5.21552 15.0069 5.31695 14.5618C5.46133 13.9393 6.46426 13.1522 7.0123 12.7811C11.6062 9.6652 17.3955 9.28639 22.3124 11.8496Z" fill="#FE453A"/>
<path d="M10.6527 28.3451C10.6403 28.4734 10.5663 28.579 10.4307 28.6618C9.83921 29.022 9.10953 28.283 8.87354 27.7815C8.57339 27.1429 8.3726 26.5369 8.27117 25.9635C8.26289 25.917 8.23546 25.8978 8.18889 25.9061L8.0414 25.934C8.01411 25.9393 7.98574 25.935 7.96092 25.9218C7.9361 25.9085 7.9163 25.8871 7.90477 25.8611C7.69053 25.385 7.58444 24.884 7.58651 24.3582C7.58754 24.3116 7.56633 24.2785 7.52286 24.2589C7.37071 24.1864 7.29671 24.0488 7.30085 23.8459C7.33034 22.503 7.76971 21.736 8.30843 20.6834C8.33948 20.6203 8.32033 20.5877 8.25098 20.5856C6.32586 20.5282 5.28568 18.6015 6.29947 16.9481C6.30538 16.9386 6.30908 16.9279 6.3103 16.9167C6.31152 16.9056 6.31023 16.8943 6.30652 16.8836C6.30282 16.8729 6.29679 16.8631 6.28886 16.855C6.28093 16.8468 6.2713 16.8404 6.26066 16.8363C5.98897 16.7354 5.71417 16.6562 5.49682 16.4761C4.29362 15.4778 4.47371 14.1054 5.60705 13.0963C5.64638 13.0611 5.66863 13.0176 5.67381 12.9659C6.01691 9.86548 7.23098 6.02145 9.91839 4.1724C12.966 2.07495 16.8473 1.94609 20.0936 3.48153C23.1117 4.90674 24.63 8.51013 25.1563 11.6229C25.2257 12.038 25.295 12.453 25.3644 12.868C25.3687 12.8934 25.3785 12.9175 25.393 12.9387C25.4074 12.9598 25.4263 12.9776 25.4482 12.9907C27.1296 13.9952 26.8812 16.2432 24.9359 16.8363C24.9205 16.8411 24.9064 16.8494 24.8947 16.8606C24.883 16.8717 24.8741 16.8855 24.8687 16.9007C24.8633 16.9159 24.8615 16.9322 24.8635 16.9482C24.8654 16.9643 24.8711 16.9796 24.88 16.9931C25.7711 18.3376 25.1036 19.932 23.6535 20.463C23.447 20.539 23.1489 20.5282 22.9052 20.6011C22.8452 20.6187 22.8338 20.6529 22.871 20.7036C23.5169 21.5896 23.8559 22.6116 23.8879 23.7698C23.8941 24.0162 23.7984 24.1709 23.6007 24.234C23.5786 24.2409 23.5592 24.2546 23.5453 24.2733C23.5314 24.2919 23.5236 24.3146 23.5231 24.338C23.5221 24.5678 23.5221 24.7903 23.5231 25.0056C23.5272 25.491 23.3327 25.8486 22.9394 26.0784C22.8938 26.1043 22.8653 26.1431 22.854 26.1949C22.6614 27.0456 22.0684 28.9195 20.8372 28.6866C20.7741 28.6753 20.727 28.6411 20.696 28.5842L20.5143 28.2395C20.5097 28.231 20.503 28.2239 20.4947 28.2189C20.4865 28.2139 20.4771 28.2112 20.4674 28.2111C20.4578 28.2109 20.4483 28.2133 20.4399 28.218C20.4315 28.2228 20.4245 28.2296 20.4196 28.238C19.8126 29.2471 18.6808 29.5141 17.6872 29.9908C16.4917 30.5621 15.2575 30.4332 14.1614 29.7082C13.8276 29.4877 13.5047 29.1369 13.1833 28.8372C13.1744 28.8287 13.1633 28.8227 13.1512 28.8198C13.1391 28.817 13.1265 28.8174 13.1147 28.821C13.1028 28.8247 13.0921 28.8314 13.0837 28.8405C13.0754 28.8496 13.0695 28.8608 13.0669 28.8729C12.9872 29.2238 12.7605 29.3703 12.3869 29.3123C11.7638 29.2171 11.237 28.8802 10.8064 28.3016C10.7195 28.1847 10.6683 28.1992 10.6527 28.3451ZM10.9477 4.29039C10.2574 4.68266 9.80868 4.98333 9.60168 5.1924C7.73555 7.07716 6.74039 9.75525 6.39728 12.3371C6.389 12.3992 6.41125 12.4137 6.46404 12.3806C12.4692 8.61829 18.4671 8.62191 24.4577 12.3914C24.615 12.4898 24.6797 12.4473 24.6518 12.2641C24.1829 9.15443 22.8617 5.59916 19.884 4.06372C17.0553 2.60591 13.6848 2.73166 10.9477 4.29039ZM22.3121 11.8496C17.3953 9.28639 11.606 9.66521 7.01208 12.7811C6.46404 13.1522 5.46111 13.9393 5.31673 14.5618C5.2153 15.0069 5.34933 15.4214 5.71883 15.8054C6.01174 16.1076 6.2679 16.2531 6.48733 16.2417C7.03278 16.2148 7.58703 16.2474 8.15007 16.3395C8.207 16.3488 8.23443 16.3245 8.23236 16.2665C8.20959 15.6124 8.45747 15.1047 8.97601 14.7435C13.0219 11.921 18.1778 11.9412 22.2143 14.8413C22.7701 15.2418 22.9036 15.6036 22.9285 16.2572C22.9295 16.2818 22.9362 16.3058 22.9482 16.3273C22.9602 16.3488 22.9771 16.3671 22.9975 16.3809C23.0179 16.3946 23.0413 16.4034 23.0657 16.4065C23.0901 16.4095 23.1149 16.4068 23.1381 16.3985C23.7622 16.1687 24.4717 16.3208 24.9794 16.1314C26.1826 15.6828 26.2276 14.3864 25.2479 13.6629C24.2823 12.9503 23.3803 12.407 22.3121 11.8496ZM10.4975 17.7166C10.2537 18.6372 10.5254 19.637 11.6075 19.7597C11.9739 19.8 12.2037 19.6091 12.2906 19.2411C12.5002 18.3515 12.8418 17.8967 13.7127 17.583C13.7614 17.5658 13.8035 17.535 13.8338 17.4945C14.1273 17.1002 14.2375 16.6376 14.7032 16.3224C14.9258 16.1703 15.1545 16.0807 15.3895 16.0538C16.352 15.9451 16.8783 16.5506 17.2416 17.3517C17.2629 17.3983 17.2968 17.4377 17.3394 17.4651C17.8238 17.774 18.316 17.9029 18.5923 18.5177C18.7118 18.7831 18.7739 19.162 18.8873 19.4849C18.9034 19.5311 18.9351 19.571 18.9773 19.5982C19.2237 19.7545 19.4224 19.8135 19.5735 19.7752C20.4129 19.563 20.801 19.0269 20.7379 18.1668C20.7255 18.01 20.6789 17.9541 20.6044 17.8252C20.5826 17.7869 20.5888 17.7543 20.623 17.7274C20.889 17.5163 21.0422 17.1716 21.0825 16.6934C21.1415 15.9979 21.0748 14.7528 20.4181 14.4501C17.3627 13.0404 14.1583 12.8479 11.0673 14.2529C10.5456 14.492 10.3841 14.6628 10.2072 15.1875C9.92356 16.0321 9.95979 16.8192 10.3158 17.5489C10.3314 17.5799 10.3557 17.6001 10.3888 17.6094C10.4023 17.6125 10.4157 17.6151 10.4292 17.6172C10.4902 17.6244 10.513 17.6576 10.4975 17.7166ZM10.7474 24.5601C10.3795 26.0427 10.763 28.2861 12.4242 28.8171C12.4398 28.8219 12.4564 28.823 12.4726 28.8203C12.4887 28.8176 12.5041 28.8112 12.5173 28.8015C12.5306 28.7919 12.5414 28.7793 12.5489 28.7647C12.5565 28.7502 12.5605 28.7341 12.5608 28.7177C12.5685 28.3544 12.5779 28.0346 12.449 27.6697C12.2275 27.0394 12.1354 26.4707 12.1726 25.9635C12.2192 25.3405 12.5095 24.8105 13.0436 24.3738C13.0707 24.3517 13.1051 24.3406 13.1399 24.3424C13.1748 24.3442 13.2078 24.3589 13.2325 24.3836C13.2572 24.4083 13.2719 24.4412 13.2737 24.4761C13.2755 24.511 13.2643 24.5453 13.2423 24.5725C12.761 25.1645 12.6063 25.8807 12.7781 26.7212C13.1849 28.7208 15.0557 30.191 17.1236 29.6492C17.1342 29.6461 17.1435 29.6396 17.15 29.6307C17.1565 29.6218 17.1599 29.6109 17.1595 29.5999C17.1591 29.5888 17.1551 29.5782 17.1481 29.5697C17.141 29.5612 17.1313 29.5553 17.1205 29.5529C15.939 29.3387 14.8771 28.637 15.079 27.2754C15.0862 27.2288 15.1131 27.2024 15.1597 27.1962L15.2078 27.19C15.2347 27.1859 15.2534 27.1962 15.2637 27.2211C15.8236 28.5335 16.8323 29.1307 18.2896 29.0127C18.4189 29.0023 18.5007 28.9345 18.5349 28.8093C18.6948 28.2271 18.0489 27.8467 18.2135 27.1792C18.4505 26.2228 18.3429 25.3436 17.8906 24.5414C17.8772 24.518 17.8721 24.4907 17.8762 24.464C17.8802 24.4373 17.8932 24.4128 17.913 24.3944C17.9328 24.376 17.9583 24.3649 17.9852 24.3629C18.0121 24.3608 18.039 24.3679 18.0613 24.3831C18.6275 24.7619 18.9214 25.2835 18.9432 25.948C18.9602 26.4712 18.8097 27.0984 19.0301 27.5688C19.1564 27.839 19.2997 28.1065 19.4602 28.3715C19.4943 28.4284 19.5331 28.432 19.5766 28.3824C20.2856 27.574 20.6183 26.6311 20.5749 25.5537C20.5609 25.2199 20.4631 24.8364 20.4181 24.4747C20.4145 24.4516 20.4188 24.428 20.4304 24.4078C20.442 24.3876 20.4602 24.3719 20.4819 24.3634C20.5036 24.3549 20.5276 24.3541 20.5499 24.361C20.5721 24.368 20.5914 24.3823 20.6044 24.4017C21.5607 25.7477 20.8372 26.6994 20.9754 28.1308C20.9767 28.1453 20.9819 28.1592 20.9903 28.1711C20.9988 28.1829 21.0102 28.1923 21.0234 28.1983C21.0367 28.2043 21.0513 28.2067 21.0658 28.2052C21.0803 28.2037 21.0941 28.1984 21.1058 28.1898C21.3998 27.9839 21.6275 27.7293 21.7889 27.426C22.4369 26.2109 22.5083 25.0563 22.0032 23.9623C21.8272 23.5804 21.9054 23.5183 22.2376 23.776C22.6475 24.0948 22.8669 24.5207 22.8959 25.0538C22.8959 25.0587 22.8978 25.0634 22.9013 25.0669C22.9048 25.0704 22.9096 25.0724 22.9145 25.0724C22.9195 25.0724 22.9242 25.0704 22.9277 25.0669C22.9312 25.0634 22.9331 25.0587 22.9331 25.0538C22.9963 24.3158 22.8493 23.6275 22.4922 22.9889C22.4384 22.8927 22.4643 22.8595 22.5699 22.8895C22.7748 22.9465 22.9518 23.0546 23.1008 23.214C23.1114 23.226 23.1258 23.2341 23.1416 23.237C23.1574 23.2399 23.1737 23.2373 23.1879 23.2298C23.202 23.2223 23.2132 23.2102 23.2197 23.1955C23.2262 23.1808 23.2275 23.1644 23.2235 23.1488C22.9606 21.9989 22.4115 20.9717 21.5762 20.0671C21.4024 19.8792 21.2549 19.6122 21.3977 19.3979C22.0994 18.3505 22.4027 17.2472 22.3075 16.088C22.2681 15.6119 21.9954 15.2962 21.4893 15.1409C21.4386 15.1254 21.4215 15.1425 21.4381 15.1922C21.7579 16.1775 21.6823 17.125 21.2114 18.0348C21.1876 18.0814 21.1767 18.1311 21.1788 18.1839C21.2326 19.6525 20.5309 20.3139 19.0736 20.168C19.0177 20.1618 18.9861 20.1866 18.9789 20.2425C18.9416 20.5437 18.7869 20.7098 18.5147 20.7409C17.4248 20.8635 16.5243 20.3419 15.6348 19.6867C15.5892 19.6525 15.5432 19.6525 15.4966 19.6867C14.607 20.3388 13.8571 20.7704 12.7579 20.7486C12.3822 20.7424 12.1338 20.6151 12.1711 20.2021C12.1763 20.139 12.1473 20.1111 12.0842 20.1183C11.7752 20.154 11.4492 20.2115 11.1651 20.1571C9.73674 19.8854 10.1062 18.6776 9.71811 17.6063C9.41796 16.7763 9.42262 15.9363 9.73209 15.0866C9.75382 15.0255 9.73467 15.0064 9.67464 15.0292C8.67638 15.3955 8.71364 16.1889 8.83163 17.153C8.93823 18.0141 9.24201 18.7806 9.74295 19.4523C9.78356 19.5075 9.80404 19.5749 9.80093 19.6431C9.79782 19.7112 9.77131 19.776 9.72588 19.8264C8.83887 20.8076 8.23753 21.9389 7.92185 23.2202C7.91731 23.2357 7.91839 23.2523 7.92491 23.2671C7.93143 23.2818 7.94297 23.2938 7.95748 23.3009C7.97199 23.308 7.98853 23.3097 8.00418 23.3057C8.01982 23.3017 8.03356 23.2924 8.04295 23.2792C8.18992 23.094 8.37984 22.9775 8.61272 22.9299C8.68828 22.9144 8.70743 22.9403 8.67017 23.0075C8.31723 23.641 8.15111 24.3236 8.17181 25.0553C8.18009 25.3844 8.21321 25.387 8.27117 25.0631C8.36898 24.5135 8.48541 24.0337 9.05985 23.7232C9.07908 23.7134 9.101 23.7101 9.12228 23.7138C9.14357 23.7175 9.16306 23.7281 9.1778 23.7439C9.19255 23.7597 9.20174 23.7798 9.20399 23.8013C9.20624 23.8228 9.20142 23.8445 9.19026 23.863C8.96773 24.2232 8.84974 24.6315 8.83628 25.0879C8.80989 25.9822 9.13126 27.8576 10.0861 28.2644C10.1461 28.2902 10.1787 28.2706 10.1839 28.2054C10.2284 27.6868 10.218 27.1714 10.1528 26.6591C10.0302 25.6748 9.97428 25.1593 10.5767 24.4716C10.5914 24.4552 10.6111 24.4442 10.6327 24.4402C10.6544 24.4363 10.6767 24.4396 10.6963 24.4498C10.7158 24.4599 10.7314 24.4762 10.7407 24.4962C10.7499 24.5161 10.7523 24.5386 10.7474 24.5601ZM16.7121 17.519C16.705 17.3873 16.6688 17.2584 16.6056 17.1398C16.5425 17.0212 16.4536 16.9151 16.3441 16.8276C16.2345 16.7401 16.1064 16.673 15.9671 16.63C15.8279 16.5869 15.6801 16.5689 15.5323 16.5769C15.2338 16.5931 14.9533 16.7143 14.7524 16.9138C14.5515 17.1133 14.4467 17.3749 14.4611 17.6409C14.4683 17.7726 14.5045 17.9015 14.5676 18.0201C14.6308 18.1387 14.7196 18.2448 14.8292 18.3323C14.9388 18.4197 15.0668 18.4869 15.2061 18.5299C15.3454 18.5729 15.4932 18.5909 15.641 18.5829C15.9394 18.5668 16.22 18.4456 16.4209 18.2461C16.6218 18.0465 16.7265 17.785 16.7121 17.519ZM7.29153 17.9603C7.56943 17.5799 8.00103 17.8268 8.35035 17.906C8.41348 17.9205 8.43936 17.8961 8.42797 17.833L8.29756 17.0598C8.28928 17.0081 8.25927 16.9739 8.20751 16.9574C5.84924 16.1951 6.10075 20.5903 8.7245 19.8435C8.9698 19.7742 9.04794 19.6381 8.95893 19.4352C8.64222 18.7071 8.26496 17.9153 7.32879 18.024C7.26669 18.0312 7.25427 18.01 7.29153 17.9603ZM23.9764 18.0209C23.9808 18.029 23.9828 18.0382 23.9821 18.0474C23.9814 18.0566 23.9781 18.0654 23.9725 18.0727C23.9669 18.0801 23.9594 18.0857 23.9507 18.0889C23.942 18.0921 23.9327 18.0927 23.9236 18.0907C22.8819 17.8346 22.4658 18.7692 22.1351 19.5377C22.1155 19.5842 22.1232 19.6251 22.1584 19.6603C22.8229 20.3279 24.0059 19.7317 24.3537 19.0828C24.8691 18.1202 24.6471 17.3926 23.6877 16.8999C23.551 16.8306 23.3176 16.8508 22.9875 16.9605C22.9637 16.9685 22.9422 16.9824 22.9251 17.0008C22.9081 17.0193 22.8959 17.0417 22.8897 17.0661L22.7049 17.8206C22.7018 17.8341 22.7022 17.8483 22.7061 17.8616C22.7101 17.875 22.7174 17.8871 22.7274 17.8968C22.7374 17.9065 22.7497 17.9134 22.7632 17.9169C22.7767 17.9204 22.7908 17.9204 22.8043 17.9168C23.1831 17.8097 23.7249 17.5737 23.9764 18.0209ZM12.8433 20.182C13.764 20.1556 14.5759 19.8047 15.2404 19.1744C15.2891 19.1278 15.2829 19.0911 15.2218 19.0641C14.7415 18.8509 14.3726 18.5135 14.1148 18.0519C14.1069 18.0378 14.0963 18.0254 14.0836 18.0154C14.0709 18.0054 14.0563 17.9981 14.0407 17.9937C14.0251 17.9894 14.0088 17.9882 13.9928 17.9902C13.9767 17.9922 13.9612 17.9973 13.9472 18.0053C13.1285 18.4649 12.7533 19.1837 12.8216 20.1618C12.8226 20.1752 12.8299 20.182 12.8433 20.182ZM15.9266 19.0797C15.9211 19.0823 15.9163 19.0863 15.9125 19.0912C15.9088 19.0961 15.9063 19.1019 15.9053 19.1079C15.9042 19.114 15.9046 19.1202 15.9064 19.1261C15.9083 19.132 15.9115 19.1374 15.9158 19.1418C16.5606 19.7855 17.3348 20.1328 18.2383 20.1835C18.3201 20.1887 18.3584 20.1499 18.3532 20.0671C18.2896 19.044 18.0753 18.5472 17.164 18.0302C17.1184 18.0043 17.0822 18.0136 17.0553 18.0581C16.7821 18.5156 16.4058 18.8561 15.9266 19.0797Z" fill="#2B2B2A"/>
<path d="M13.0468 4.5947C13.0468 4.8014 12.9647 4.99964 12.8185 5.14579C12.6723 5.29195 12.4741 5.37406 12.2674 5.37406C12.0607 5.37406 11.8625 5.29195 11.7163 5.14579C11.5701 4.99964 11.488 4.8014 11.488 4.5947C11.488 4.388 11.5701 4.18977 11.7163 4.04361C11.8625 3.89745 12.0607 3.81534 12.2674 3.81534C12.4741 3.81534 12.6723 3.89745 12.8185 4.04361C12.9647 4.18977 13.0468 4.388 13.0468 4.5947ZM12.5857 4.59625C12.5857 4.51184 12.5521 4.43089 12.4924 4.37121C12.4328 4.31152 12.3518 4.27799 12.2674 4.27799C12.183 4.27799 12.102 4.31152 12.0424 4.37121C11.9827 4.43089 11.9491 4.51184 11.9491 4.59625C11.9491 4.68066 11.9827 4.76162 12.0424 4.8213C12.102 4.88099 12.183 4.91452 12.2674 4.91452C12.3518 4.91452 12.4328 4.88099 12.4924 4.8213C12.5521 4.76162 12.5857 4.68066 12.5857 4.59625Z" fill="#2B2B2A"/>
<path d="M17.8531 5.06045C17.8531 5.38861 17.7228 5.70334 17.4907 5.93539C17.2587 6.16744 16.9439 6.2978 16.6158 6.2978C16.2876 6.2978 15.9729 6.16744 15.7408 5.93539C15.5088 5.70334 15.3784 5.38861 15.3784 5.06045C15.3784 4.73228 15.5088 4.41755 15.7408 4.1855C15.9729 3.95345 16.2876 3.82309 16.6158 3.82309C16.9439 3.82309 17.2587 3.95345 17.4907 4.1855C17.7228 4.41755 17.8531 4.73228 17.8531 5.06045ZM17.392 5.062C17.392 4.85571 17.3101 4.65787 17.1642 4.512C17.0183 4.36613 16.8205 4.28419 16.6142 4.28419C16.4079 4.28419 16.2101 4.36613 16.0642 4.512C15.9184 4.65787 15.8364 4.85571 15.8364 5.062C15.8364 5.26829 15.9184 5.46613 16.0642 5.61199C16.2101 5.75786 16.4079 5.83981 16.6142 5.83981C16.8205 5.83981 17.0183 5.75786 17.1642 5.61199C17.3101 5.46613 17.392 5.26829 17.392 5.062Z" fill="#2B2B2A"/>
<path d="M21.8914 6.0727C21.8914 6.29916 21.8014 6.51635 21.6413 6.67648C21.4811 6.83662 21.2639 6.92658 21.0375 6.92658C20.811 6.92658 20.5938 6.83662 20.4337 6.67648C20.2736 6.51635 20.1836 6.29916 20.1836 6.0727C20.1836 5.84623 20.2736 5.62904 20.4337 5.46891C20.5938 5.30877 20.811 5.21881 21.0375 5.21881C21.2639 5.21881 21.4811 5.30877 21.6413 5.46891C21.8014 5.62904 21.8914 5.84623 21.8914 6.0727ZM21.4303 6.06959C21.4303 5.96583 21.389 5.86632 21.3157 5.79295C21.2423 5.71958 21.1428 5.67836 21.039 5.67836C20.9353 5.67836 20.8358 5.71958 20.7624 5.79295C20.689 5.86632 20.6478 5.96583 20.6478 6.06959C20.6478 6.12097 20.6579 6.17184 20.6776 6.21931C20.6972 6.26678 20.7261 6.30991 20.7624 6.34624C20.7987 6.38256 20.8418 6.41138 20.8893 6.43104C20.9368 6.45071 20.9877 6.46083 21.039 6.46083C21.0904 6.46083 21.1413 6.45071 21.1887 6.43104C21.2362 6.41138 21.2793 6.38256 21.3157 6.34624C21.352 6.30991 21.3808 6.26678 21.4005 6.21931C21.4201 6.17184 21.4303 6.12097 21.4303 6.06959Z" fill="#2B2B2A"/>
<path d="M10.0955 7.07872C10.0955 7.28459 10.0137 7.48204 9.86812 7.62762C9.72255 7.77319 9.5251 7.85498 9.31923 7.85498C9.11335 7.85498 8.91591 7.77319 8.77033 7.62762C8.62475 7.48204 8.54297 7.28459 8.54297 7.07872C8.54297 6.87284 8.62475 6.6754 8.77033 6.52982C8.91591 6.38424 9.11335 6.30246 9.31923 6.30246C9.5251 6.30246 9.72255 6.38424 9.86812 6.52982C10.0137 6.6754 10.0955 6.87284 10.0955 7.07872ZM9.63594 7.08182C9.63594 7.04003 9.62771 6.99864 9.61171 6.96003C9.59572 6.92142 9.57228 6.88633 9.54272 6.85678C9.51317 6.82722 9.47808 6.80378 9.43947 6.78778C9.40086 6.77179 9.35947 6.76356 9.31767 6.76356C9.27588 6.76356 9.23449 6.77179 9.19588 6.78778C9.15727 6.80378 9.12218 6.82722 9.09263 6.85678C9.06307 6.88633 9.03963 6.92142 9.02364 6.96003C9.00764 6.99864 8.99941 7.04003 8.99941 7.08182C8.99941 7.16623 9.03294 7.24719 9.09263 7.30687C9.15231 7.36656 9.23327 7.40009 9.31767 7.40009C9.40208 7.40009 9.48304 7.36656 9.54272 7.30687C9.60241 7.24719 9.63594 7.16623 9.63594 7.08182Z" fill="#2B2B2A"/>
<path d="M13.6678 8.32226C13.6678 8.6109 13.5532 8.88772 13.3491 9.09182C13.145 9.29592 12.8682 9.41058 12.5795 9.41058C12.2909 9.41058 12.0141 9.29592 11.81 9.09182C11.6059 8.88772 11.4912 8.6109 11.4912 8.32226C11.4912 8.17934 11.5194 8.03782 11.5741 7.90578C11.6287 7.77374 11.7089 7.65377 11.81 7.55271C11.911 7.45165 12.031 7.37148 12.163 7.31679C12.2951 7.2621 12.4366 7.23395 12.5795 7.23395C12.7224 7.23395 12.864 7.2621 12.996 7.31679C13.128 7.37148 13.248 7.45165 13.3491 7.55271C13.4501 7.65377 13.5303 7.77374 13.585 7.90578C13.6397 8.03782 13.6678 8.17934 13.6678 8.32226ZM13.199 8.31916C13.199 8.15446 13.1336 7.9965 13.0171 7.88004C12.9006 7.76358 12.7427 7.69815 12.578 7.69815C12.4133 7.69815 12.2553 7.76358 12.1389 7.88004C12.0224 7.9965 11.957 8.15446 11.957 8.31916C11.957 8.48386 12.0224 8.64181 12.1389 8.75828C12.2553 8.87474 12.4133 8.94016 12.578 8.94016C12.7427 8.94016 12.9006 8.87474 13.0171 8.75828C13.1336 8.64181 13.199 8.48386 13.199 8.31916Z" fill="#2B2B2A"/>
<path d="M18.1623 8.16394C18.1623 8.40976 18.0646 8.64551 17.8908 8.81933C17.717 8.99315 17.4813 9.0908 17.2354 9.0908C16.9896 9.0908 16.7539 8.99315 16.5801 8.81933C16.4062 8.64551 16.3086 8.40976 16.3086 8.16394C16.3086 7.91813 16.4062 7.68238 16.5801 7.50856C16.7539 7.33474 16.9896 7.23709 17.2354 7.23709C17.4813 7.23709 17.717 7.33474 17.8908 7.50856C18.0646 7.68238 18.1623 7.91813 18.1623 8.16394ZM17.7028 8.16705C17.7028 8.04393 17.6538 7.92586 17.5668 7.83881C17.4797 7.75175 17.3617 7.70285 17.2386 7.70285C17.1154 7.70285 16.9974 7.75175 16.9103 7.83881C16.8233 7.92586 16.7743 8.04393 16.7743 8.16705C16.7743 8.29016 16.8233 8.40823 16.9103 8.49529C16.9974 8.58234 17.1154 8.63125 17.2386 8.63125C17.3617 8.63125 17.4797 8.58234 17.5668 8.49529C17.6538 8.40823 17.7028 8.29016 17.7028 8.16705Z" fill="#2B2B2A"/>
<path d="M22.0481 9.01626C22.0481 9.32466 21.9256 9.62043 21.7075 9.83851C21.4894 10.0566 21.1936 10.1791 20.8852 10.1791C20.5768 10.1791 20.2811 10.0566 20.063 9.83851C19.8449 9.62043 19.7224 9.32466 19.7224 9.01626C19.7224 8.70786 19.8449 8.41208 20.063 8.19401C20.2811 7.97594 20.5768 7.85342 20.8852 7.85342C21.1936 7.85342 21.4894 7.97594 21.7075 8.19401C21.9256 8.41208 22.0481 8.70786 22.0481 9.01626ZM21.5777 9.01936C21.5777 8.83531 21.5046 8.65879 21.3744 8.52865C21.2443 8.3985 21.0677 8.32539 20.8837 8.32539C20.6996 8.32539 20.5231 8.3985 20.393 8.52865C20.2628 8.65879 20.1897 8.83531 20.1897 9.01936C20.1897 9.20342 20.2628 9.37993 20.393 9.51008C20.5231 9.64022 20.6996 9.71334 20.8837 9.71334C21.0677 9.71334 21.2443 9.64022 21.3744 9.51008C21.5046 9.37993 21.5777 9.20342 21.5777 9.01936Z" fill="#2B2B2A"/>
<path d="M9.16223 10.0301C9.16223 10.152 9.13822 10.2727 9.09156 10.3853C9.0449 10.498 8.97652 10.6003 8.89031 10.6865C8.8041 10.7728 8.70175 10.8411 8.58911 10.8878C8.47647 10.9345 8.35574 10.9585 8.23382 10.9585C8.1119 10.9585 7.99118 10.9345 7.87854 10.8878C7.7659 10.8411 7.66355 10.7728 7.57734 10.6865C7.49113 10.6003 7.42275 10.498 7.37609 10.3853C7.32943 10.2727 7.30542 10.152 7.30542 10.0301C7.30542 9.78383 7.40323 9.54769 7.57734 9.37358C7.75145 9.19947 7.9876 9.10165 8.23382 9.10165C8.48005 9.10165 8.7162 9.19947 8.89031 9.37358C9.06442 9.54769 9.16223 9.78383 9.16223 10.0301ZM8.69492 10.0316C8.69492 9.90891 8.64618 9.79123 8.55942 9.70447C8.47265 9.61771 8.35498 9.56896 8.23227 9.56896C8.10957 9.56896 7.99189 9.61771 7.90513 9.70447C7.81837 9.79123 7.76962 9.90891 7.76962 10.0316C7.76962 10.1543 7.81837 10.272 7.90513 10.3588C7.99189 10.4455 8.10957 10.4943 8.23227 10.4943C8.35498 10.4943 8.47265 10.4455 8.55942 10.3588C8.64618 10.272 8.69492 10.1543 8.69492 10.0316Z" fill="#2B2B2A"/>
<path d="M13.809 14.8398C13.5917 14.5743 13.025 14.5852 12.7347 14.6597C12.4288 14.7389 12.1758 14.9764 11.8901 15.1441C11.8687 15.1572 11.8435 15.1627 11.8186 15.1597C11.7937 15.1568 11.7705 15.1455 11.7527 15.1278C11.735 15.11 11.7237 15.0868 11.7207 15.0619C11.7178 15.037 11.7233 15.0118 11.7364 14.9904C12.0117 14.5225 12.3823 14.2669 12.848 14.2234C13.3417 14.1784 13.8773 14.2436 14.1366 14.7078C14.154 14.7383 14.1611 14.7735 14.157 14.8083C14.153 14.8432 14.1379 14.8758 14.114 14.9015C14.09 14.9271 14.0586 14.9444 14.0241 14.9509C13.9896 14.9574 13.954 14.9528 13.9224 14.9376C13.8861 14.92 13.8484 14.8874 13.809 14.8398Z" fill="#2B2B2A"/>
<path d="M19.3035 15.1767C18.6638 14.7249 17.9792 14.3414 17.2666 14.919C17.2392 14.9409 17.2049 14.9524 17.1699 14.9513C17.1348 14.9502 17.1013 14.9367 17.0753 14.9131C17.0493 14.8896 17.0326 14.8575 17.0281 14.8228C17.0236 14.788 17.0316 14.7527 17.0508 14.7233C17.6268 13.8555 19.0939 14.1085 19.4541 15.0602C19.4617 15.0802 19.4628 15.1021 19.457 15.1227C19.4513 15.1432 19.439 15.1614 19.4221 15.1745C19.4052 15.1876 19.3845 15.1948 19.3632 15.1952C19.3418 15.1956 19.3209 15.1891 19.3035 15.1767Z" fill="#2B2B2A"/>
<path d="M13.4442 16.7617C13.8009 16.7617 14.09 16.4726 14.09 16.1159C14.09 15.7592 13.8009 15.47 13.4442 15.47C13.0875 15.47 12.7983 15.7592 12.7983 16.1159C12.7983 16.4726 13.0875 16.7617 13.4442 16.7617Z" fill="#2B2B2A"/>
<path d="M17.7338 16.7695C18.093 16.7695 18.3843 16.4783 18.3843 16.119C18.3843 15.7598 18.093 15.4685 17.7338 15.4685C17.3745 15.4685 17.0833 15.7598 17.0833 16.119C17.0833 16.4783 17.3745 16.7695 17.7338 16.7695Z" fill="#2B2B2A"/>
<path d="M12.2677 4.91449C12.4435 4.91449 12.586 4.77199 12.586 4.59622C12.586 4.42045 12.4435 4.27795 12.2677 4.27795C12.092 4.27795 11.9495 4.42045 11.9495 4.59622C11.9495 4.77199 12.092 4.91449 12.2677 4.91449Z" fill="white"/>
<path d="M16.6147 5.8398C17.0443 5.8398 17.3925 5.49156 17.3925 5.06199C17.3925 4.63242 17.0443 4.28418 16.6147 4.28418C16.1852 4.28418 15.8369 4.63242 15.8369 5.06199C15.8369 5.49156 16.1852 5.8398 16.6147 5.8398Z" fill="white"/>
<path d="M21.0394 6.46078C21.2555 6.46078 21.4307 6.28562 21.4307 6.06955C21.4307 5.85348 21.2555 5.67831 21.0394 5.67831C20.8234 5.67831 20.6482 5.85348 20.6482 6.06955C20.6482 6.28562 20.8234 6.46078 21.0394 6.46078Z" fill="white"/>
<path d="M9.31802 7.40005C9.4938 7.40005 9.63629 7.25756 9.63629 7.08179C9.63629 6.90601 9.4938 6.76352 9.31802 6.76352C9.14225 6.76352 8.99976 6.90601 8.99976 7.08179C8.99976 7.25756 9.14225 7.40005 9.31802 7.40005Z" fill="white"/>
<path d="M12.578 8.94016C12.921 8.94016 13.199 8.66213 13.199 8.31916C13.199 7.97618 12.921 7.69815 12.578 7.69815C12.2351 7.69815 11.957 7.97618 11.957 8.31916C11.957 8.66213 12.2351 8.94016 12.578 8.94016Z" fill="white"/>
<path d="M17.2386 8.63119C17.495 8.63119 17.7028 8.42336 17.7028 8.16699C17.7028 7.91062 17.495 7.70279 17.2386 7.70279C16.9822 7.70279 16.7744 7.91062 16.7744 8.16699C16.7744 8.42336 16.9822 8.63119 17.2386 8.63119Z" fill="white"/>
<path d="M20.8842 9.71333C21.2674 9.71333 21.5781 9.40263 21.5781 9.01935C21.5781 8.63608 21.2674 8.32538 20.8842 8.32538C20.5009 8.32538 20.1902 8.63608 20.1902 9.01935C20.1902 9.40263 20.5009 9.71333 20.8842 9.71333Z" fill="white"/>
<path d="M8.23267 10.4942C8.48818 10.4942 8.69532 10.2871 8.69532 10.0316C8.69532 9.77604 8.48818 9.56891 8.23267 9.56891C7.97716 9.56891 7.77002 9.77604 7.77002 10.0316C7.77002 10.2871 7.97716 10.4942 8.23267 10.4942Z" fill="white"/>
<path d="M10.7478 24.56C10.7527 24.5386 10.7503 24.5161 10.741 24.4962C10.7318 24.4762 10.7162 24.4599 10.6966 24.4498C10.6771 24.4396 10.6547 24.4363 10.6331 24.4402C10.6114 24.4442 10.5917 24.4552 10.577 24.4716C9.97463 25.1593 10.0305 25.6748 10.1532 26.6591C10.2184 27.1714 10.2287 27.6868 10.1842 28.2054C10.179 28.2706 10.1464 28.2902 10.0864 28.2644C9.13161 27.8576 8.81024 25.9822 8.83663 25.0879C8.85009 24.6315 8.96808 24.2232 9.19061 23.863C9.20176 23.8445 9.20658 23.8228 9.20434 23.8013C9.20209 23.7798 9.1929 23.7597 9.17815 23.7439C9.16341 23.7281 9.14392 23.7175 9.12263 23.7138C9.10134 23.7101 9.07942 23.7134 9.06019 23.7232C8.48576 24.0337 8.36932 24.5135 8.27152 25.0631C8.21356 25.387 8.18044 25.3844 8.17216 25.0553C8.15145 24.3235 8.31757 23.641 8.67051 23.0075C8.70777 22.9403 8.68863 22.9144 8.61307 22.9299C8.38019 22.9775 8.19027 23.094 8.0433 23.2792C8.0339 23.2923 8.02017 23.3017 8.00452 23.3057C7.98888 23.3096 7.97234 23.3079 7.95783 23.3009C7.94332 23.2938 7.93178 23.2818 7.92526 23.2671C7.91874 23.2523 7.91765 23.2357 7.9222 23.2202C8.23788 21.9389 8.83922 20.8076 9.72622 19.8264C9.77166 19.776 9.79817 19.7112 9.80128 19.6431C9.80439 19.5749 9.78391 19.5075 9.7433 19.4523C9.24236 18.7805 8.93858 18.0141 8.83197 17.153C8.71398 16.1889 8.67672 15.3955 9.67499 15.0291C9.73502 15.0064 9.75417 15.0255 9.73243 15.0866C9.42297 15.9363 9.41831 16.7762 9.71846 17.6063C10.1066 18.6776 9.73709 19.8854 11.1654 20.1571C11.4495 20.2114 11.7755 20.154 12.0845 20.1183C12.1476 20.111 12.1766 20.139 12.1714 20.2021C12.1342 20.6151 12.3826 20.7424 12.7583 20.7486C13.8575 20.7704 14.6073 20.3388 15.4969 19.6867C15.5435 19.6525 15.5896 19.6525 15.6351 19.6867C16.5247 20.3419 17.4252 20.8635 18.515 20.7409C18.7872 20.7098 18.942 20.5437 18.9792 20.2425C18.9865 20.1866 19.018 20.1618 19.0739 20.168C20.5312 20.3139 21.233 19.6525 21.1791 18.1839C21.1771 18.1311 21.1879 18.0814 21.2117 18.0348C21.6827 17.125 21.7582 16.1775 21.4384 15.1922C21.4219 15.1425 21.4389 15.1254 21.4896 15.1409C21.9958 15.2962 22.2685 15.6119 22.3078 16.088C22.403 17.2472 22.0998 18.3505 21.398 19.3979C21.2552 19.6122 21.4027 19.8792 21.5766 20.0671C22.4118 20.9717 22.9609 21.9989 23.2238 23.1488C23.2278 23.1643 23.2265 23.1808 23.2201 23.1955C23.2136 23.2102 23.2024 23.2223 23.1882 23.2298C23.174 23.2373 23.1577 23.2399 23.1419 23.237C23.1262 23.2341 23.1118 23.226 23.1012 23.214C22.9521 23.0546 22.7751 22.9465 22.5702 22.8895C22.4646 22.8595 22.4388 22.8926 22.4926 22.9889C22.8497 23.6275 22.9966 24.3158 22.9335 25.0537C22.9335 25.0587 22.9315 25.0634 22.928 25.0669C22.9245 25.0704 22.9198 25.0724 22.9149 25.0724C22.9099 25.0724 22.9052 25.0704 22.9017 25.0669C22.8982 25.0634 22.8962 25.0587 22.8962 25.0537C22.8672 24.5207 22.6478 24.0948 22.238 23.776C21.9057 23.5183 21.8276 23.5804 22.0035 23.9623C22.5086 25.0563 22.4372 26.2109 21.7893 27.426C21.6278 27.7293 21.4001 27.9839 21.1062 28.1898C21.0944 28.1984 21.0806 28.2037 21.0661 28.2052C21.0517 28.2067 21.037 28.2043 21.0238 28.1983C21.0105 28.1923 20.9991 28.1829 20.9907 28.1711C20.9822 28.1592 20.9771 28.1453 20.9758 28.1308C20.8376 26.6994 21.5611 25.7477 20.6047 24.4017C20.5917 24.3823 20.5725 24.368 20.5502 24.361C20.528 24.3541 20.504 24.3549 20.4823 24.3634C20.4606 24.3719 20.4424 24.3876 20.4308 24.4078C20.4192 24.428 20.4148 24.4516 20.4184 24.4747C20.4634 24.8364 20.5612 25.2199 20.5752 25.5537C20.6187 26.6311 20.2859 27.574 19.5769 28.3823C19.5335 28.432 19.4947 28.4284 19.4605 28.3715C19.3001 28.1065 19.1567 27.839 19.0305 27.5688C18.81 27.0984 18.9606 26.4712 18.9435 25.948C18.9218 25.2835 18.6278 24.7619 18.0617 24.3831C18.0393 24.3679 18.0125 24.3608 17.9856 24.3629C17.9586 24.3649 17.9332 24.376 17.9134 24.3944C17.8936 24.4128 17.8806 24.4373 17.8765 24.464C17.8724 24.4907 17.8775 24.518 17.8909 24.5414C18.3432 25.3436 18.4509 26.2228 18.2138 27.1791C18.0493 27.8467 18.6951 28.2271 18.5352 28.8093C18.501 28.9345 18.4193 29.0023 18.2899 29.0127C16.8326 29.1307 15.824 28.5335 15.2641 27.2211C15.2537 27.1962 15.2351 27.1859 15.2082 27.19L15.16 27.1962C15.1135 27.2024 15.0865 27.2288 15.0793 27.2754C14.8775 28.637 15.9394 29.3387 17.1209 29.5529C17.1317 29.5553 17.1413 29.5612 17.1484 29.5697C17.1555 29.5782 17.1595 29.5888 17.1599 29.5999C17.1602 29.6109 17.1569 29.6218 17.1504 29.6307C17.1439 29.6396 17.1346 29.6461 17.124 29.6492C15.056 30.191 13.1852 28.7208 12.7785 26.7211C12.6067 25.8807 12.7614 25.1645 13.2427 24.5725C13.2647 24.5453 13.2759 24.511 13.274 24.4761C13.2722 24.4412 13.2576 24.4083 13.2329 24.3836C13.2082 24.3589 13.1752 24.3442 13.1403 24.3424C13.1054 24.3406 13.0711 24.3517 13.044 24.3737C12.5099 24.8105 12.2196 25.3404 12.173 25.9635C12.1357 26.4707 12.2278 27.0394 12.4493 27.6697C12.5782 28.0346 12.5689 28.3544 12.5611 28.7177C12.5609 28.7341 12.5568 28.7502 12.5493 28.7647C12.5417 28.7793 12.5309 28.7919 12.5177 28.8015C12.5044 28.8112 12.4891 28.8176 12.4729 28.8203C12.4567 28.823 12.4402 28.8219 12.4245 28.817C10.7633 28.2861 10.3798 26.0427 10.7478 24.56Z" fill="white"/>
<path d="M15.2407 19.1743C14.5762 19.8046 13.7642 20.1555 12.8436 20.1819C12.8301 20.1819 12.8229 20.1752 12.8219 20.1617C12.7535 19.1836 13.1287 18.4648 13.9474 18.0053C13.9615 17.9973 13.977 17.9921 13.993 17.9901C14.0091 17.9881 14.0254 17.9893 14.041 17.9937C14.0565 17.998 14.0711 18.0054 14.0838 18.0154C14.0966 18.0253 14.1072 18.0377 14.1151 18.0518C14.3728 18.5135 14.7418 18.8509 15.222 19.0641C15.2831 19.091 15.2893 19.1277 15.2407 19.1743Z" fill="white"/>
<path d="M15.927 19.0796C16.4062 18.8561 16.7824 18.5156 17.0556 18.0581C17.0826 18.0136 17.1188 18.0043 17.1643 18.0301C18.0757 18.5471 18.2899 19.0439 18.3536 20.067C18.3587 20.1498 18.3204 20.1887 18.2387 20.1835C17.3351 20.1328 16.5609 19.7855 15.9161 19.1417C15.9118 19.1373 15.9086 19.132 15.9068 19.1261C15.9049 19.1202 15.9045 19.114 15.9056 19.1079C15.9067 19.1018 15.9092 19.0961 15.9129 19.0912C15.9166 19.0863 15.9214 19.0823 15.927 19.0796Z" fill="white"/>
<path d="M10.4294 17.6172C10.416 17.6151 10.4025 17.6125 10.389 17.6094C10.3559 17.6001 10.3316 17.5799 10.3161 17.5489C9.96003 16.8192 9.92381 16.0321 10.2074 15.1875C10.3844 14.6627 10.5458 14.492 11.0675 14.2529C14.1586 12.8478 17.363 13.0404 20.4183 14.45C21.075 14.7528 21.1418 15.9979 21.0828 16.6934C21.0424 17.1716 20.8892 17.5163 20.6232 17.7274C20.5891 17.7543 20.5829 17.7869 20.6046 17.8252C20.6791 17.9541 20.7257 18.01 20.7381 18.1668C20.8013 19.0269 20.4131 19.563 19.5737 19.7752C19.4226 19.8135 19.2239 19.7545 18.9776 19.5982C18.9353 19.571 18.9036 19.5311 18.8875 19.4849C18.7742 19.1619 18.7121 18.7831 18.5925 18.5176C18.3162 17.9028 17.8241 17.774 17.3397 17.465C17.2971 17.4377 17.2631 17.3983 17.2419 17.3517C16.8786 16.5506 16.3523 15.9451 15.3897 16.0538C15.1548 16.0807 14.926 16.1702 14.7035 16.3224C14.2377 16.6375 14.1275 17.1002 13.8341 17.4945C13.8037 17.535 13.7616 17.5658 13.713 17.583C12.842 17.8966 12.5005 18.3515 12.2909 19.2411C12.2039 19.6091 11.9742 19.8 11.6078 19.7596C10.5257 19.637 10.254 18.6372 10.4977 17.7165C10.5132 17.6575 10.4905 17.6244 10.4294 17.6172ZM13.8092 14.8397C13.8486 14.8873 13.8864 14.9199 13.9226 14.9375C13.9542 14.9527 13.9898 14.9574 14.0243 14.9509C14.0588 14.9444 14.0903 14.9271 14.1142 14.9014C14.1381 14.8758 14.1532 14.8431 14.1573 14.8083C14.1613 14.7735 14.1542 14.7382 14.1368 14.7078C13.8776 14.2436 13.3419 14.1783 12.8482 14.2234C12.3825 14.2668 12.0119 14.5225 11.7366 14.9903C11.7235 15.0117 11.718 15.0369 11.721 15.0618C11.7239 15.0868 11.7352 15.11 11.7529 15.1277C11.7707 15.1455 11.7939 15.1567 11.8188 15.1597C11.8437 15.1626 11.8689 15.1571 11.8903 15.144C12.176 14.9763 12.4291 14.7388 12.7349 14.6596C13.0252 14.5851 13.5919 14.5742 13.8092 14.8397ZM17.2667 14.9189C17.9793 14.3414 18.664 14.7248 19.3036 15.1766C19.321 15.1891 19.3419 15.1956 19.3633 15.1952C19.3846 15.1948 19.4053 15.1875 19.4222 15.1744C19.4391 15.1614 19.4514 15.1432 19.4571 15.1226C19.4629 15.102 19.4619 15.0801 19.4542 15.0602C19.094 14.1085 17.6269 13.8554 17.0509 14.7233C17.0317 14.7527 17.0237 14.7879 17.0282 14.8227C17.0327 14.8575 17.0494 14.8895 17.0754 14.9131C17.1014 14.9366 17.1349 14.9502 17.17 14.9512C17.205 14.9523 17.2393 14.9408 17.2667 14.9189ZM14.0902 16.1159C14.0902 15.9446 14.0222 15.7803 13.9011 15.6592C13.78 15.5381 13.6157 15.47 13.4444 15.47C13.2731 15.47 13.1088 15.5381 12.9877 15.6592C12.8666 15.7803 12.7986 15.9446 12.7986 16.1159C12.7986 16.2007 12.8153 16.2847 12.8477 16.363C12.8802 16.4414 12.9277 16.5126 12.9877 16.5726C13.0477 16.6325 13.1189 16.6801 13.1972 16.7126C13.2756 16.745 13.3596 16.7617 13.4444 16.7617C13.6157 16.7617 13.78 16.6937 13.9011 16.5726C14.0222 16.4515 14.0902 16.2872 14.0902 16.1159ZM18.3845 16.119C18.3845 15.9465 18.316 15.781 18.194 15.659C18.072 15.537 17.9065 15.4685 17.734 15.4685C17.5615 15.4685 17.396 15.537 17.274 15.659C17.152 15.781 17.0835 15.9465 17.0835 16.119C17.0835 16.2915 17.152 16.457 17.274 16.579C17.396 16.701 17.5615 16.7695 17.734 16.7695C17.9065 16.7695 18.072 16.701 18.194 16.579C18.316 16.457 18.3845 16.2915 18.3845 16.119Z" fill="#FADDB3"/>
<path d="M15.6411 18.5829C16.2627 18.5492 16.7423 18.0729 16.7123 17.5189C16.6823 16.965 16.154 16.5432 15.5325 16.5769C14.9109 16.6106 14.4313 17.0869 14.4613 17.6409C14.4913 18.1948 15.0195 18.6166 15.6411 18.5829Z" fill="#FADDB3"/>
<path d="M7.32906 18.0239C8.26522 17.9153 8.64249 18.7071 8.9592 19.4352C9.04821 19.638 8.97007 19.7741 8.72477 19.8435C6.10101 20.5903 5.84951 16.1951 8.20778 16.9574C8.25953 16.9739 8.28955 17.0081 8.29783 17.0598L8.42824 17.833C8.43962 17.8961 8.41375 17.9204 8.35061 17.906C8.00129 17.8268 7.5697 17.5799 7.29179 17.9603C7.25453 18.01 7.26696 18.0312 7.32906 18.0239Z" fill="#FADDB3"/>
<path d="M23.9766 18.0209C23.7251 17.5737 23.1833 17.8097 22.8045 17.9168C22.791 17.9204 22.7769 17.9204 22.7634 17.9169C22.7499 17.9134 22.7376 17.9065 22.7276 17.8968C22.7176 17.8871 22.7103 17.875 22.7063 17.8616C22.7024 17.8483 22.702 17.8341 22.7051 17.8206L22.8899 17.0661C22.8961 17.0417 22.9082 17.0193 22.9253 17.0008C22.9424 16.9824 22.9638 16.9685 22.9877 16.9605C23.3178 16.8508 23.5512 16.8306 23.6878 16.8999C24.6473 17.3926 24.8693 18.1202 24.3539 19.0828C24.0061 19.7317 22.8231 20.3279 22.1586 19.6603C22.1234 19.6251 22.1157 19.5842 22.1353 19.5377C22.466 18.7692 22.8821 17.8345 23.9238 18.0907C23.9328 18.0927 23.9422 18.0921 23.9509 18.0889C23.9596 18.0857 23.9671 18.0801 23.9727 18.0727C23.9782 18.0654 23.9816 18.0566 23.9823 18.0474C23.983 18.0382 23.981 18.029 23.9766 18.0209Z" fill="#FADDB3"/>
</g>
<defs>
<clipPath id="clip0_76_3">
<rect width="32" height="32" fill="white"/>
</clipPath>
</defs>
</svg>
