<svg xmlns="http://www.w3.org/2000/svg" fill="none" viewBox="0 0 256 256"><path fill="#478DA4" d="M139.164 64.654h70.016c9.85 0 17.146 6.734 17.146 15.826v7.914l-111.45 83.091L18 209c-4-5-6-11.615-6-17.732V49.46c0-4.366 1.879-8.552 5.223-11.639C20.567 34.734 25.103 33 29.832 33h57.225c6.935 0 13.588 2.532 18.5 7.043l21.03 19.768c3.344 3.062 7.87 4.843 12.577 4.843Z"/><path fill="#5FB8D7" d="M234.089 79H88.169a31.811 31.811 0 0 0-18.15 5.683 31.2 31.2 0 0 0-11.532 14.965c-39.35 111.45-36.101 103.442-37.095 104.695a4.675 4.675 0 0 1-1.673 1.539 4.75 4.75 0 0 1-2.21.577 3.037 3.037 0 0 1-1.56-.459 32.216 32.216 0 0 0 12.836 12.942 32.758 32.758 0 0 0 17.891 3.991h153.866a17.561 17.561 0 0 0 10.368-3.438 17.209 17.209 0 0 0 6.251-8.862l33.959-108.657a17.452 17.452 0 0 0 .592-8.184 17.552 17.552 0 0 0-3.216-7.565 17.82 17.82 0 0 0-6.33-5.313A18.06 18.06 0 0 0 234.089 79Z"/></svg>