<svg xmlns="http://www.w3.org/2000/svg" fill="none" viewBox="0 0 256 256"><g filter="url(#a)"><path fill="#F0DB4F" fill-rule="evenodd" d="M231 89.845c0-2.433.001-4.867-.014-7.301-.012-2.05-.036-4.1-.091-6.15-.121-4.466-.384-8.97-1.179-13.387-.805-4.48-2.121-8.65-4.194-12.721a42.808 42.808 0 0 0-18.718-18.708c-4.075-2.074-8.249-3.39-12.734-4.195-4.418-.793-8.924-1.056-13.39-1.177a294.859 294.859 0 0 0-6.153-.091c-2.435-.015-4.87-.014-7.305-.014L138.948 26h-21.146l-27.774.101c-2.44 0-4.88-.001-7.32.014-2.055.013-4.11.036-6.164.091-4.477.121-8.993.384-13.42 1.178-4.492.806-8.673 2.12-12.753 4.192a42.89 42.89 0 0 0-10.864 7.873 42.794 42.794 0 0 0-7.891 10.835c-2.079 4.073-3.397 8.245-4.205 12.728-.795 4.415-1.058 8.918-1.18 13.383-.055 2.05-.079 4.099-.09 6.149-.016 2.434-.141 5.458-.141 7.891v48.762l.126 27.971c0 2.437 0 4.874.014 7.311.012 2.053.036 4.106.092 6.158.12 4.472.385 8.984 1.18 13.406.808 4.487 2.126 8.662 4.203 12.738a42.898 42.898 0 0 0 18.754 18.735c4.083 2.076 8.265 3.393 12.76 4.199 4.425.795 8.94 1.058 13.415 1.179 2.055.055 4.11.079 6.165.091 2.44.015 4.88.014 7.319.014l28.025.001h21.199l27.97-.001c2.435 0 4.87.001 7.305-.014 2.052-.012 4.102-.036 6.153-.091 4.468-.121 8.976-.385 13.395-1.18 4.482-.806 8.655-2.122 12.728-4.197a42.839 42.839 0 0 0 18.718-18.734c2.075-4.078 3.39-8.256 4.196-12.745.794-4.421 1.057-8.93 1.178-13.401.055-2.052.079-4.105.091-6.158.015-2.437.014-4.874.014-7.311l-.002-27.971v-21.395L231 89.845Z" clip-rule="evenodd"/></g><path fill="#323330" d="M161.731 185.94a21.896 21.896 0 0 0 8.202 8.952 22.102 22.102 0 0 0 11.743 3.239c8.361 0 13.707-4.153 13.707-9.906 0-6.857-5.492-9.311-14.697-13.311l-5.047-2.148c-14.575-6.165-24.24-13.883-24.24-30.204 0-15.033 11.506-26.485 29.556-26.485 5.842-.419 11.68.88 16.785 3.735a29.722 29.722 0 0 1 11.919 12.319l-15.779 10.02a13.648 13.648 0 0 0-5.131-6.301 13.79 13.79 0 0 0-7.825-2.294 8.835 8.835 0 0 0-6.736 2.183 8.725 8.725 0 0 0-2.141 2.9 8.677 8.677 0 0 0-.781 3.512c0 6.011 3.751 8.45 12.412 12.191l5.047 2.148c17.152 7.307 26.848 14.752 26.848 31.492 0 18.05-14.275 27.94-33.445 27.94a38.99 38.99 0 0 1-21.443-4.85 38.64 38.64 0 0 1-15.339-15.654l16.385-9.478Zm-71.3 1.737c3.168 5.585 6.052 10.309 12.987 10.309 6.627 0 10.816-2.575 10.816-12.595V117.22h20.182v68.438c0 20.755-12.274 30.203-30.139 30.203a31.499 31.499 0 0 1-17.99-4.484A31.196 31.196 0 0 1 74 197.574l16.43-9.897Z"/><defs><filter id="a" width="215" height="215" x="21" y="23.5" color-interpolation-filters="sRGB" filterUnits="userSpaceOnUse"><feFlood flood-opacity="0" result="BackgroundImageFix"/><feColorMatrix in="SourceAlpha" result="hardAlpha" values="0 0 0 0 0 0 0 0 0 0 0 0 0 0 0 0 0 0 127 0"/><feOffset dy="2.5"/><feGaussianBlur stdDeviation="2.5"/><feColorMatrix values="0 0 0 0 0 0 0 0 0 0 0 0 0 0 0 0 0 0 0.3 0"/><feBlend in2="BackgroundImageFix" result="effect1_dropShadow_20_607"/><feBlend in="SourceGraphic" in2="effect1_dropShadow_20_607" result="shape"/></filter></defs></svg>