<svg xmlns="http://www.w3.org/2000/svg" fill="none" viewBox="0 0 256 256"><g filter="url(#a)"><rect width="206" height="206" x="25" y="25" fill="#F0DB4F" rx="46"/></g><path fill="#323330" d="M161.731 185.94a21.896 21.896 0 0 0 8.202 8.952 22.102 22.102 0 0 0 11.743 3.239c8.361 0 13.707-4.153 13.707-9.906 0-6.857-5.492-9.311-14.697-13.311l-5.047-2.148c-14.575-6.165-24.24-13.883-24.24-30.204 0-15.033 11.506-26.485 29.556-26.485 5.842-.419 11.68.88 16.785 3.735a29.722 29.722 0 0 1 11.919 12.319l-15.779 10.02a13.648 13.648 0 0 0-5.131-6.301 13.79 13.79 0 0 0-7.825-2.294 8.835 8.835 0 0 0-6.736 2.183 8.725 8.725 0 0 0-2.141 2.9 8.677 8.677 0 0 0-.781 3.512c0 6.011 3.751 8.45 12.412 12.191l5.047 2.148c17.152 7.307 26.848 14.752 26.848 31.492 0 18.05-14.275 27.94-33.445 27.94a38.99 38.99 0 0 1-21.443-4.85 38.64 38.64 0 0 1-15.339-15.654l16.385-9.478Zm-71.3 1.737c3.168 5.585 6.052 10.309 12.987 10.309 6.627 0 10.816-2.575 10.816-12.595V117.22h20.182v68.438c0 20.755-12.274 30.203-30.139 30.203a31.499 31.499 0 0 1-17.99-4.484A31.196 31.196 0 0 1 74 197.574l16.43-9.897Z"/><defs><filter id="a" width="217" height="217" x="19.5" y="22.25" color-interpolation-filters="sRGB" filterUnits="userSpaceOnUse"><feFlood flood-opacity="0" result="BackgroundImageFix"/><feColorMatrix in="SourceAlpha" result="hardAlpha" values="0 0 0 0 0 0 0 0 0 0 0 0 0 0 0 0 0 0 127 0"/><feOffset dy="2.75"/><feGaussianBlur stdDeviation="2.75"/><feColorMatrix values="0 0 0 0 0 0 0 0 0 0 0 0 0 0 0 0 0 0 0.28 0"/><feBlend in2="BackgroundImageFix" result="effect1_dropShadow_15_34"/><feBlend in="SourceGraphic" in2="effect1_dropShadow_15_34" result="shape"/></filter></defs></svg>