<svg xmlns="http://www.w3.org/2000/svg" fill="none" viewBox="0 0 256 256"><g filter="url(#a)"><rect width="206" height="206" x="25" y="25" fill="#007ACC" rx="46"/></g><path fill="#fff" fill-rule="evenodd" d="M149.841 189.037v21.57a45.903 45.903 0 0 0 12.447 4.042 81.803 81.803 0 0 0 15.142 1.35c4.95.024 9.889-.474 14.734-1.483 4.35-.876 8.5-2.544 12.242-4.922a24.935 24.935 0 0 0 8.334-8.9 31.32 31.32 0 0 0 1.312-23.862 23.964 23.964 0 0 0-5.059-7.853 36.912 36.912 0 0 0-7.924-6.166 84.952 84.952 0 0 0-10.422-5.16 136.949 136.949 0 0 1-7.621-3.403 38.923 38.923 0 0 1-5.737-3.368 14.719 14.719 0 0 1-3.641-3.642 7.652 7.652 0 0 1-1.277-4.345 7.29 7.29 0 0 1 1.143-4.014 9.869 9.869 0 0 1 3.239-3.065 17.225 17.225 0 0 1 5.123-1.99 29.818 29.818 0 0 1 6.746-.703c1.907.006 3.812.143 5.701.408 2.04.274 4.058.69 6.04 1.244a42.474 42.474 0 0 1 5.899 2.109 32.87 32.87 0 0 1 5.299 2.967v-20.128a53.166 53.166 0 0 0-10.76-2.813 88.183 88.183 0 0 0-13.407-.907 62.09 62.09 0 0 0-14.564 1.653 37.047 37.047 0 0 0-12.109 5.153 25.731 25.731 0 0 0-8.262 8.936 26.148 26.148 0 0 0-3.042 12.971 25.17 25.17 0 0 0 5.568 16.452 42.342 42.342 0 0 0 16.899 11.523 244.32 244.32 0 0 1 8.291 3.578 45.696 45.696 0 0 1 6.647 3.635 17.349 17.349 0 0 1 4.417 4.113 8.413 8.413 0 0 1 1.623 5.055 7.703 7.703 0 0 1-1.016 3.881 8.938 8.938 0 0 1-3.069 3.1 16.804 16.804 0 0 1-5.123 2.053 30.977 30.977 0 0 1-7.183.739 40.884 40.884 0 0 1-13.894-2.461 41.479 41.479 0 0 1-12.736-7.347Zm-36.368-53.699h28.225v-17.767H63v17.767h28.098v79.122h22.375v-79.122Z" clip-rule="evenodd"/><defs><filter id="a" width="217" height="217" x="19.5" y="22.25" color-interpolation-filters="sRGB" filterUnits="userSpaceOnUse"><feFlood flood-opacity="0" result="BackgroundImageFix"/><feColorMatrix in="SourceAlpha" result="hardAlpha" values="0 0 0 0 0 0 0 0 0 0 0 0 0 0 0 0 0 0 127 0"/><feOffset dy="2.75"/><feGaussianBlur stdDeviation="2.75"/><feColorMatrix values="0 0 0 0 0 0 0 0 0 0 0 0 0 0 0 0 0 0 0.28 0"/><feBlend in2="BackgroundImageFix" result="effect1_dropShadow_15_36"/><feBlend in="SourceGraphic" in2="effect1_dropShadow_15_36" result="shape"/></filter></defs></svg>