<svg xmlns="http://www.w3.org/2000/svg" fill="none" viewBox="0 0 256 256"><g filter="url(#a)"><path fill="#007ACC" fill-rule="evenodd" d="M231 89.845c0-2.433.001-4.867-.014-7.301-.012-2.05-.036-4.1-.091-6.15-.121-4.466-.384-8.97-1.179-13.387-.805-4.48-2.121-8.65-4.194-12.721a42.808 42.808 0 0 0-18.718-18.708c-4.075-2.074-8.249-3.39-12.734-4.195-4.418-.793-8.924-1.056-13.39-1.177a294.859 294.859 0 0 0-6.153-.091c-2.435-.015-4.87-.014-7.305-.014L138.948 26h-21.146l-27.774.101c-2.44 0-4.88-.001-7.32.014-2.055.013-4.11.036-6.164.091-4.477.121-8.993.384-13.42 1.178-4.492.806-8.673 2.12-12.753 4.192a42.89 42.89 0 0 0-10.864 7.873 42.794 42.794 0 0 0-7.891 10.835c-2.079 4.073-3.397 8.245-4.205 12.728-.795 4.415-1.058 8.918-1.18 13.383-.055 2.05-.079 4.099-.09 6.149-.016 2.434-.141 5.458-.141 7.891v48.762l.126 27.971c0 2.437 0 4.874.014 7.311.012 2.053.036 4.106.092 6.158.12 4.472.385 8.984 1.18 13.406.808 4.487 2.126 8.662 4.203 12.738a42.898 42.898 0 0 0 18.754 18.735c4.083 2.076 8.265 3.393 12.76 4.199 4.425.795 8.94 1.058 13.415 1.179 2.055.055 4.11.079 6.165.091 2.44.015 4.88.014 7.319.014l28.025.001h21.199l27.97-.001c2.435 0 4.87.001 7.305-.014 2.052-.012 4.102-.036 6.153-.091 4.468-.121 8.976-.385 13.395-1.18 4.482-.806 8.655-2.122 12.728-4.197a42.839 42.839 0 0 0 18.718-18.734c2.075-4.078 3.39-8.256 4.196-12.745.794-4.421 1.057-8.93 1.178-13.401.055-2.052.079-4.105.091-6.158.015-2.437.014-4.874.014-7.311l-.002-27.971v-21.395L231 89.845Z" clip-rule="evenodd"/></g><path fill="#fff" fill-rule="evenodd" d="M149.841 189.037v21.57a45.903 45.903 0 0 0 12.447 4.042 81.803 81.803 0 0 0 15.142 1.35c4.95.024 9.889-.474 14.734-1.483 4.35-.876 8.5-2.544 12.242-4.922a24.935 24.935 0 0 0 8.334-8.9 31.32 31.32 0 0 0 1.312-23.862 23.964 23.964 0 0 0-5.059-7.853 36.912 36.912 0 0 0-7.924-6.166 84.952 84.952 0 0 0-10.422-5.16 136.949 136.949 0 0 1-7.621-3.403 38.923 38.923 0 0 1-5.737-3.368 14.719 14.719 0 0 1-3.641-3.642 7.652 7.652 0 0 1-1.277-4.345 7.29 7.29 0 0 1 1.143-4.014 9.869 9.869 0 0 1 3.239-3.065 17.225 17.225 0 0 1 5.123-1.99 29.818 29.818 0 0 1 6.746-.703c1.907.006 3.812.143 5.701.408 2.04.274 4.058.69 6.04 1.244a42.474 42.474 0 0 1 5.899 2.109 32.87 32.87 0 0 1 5.299 2.967v-20.128a53.166 53.166 0 0 0-10.76-2.813 88.183 88.183 0 0 0-13.407-.907 62.09 62.09 0 0 0-14.564 1.653 37.047 37.047 0 0 0-12.109 5.153 25.731 25.731 0 0 0-8.262 8.936 26.148 26.148 0 0 0-3.042 12.971 25.17 25.17 0 0 0 5.568 16.452 42.342 42.342 0 0 0 16.899 11.523 244.32 244.32 0 0 1 8.291 3.578 45.696 45.696 0 0 1 6.647 3.635 17.349 17.349 0 0 1 4.417 4.113 8.413 8.413 0 0 1 1.623 5.055 7.703 7.703 0 0 1-1.016 3.881 8.938 8.938 0 0 1-3.069 3.1 16.804 16.804 0 0 1-5.123 2.053 30.977 30.977 0 0 1-7.183.739 40.884 40.884 0 0 1-13.894-2.461 41.479 41.479 0 0 1-12.736-7.347Zm-36.368-53.699h28.225v-17.767H63v17.767h28.098v79.122h22.375v-79.122Z" clip-rule="evenodd"/><defs><filter id="a" width="215" height="215" x="21" y="23.5" color-interpolation-filters="sRGB" filterUnits="userSpaceOnUse"><feFlood flood-opacity="0" result="BackgroundImageFix"/><feColorMatrix in="SourceAlpha" result="hardAlpha" values="0 0 0 0 0 0 0 0 0 0 0 0 0 0 0 0 0 0 127 0"/><feOffset dy="2.5"/><feGaussianBlur stdDeviation="2.5"/><feColorMatrix values="0 0 0 0 0 0 0 0 0 0 0 0 0 0 0 0 0 0 0.3 0"/><feBlend in2="BackgroundImageFix" result="effect1_dropShadow_20_608"/><feBlend in="SourceGraphic" in2="effect1_dropShadow_20_608" result="shape"/></filter></defs></svg>