<svg viewBox="0 0 512 512" fill="none" xmlns="http://www.w3.org/2000/svg">
  <g clip-path="url(#clip0_47_2)">
    <path
      d="M512 397.172C512.026 412.16 509.1 427.007 503.389 440.865C497.678 454.722 489.294 467.319 478.715 477.936C468.136 488.552 455.57 496.981 441.734 502.741C427.898 508.501 413.063 511.479 398.076 511.506L114.817 512C99.8298 512.026 84.9846 509.1 71.1285 503.388C57.2725 497.677 44.677 489.292 34.0612 478.712C23.4454 468.132 15.0172 455.564 9.25778 441.727C3.49839 427.89 0.520608 413.053 0.494452 398.065L0.000173997 114.828C-0.0259952 99.8395 2.89997 84.9929 8.61102 71.1354C14.3221 57.278 22.7063 44.6813 33.2851 34.0645C43.864 23.4476 56.4301 15.0186 70.2661 9.25868C84.1022 3.49873 98.9371 0.520659 113.924 0.4945L397.183 0.000174014C412.17 -0.0259977 427.015 2.90025 440.871 8.61186C454.728 14.3235 467.323 22.7085 477.939 33.2884C488.555 43.8682 496.983 56.4356 502.742 70.273C508.502 84.1104 511.479 98.9467 511.506 113.935L512 397.172ZM170.6 454.574C170.848 452.24 171.668 452.009 173.058 453.879C179.943 463.132 188.367 468.519 198.33 470.042C204.305 470.969 207.929 468.627 209.204 463.016C209.246 462.822 209.339 462.643 209.473 462.497C209.608 462.351 209.778 462.244 209.968 462.186C210.157 462.128 210.359 462.121 210.552 462.166C210.745 462.212 210.922 462.308 211.066 462.445C216.205 467.237 221.368 472.848 226.706 476.373C244.233 487.968 263.969 490.029 283.085 480.892C298.973 473.27 317.071 468.999 326.778 452.861C326.855 452.728 326.967 452.618 327.102 452.542C327.236 452.467 327.388 452.428 327.542 452.431C327.696 452.433 327.847 452.477 327.979 452.557C328.111 452.637 328.219 452.75 328.292 452.886L331.197 458.398C331.693 459.308 332.446 459.854 333.456 460.036C353.142 463.761 362.626 433.793 365.704 420.187C365.886 419.36 366.341 418.739 367.07 418.325C373.359 414.651 376.47 408.932 376.404 401.169C376.387 397.726 376.387 394.168 376.404 390.493C376.412 390.118 376.536 389.756 376.759 389.457C376.982 389.159 377.292 388.939 377.645 388.83C380.806 387.82 382.337 385.346 382.238 381.406C381.725 362.884 376.305 346.539 365.977 332.371C365.382 331.56 365.564 331.014 366.523 330.732C370.421 329.565 375.188 329.739 378.489 328.523C401.676 320.031 412.351 294.533 398.102 273.032C397.959 272.817 397.868 272.571 397.837 272.315C397.806 272.058 397.835 271.798 397.921 271.555C398.008 271.311 398.15 271.092 398.337 270.913C398.523 270.734 398.749 270.601 398.995 270.524C430.102 261.04 434.074 225.089 407.188 209.025C406.837 208.816 406.535 208.532 406.304 208.193C406.073 207.855 405.917 207.47 405.847 207.064C404.738 200.427 403.629 193.789 402.521 187.152C394.105 137.372 369.825 79.7462 321.564 56.9541C269.654 32.3992 207.59 34.4599 158.858 68.0025C115.884 97.5727 96.4709 159.047 90.9844 208.628C90.9016 209.456 90.5458 210.151 89.9169 210.714C71.7942 226.852 68.9145 248.8 88.1543 264.764C91.6299 267.644 96.024 268.911 100.368 270.524C100.539 270.59 100.693 270.692 100.819 270.823C100.946 270.954 101.043 271.11 101.102 271.281C101.161 271.451 101.182 271.632 101.162 271.811C101.143 271.989 101.084 272.16 100.989 272.312C84.778 298.754 101.411 329.565 132.195 330.484C133.304 330.517 133.61 331.038 133.113 332.048C124.499 348.882 117.473 361.147 117.002 382.623C116.935 385.867 118.119 388.068 120.552 389.227C121.247 389.541 121.586 390.071 121.57 390.816C121.536 399.224 123.233 407.236 126.659 414.849C126.843 415.266 127.16 415.608 127.557 415.82C127.953 416.032 128.407 416.101 128.843 416.016L131.202 415.569C131.947 415.437 132.385 415.743 132.518 416.488C134.14 425.658 137.35 435.349 142.15 445.562C145.923 453.581 157.591 465.399 167.05 459.639C169.218 458.315 170.401 456.627 170.6 454.574Z"
      fill="#FAB921"
    />
    <path
      d="M175.167 68.6462C218.96 43.7065 272.888 41.6945 318.147 65.0195C365.791 89.5865 386.93 146.471 394.432 196.226C394.879 199.157 393.844 199.836 391.327 198.263C295.476 137.951 199.51 137.893 103.428 198.089C102.583 198.619 102.227 198.387 102.36 197.393C107.85 156.084 123.772 113.234 153.63 83.0784C156.942 79.7332 164.121 74.9225 175.167 68.6462ZM208.751 73.5149C208.751 70.2077 207.437 67.0359 205.098 64.6974C202.76 62.3588 199.588 61.045 196.281 61.045C192.974 61.045 189.802 62.3588 187.463 64.6974C185.125 67.0359 183.811 70.2077 183.811 73.5149C183.811 76.8221 185.125 79.9938 187.463 82.3323C189.802 84.6709 192.974 85.9847 196.281 85.9847C199.588 85.9847 202.76 84.6709 205.098 82.3323C207.437 79.9938 208.751 76.8221 208.751 73.5149ZM285.656 80.9669C285.656 75.7163 283.57 70.6806 279.858 66.9678C276.145 63.2551 271.109 61.1692 265.858 61.1692C260.608 61.1692 255.572 63.2551 251.859 66.9678C248.147 70.6806 246.061 75.7163 246.061 80.9669C246.061 86.2176 248.147 91.2532 251.859 94.966C255.572 98.6788 260.608 100.765 265.858 100.765C271.109 100.765 276.145 98.6788 279.858 94.966C283.57 91.2532 285.656 86.2176 285.656 80.9669ZM350.266 97.1628C350.266 93.5394 348.826 90.0643 346.264 87.5022C343.702 84.94 340.227 83.5006 336.604 83.5006C332.98 83.5006 329.505 84.94 326.943 87.5022C324.381 90.0643 322.941 93.5394 322.941 97.1628C322.941 100.786 324.381 104.261 326.943 106.823C329.505 109.386 332.98 110.825 336.604 110.825C340.227 110.825 343.702 109.386 346.264 106.823C348.826 104.261 350.266 100.786 350.266 97.1628ZM161.529 113.259C161.529 109.965 160.221 106.806 157.892 104.477C155.562 102.148 152.403 100.839 149.109 100.839C145.815 100.839 142.656 102.148 140.327 104.477C137.998 106.806 136.689 109.965 136.689 113.259C136.689 116.553 137.998 119.712 140.327 122.042C142.656 124.371 145.815 125.679 149.109 125.679C152.403 125.679 155.562 124.371 157.892 122.042C160.221 119.712 161.529 116.553 161.529 113.259ZM218.687 133.156C218.687 130.87 218.236 128.605 217.361 126.493C216.486 124.38 215.204 122.46 213.587 120.843C211.97 119.227 210.05 117.944 207.937 117.069C205.825 116.194 203.561 115.743 201.274 115.743C198.987 115.743 196.723 116.194 194.61 117.069C192.497 117.944 190.578 119.227 188.961 120.843C187.344 122.46 186.061 124.38 185.186 126.493C184.311 128.605 183.861 130.87 183.861 133.156C183.861 137.775 185.695 142.204 188.961 145.469C192.227 148.735 196.656 150.569 201.274 150.569C205.892 150.569 210.321 148.735 213.587 145.469C216.852 142.204 218.687 137.775 218.687 133.156ZM290.599 130.623C290.599 126.69 289.037 122.918 286.256 120.137C283.475 117.355 279.703 115.793 275.77 115.793C271.837 115.793 268.065 117.355 265.284 120.137C262.503 122.918 260.94 126.69 260.94 130.623C260.94 134.556 262.503 138.328 265.284 141.109C268.065 143.89 271.837 145.452 275.77 145.452C279.703 145.452 283.475 143.89 286.256 141.109C289.037 138.328 290.599 134.556 290.599 130.623ZM352.775 144.26C352.775 139.326 350.814 134.593 347.325 131.104C343.836 127.615 339.104 125.655 334.169 125.655C329.235 125.655 324.502 127.615 321.013 131.104C317.524 134.593 315.564 139.326 315.564 144.26C315.564 149.194 317.524 153.927 321.013 157.416C324.502 160.905 329.235 162.865 334.169 162.865C339.104 162.865 343.836 160.905 347.325 157.416C350.814 153.927 352.775 149.194 352.775 144.26ZM146.6 160.481C146.6 156.541 145.035 152.763 142.25 149.977C139.464 147.191 135.686 145.626 131.746 145.626C127.806 145.626 124.028 147.191 121.242 149.977C118.456 152.763 116.891 156.541 116.891 160.481C116.891 162.431 117.276 164.363 118.022 166.165C118.769 167.967 119.863 169.605 121.242 170.984C122.622 172.364 124.259 173.458 126.061 174.204C127.864 174.951 129.795 175.335 131.746 175.335C133.697 175.335 135.628 174.951 137.43 174.204C139.233 173.458 140.87 172.364 142.25 170.984C143.629 169.605 144.723 167.967 145.47 166.165C146.216 164.363 146.6 162.431 146.6 160.481Z"
      fill="#FE453A"
    />
    <path
      d="M356.998 189.593C374.088 198.511 388.52 207.205 403.971 218.607C419.645 230.182 418.924 250.924 399.673 258.103C391.551 261.133 380.199 258.699 370.213 262.375C369.842 262.508 369.445 262.552 369.055 262.503C368.664 262.454 368.29 262.314 367.964 262.094C367.637 261.874 367.367 261.58 367.175 261.236C366.983 260.892 366.875 260.508 366.859 260.115C366.462 249.657 364.326 243.869 355.433 237.461C290.848 191.059 208.353 190.736 143.62 235.896C135.323 241.675 131.357 249.798 131.721 260.264C131.754 261.191 131.316 261.58 130.405 261.431C121.396 259.958 112.528 259.436 103.801 259.866C100.29 260.049 96.1914 257.722 91.5048 252.886C85.5928 246.742 83.4483 240.11 85.0712 232.989C87.3813 223.028 103.428 210.434 112.197 204.497C185.699 154.643 278.329 148.582 356.998 189.593Z"
      fill="#FE453A"
    />
    <path
      d="M170.446 453.521C170.247 455.575 169.063 457.264 166.893 458.589C157.429 464.352 145.754 452.528 141.979 444.504C137.176 434.287 133.964 424.591 132.341 415.416C132.208 414.671 131.769 414.365 131.024 414.497L128.664 414.944C128.228 415.03 127.774 414.96 127.377 414.748C126.98 414.536 126.663 414.194 126.478 413.777C123.05 406.159 121.353 398.144 121.386 389.732C121.403 388.986 121.063 388.456 120.368 388.142C117.933 386.983 116.749 384.78 116.815 381.534C117.287 360.048 124.317 347.776 132.937 330.935C133.434 329.925 133.127 329.403 132.018 329.37C101.216 328.451 84.5728 297.624 100.793 271.169C100.888 271.017 100.947 270.846 100.967 270.667C100.986 270.489 100.966 270.308 100.906 270.137C100.847 269.966 100.751 269.81 100.624 269.679C100.497 269.548 100.343 269.446 100.172 269.38C95.8254 267.766 91.4287 266.499 87.9511 263.618C68.6999 247.645 71.5813 225.686 89.7147 209.54C90.344 208.977 90.7001 208.282 90.7829 207.454C96.2726 157.848 115.698 96.3432 158.696 66.7584C207.458 33.1992 269.558 31.1374 321.499 55.7045C369.789 78.5078 394.083 136.162 402.503 185.967C403.613 192.608 404.723 199.248 405.832 205.889C405.902 206.294 406.058 206.68 406.289 207.019C406.521 207.357 406.822 207.641 407.173 207.851C434.075 223.923 430.101 259.892 398.976 269.38C398.729 269.457 398.504 269.59 398.317 269.769C398.131 269.948 397.988 270.168 397.902 270.411C397.815 270.655 397.786 270.915 397.817 271.172C397.849 271.428 397.939 271.674 398.082 271.889C412.34 293.401 401.659 318.912 378.458 327.407C375.154 328.625 370.385 328.451 366.485 329.618C365.525 329.9 365.342 330.446 365.939 331.258C376.272 345.433 381.696 361.786 382.209 380.317C382.308 384.258 380.776 386.734 377.613 387.744C377.26 387.854 376.95 388.074 376.727 388.372C376.504 388.671 376.38 389.034 376.371 389.409C376.355 393.085 376.355 396.646 376.371 400.09C376.438 407.857 373.324 413.578 367.032 417.255C366.303 417.669 365.848 418.29 365.665 419.118C362.585 432.73 353.096 462.712 333.398 458.986C332.388 458.804 331.634 458.258 331.137 457.347L328.231 451.832C328.158 451.697 328.049 451.583 327.918 451.503C327.786 451.423 327.635 451.379 327.481 451.377C327.326 451.374 327.174 451.413 327.04 451.488C326.905 451.564 326.794 451.674 326.716 451.807C317.003 467.954 298.895 472.226 282.997 479.852C263.87 488.993 244.122 486.932 226.585 475.331C221.244 471.804 216.077 466.19 210.935 461.396C210.792 461.259 210.614 461.163 210.421 461.117C210.228 461.072 210.026 461.078 209.837 461.137C209.647 461.195 209.476 461.302 209.342 461.448C209.208 461.594 209.115 461.773 209.072 461.967C207.797 467.581 204.17 469.924 198.192 468.997C188.223 467.473 179.794 462.083 172.905 452.826C171.514 450.955 170.694 451.186 170.446 453.521ZM175.165 68.6462C164.12 74.9226 156.941 79.7333 153.629 83.0784C123.771 113.235 107.848 156.084 102.358 197.393C102.226 198.387 102.582 198.619 103.427 198.089C199.509 137.893 295.475 137.951 391.325 198.263C393.842 199.836 394.878 199.157 394.43 196.226C386.929 146.471 365.79 89.5866 318.146 65.0196C272.887 41.6946 218.959 43.7066 175.165 68.6462ZM356.996 189.594C278.327 148.582 185.698 154.643 112.195 204.498C103.427 210.435 87.3797 223.029 85.0696 232.99C83.4467 240.11 85.5912 246.743 91.5032 252.887C96.1898 257.722 100.288 260.049 103.799 259.867C112.526 259.436 121.394 259.958 130.403 261.432C131.314 261.581 131.753 261.191 131.72 260.264C131.355 249.798 135.321 241.675 143.618 235.896C208.352 190.736 290.846 191.059 355.431 237.461C364.324 243.87 366.46 249.657 366.858 260.115C366.874 260.508 366.982 260.893 367.174 261.236C367.366 261.58 367.636 261.874 367.962 262.094C368.289 262.314 368.662 262.454 369.053 262.503C369.444 262.552 369.84 262.508 370.211 262.376C380.197 258.699 391.549 261.134 399.672 258.103C418.923 250.924 419.643 230.183 403.969 218.607C388.518 207.205 374.086 198.511 356.996 189.594ZM167.962 283.465C164.062 298.195 168.409 314.192 185.722 316.155C191.585 316.801 195.261 313.745 196.652 307.858C200.006 293.625 205.47 286.346 219.406 281.329C220.184 281.053 220.858 280.56 221.343 279.913C226.038 273.603 227.802 266.201 235.254 261.158C238.814 258.724 242.474 257.292 246.233 256.861C261.634 255.122 270.055 264.81 275.868 277.627C276.208 278.374 276.751 279.003 277.433 279.441C285.183 284.384 293.057 286.446 297.479 296.283C299.391 300.53 300.385 306.591 302.198 311.758C302.456 312.498 302.963 313.136 303.639 313.571C307.58 316.072 310.76 317.016 313.178 316.403C326.608 313.008 332.818 304.43 331.808 290.669C331.609 288.16 330.864 287.266 329.672 285.204C329.324 284.591 329.423 284.069 329.97 283.639C334.226 280.261 336.677 274.746 337.323 267.095C338.267 255.967 337.198 236.045 326.691 231.201C277.805 208.646 226.535 205.566 177.078 228.046C168.732 231.872 166.148 234.604 163.316 243C158.779 256.513 159.359 269.107 165.055 280.782C165.304 281.279 165.693 281.602 166.223 281.751C166.438 281.801 166.653 281.842 166.869 281.875C167.846 281.991 168.21 282.521 167.962 283.465ZM171.961 392.961C166.074 416.683 172.209 452.577 198.788 461.073C199.039 461.15 199.304 461.168 199.563 461.125C199.822 461.082 200.067 460.979 200.279 460.825C200.491 460.67 200.664 460.469 200.785 460.236C200.906 460.003 200.97 459.745 200.974 459.483C201.099 453.67 201.248 448.553 199.186 442.716C195.642 432.631 194.168 423.531 194.764 415.416C195.509 405.447 200.155 396.968 208.7 389.98C209.134 389.628 209.683 389.449 210.241 389.478C210.799 389.507 211.327 389.742 211.722 390.137C212.117 390.532 212.352 391.06 212.381 391.618C212.41 392.176 212.231 392.725 211.879 393.16C204.179 402.632 201.703 414.092 204.452 427.539C210.96 459.533 240.893 483.057 273.98 474.387C274.15 474.338 274.298 474.234 274.402 474.091C274.506 473.948 274.56 473.775 274.554 473.598C274.548 473.421 274.484 473.251 274.371 473.115C274.258 472.98 274.103 472.885 273.93 472.847C255.027 469.419 238.036 458.191 241.265 436.406C241.381 435.661 241.812 435.239 242.557 435.14L243.327 435.04C243.758 434.974 244.056 435.14 244.221 435.537C253.18 456.535 269.318 466.091 292.635 464.203C294.705 464.037 296.013 462.952 296.56 460.949C299.118 451.634 288.785 445.548 291.418 434.866C295.21 419.565 293.488 405.497 286.251 392.663C286.036 392.288 285.955 391.851 286.02 391.424C286.086 390.997 286.294 390.604 286.611 390.31C286.928 390.017 287.335 389.839 287.765 389.806C288.196 389.773 288.626 389.887 288.983 390.129C298.042 396.19 302.745 404.536 303.093 415.168C303.366 423.539 300.956 433.575 304.484 441.101C306.504 445.424 308.798 449.704 311.364 453.944C311.911 454.855 312.532 454.913 313.228 454.118C324.571 441.184 329.895 426.098 329.2 408.859C328.976 403.518 327.411 397.382 326.691 391.595C326.633 391.226 326.703 390.849 326.889 390.525C327.075 390.201 327.365 389.951 327.713 389.814C328.06 389.678 328.444 389.665 328.8 389.776C329.156 389.888 329.464 390.117 329.672 390.427C344.973 411.964 333.398 427.191 335.609 450.093C335.63 450.325 335.712 450.547 335.847 450.737C335.982 450.927 336.165 451.077 336.377 451.173C336.589 451.269 336.823 451.307 337.054 451.283C337.286 451.259 337.507 451.175 337.695 451.037C342.398 447.742 346.042 443.668 348.625 438.816C358.992 419.374 360.134 400.901 352.053 383.397C349.238 377.287 350.488 376.293 355.804 380.417C362.362 385.517 365.872 392.332 366.336 400.86C366.336 400.939 366.367 401.015 366.423 401.071C366.479 401.127 366.555 401.158 366.634 401.158C366.713 401.158 366.789 401.127 366.845 401.071C366.901 401.015 366.932 400.939 366.932 400.86C367.942 389.053 365.591 378.04 359.878 367.823C359.016 366.282 359.43 365.752 361.12 366.233C364.398 367.144 367.23 368.874 369.615 371.424C369.785 371.617 370.015 371.746 370.268 371.792C370.52 371.838 370.781 371.797 371.008 371.677C371.234 371.556 371.414 371.363 371.517 371.128C371.621 370.893 371.642 370.63 371.577 370.381C367.371 351.983 358.586 335.547 345.222 321.073C342.44 318.067 340.08 313.795 342.365 310.367C353.593 293.608 358.445 275.955 356.922 257.408C356.292 249.79 351.929 244.739 343.831 242.255C343.019 242.007 342.746 242.28 343.011 243.075C348.128 258.84 346.919 274.001 339.384 288.557C339.003 289.302 338.83 290.097 338.863 290.942C339.724 314.441 328.496 325.023 305.179 322.688C304.285 322.588 303.78 322.986 303.664 323.88C303.068 328.699 300.592 331.357 296.237 331.854C278.799 333.816 264.392 325.47 250.158 314.987C249.429 314.441 248.692 314.441 247.947 314.987C233.714 325.42 221.716 332.326 204.129 331.978C198.118 331.879 194.143 329.842 194.739 323.234C194.822 322.224 194.359 321.777 193.348 321.893C188.405 322.464 183.189 323.383 178.643 322.514C155.79 318.167 161.702 298.841 155.492 281.701C150.689 268.42 150.764 254.981 155.715 241.386C156.063 240.408 155.757 240.102 154.796 240.466C138.824 246.329 139.42 259.022 141.308 274.448C143.014 288.226 147.874 300.489 155.889 311.236C156.539 312.121 156.867 313.199 156.817 314.289C156.767 315.38 156.343 316.416 155.616 317.223C141.424 332.922 131.802 351.022 126.752 371.524C126.679 371.771 126.696 372.037 126.801 372.273C126.905 372.509 127.089 372.701 127.322 372.814C127.554 372.927 127.818 372.954 128.069 372.891C128.319 372.828 128.539 372.678 128.689 372.468C131.041 369.503 134.079 367.64 137.806 366.879C139.014 366.63 139.321 367.044 138.725 368.121C133.078 378.255 130.42 389.177 130.751 400.885C130.883 406.151 131.413 406.192 132.341 401.009C133.906 392.216 135.769 384.54 144.959 379.572C145.267 379.414 145.618 379.361 145.958 379.421C146.299 379.48 146.611 379.649 146.847 379.902C147.083 380.155 147.23 380.478 147.266 380.821C147.302 381.165 147.225 381.512 147.046 381.808C143.486 387.571 141.598 394.104 141.383 401.407C140.96 415.715 146.102 445.722 161.379 452.23C162.339 452.644 162.861 452.329 162.944 451.286C163.656 442.989 163.49 434.742 162.447 426.545C160.485 410.796 159.59 402.549 169.228 391.545C169.464 391.283 169.779 391.107 170.126 391.044C170.472 390.981 170.83 391.034 171.142 391.196C171.455 391.358 171.705 391.619 171.853 391.939C172.001 392.258 172.039 392.618 171.961 392.961ZM267.396 280.304C267.282 278.196 266.703 276.135 265.692 274.237C264.682 272.339 263.26 270.641 261.507 269.242C259.754 267.842 257.705 266.767 255.476 266.079C253.248 265.391 250.884 265.103 248.519 265.231C243.743 265.49 239.254 267.428 236.04 270.621C232.826 273.813 231.15 277.998 231.38 282.254C231.494 284.362 232.073 286.423 233.084 288.321C234.094 290.219 235.516 291.917 237.269 293.316C239.022 294.716 241.071 295.791 243.3 296.479C245.528 297.167 247.892 297.455 250.257 297.327C255.033 297.068 259.522 295.13 262.736 291.937C265.95 288.745 267.626 284.56 267.396 280.304ZM116.666 287.365C121.113 281.279 128.018 285.229 133.607 286.495C134.618 286.727 135.032 286.338 134.85 285.328L132.763 272.958C132.63 272.13 132.15 271.583 131.322 271.318C93.5898 259.121 97.6139 329.444 139.594 317.496C143.519 316.387 144.769 314.209 143.345 310.963C138.277 299.313 132.241 286.645 117.263 288.383C116.269 288.499 116.07 288.16 116.666 287.365ZM383.625 288.334C383.695 288.464 383.726 288.611 383.715 288.758C383.704 288.905 383.651 289.046 383.562 289.164C383.473 289.282 383.352 289.371 383.213 289.422C383.075 289.473 382.924 289.483 382.78 289.451C366.112 285.353 359.455 300.307 354.164 312.603C353.85 313.348 353.974 314.002 354.537 314.565C365.169 325.246 384.097 315.708 389.661 305.324C397.908 289.923 394.356 278.282 379.005 270.399C376.819 269.289 373.084 269.612 367.802 271.368C367.421 271.496 367.078 271.718 366.804 272.013C366.531 272.308 366.336 272.667 366.237 273.057L363.281 285.129C363.23 285.346 363.237 285.573 363.3 285.786C363.363 286 363.48 286.194 363.64 286.349C363.8 286.504 363.998 286.615 364.213 286.671C364.429 286.727 364.655 286.727 364.87 286.669C370.931 284.955 379.601 281.18 383.625 288.334ZM205.495 322.911C220.226 322.489 233.217 316.875 243.849 306.79C244.627 306.045 244.528 305.457 243.551 305.026C235.867 301.615 229.963 296.216 225.839 288.83C225.713 288.605 225.543 288.406 225.339 288.247C225.136 288.087 224.902 287.969 224.653 287.9C224.404 287.83 224.143 287.811 223.886 287.843C223.63 287.875 223.382 287.957 223.157 288.085C210.058 295.438 204.055 306.939 205.147 322.588C205.164 322.804 205.28 322.911 205.495 322.911ZM254.828 305.275C254.739 305.318 254.662 305.381 254.603 305.46C254.543 305.538 254.503 305.63 254.486 305.727C254.469 305.824 254.476 305.924 254.505 306.018C254.534 306.112 254.585 306.198 254.654 306.268C264.971 316.569 277.358 322.125 291.815 322.936C293.123 323.019 293.736 322.398 293.653 321.073C292.635 304.703 289.207 296.754 274.626 288.483C273.897 288.069 273.317 288.218 272.887 288.93C268.515 296.249 262.495 301.698 254.828 305.275Z"
      fill="#2B2B2A"
    />
    <path
      d="M208.749 73.5151C208.749 76.8223 207.436 79.994 205.097 82.3326C202.759 84.6711 199.587 85.9849 196.28 85.9849C192.972 85.9849 189.801 84.6711 187.462 82.3326C185.124 79.994 183.81 76.8223 183.81 73.5151C183.81 70.2079 185.124 67.0361 187.462 64.6976C189.801 62.359 192.972 61.0453 196.28 61.0453C199.587 61.0453 202.759 62.359 205.097 64.6976C207.436 67.0361 208.749 70.2079 208.749 73.5151ZM201.372 73.5399C201.372 72.1894 200.835 70.8941 199.88 69.9391C198.925 68.9842 197.63 68.4477 196.28 68.4477C194.929 68.4477 193.634 68.9842 192.679 69.9391C191.724 70.8941 191.187 72.1894 191.187 73.5399C191.187 74.8905 191.724 76.1857 192.679 77.1407C193.634 78.0957 194.929 78.6322 196.28 78.6322C197.63 78.6322 198.925 78.0957 199.88 77.1407C200.835 76.1857 201.372 74.8905 201.372 73.5399Z"
      fill="#2B2B2A"
    />
    <path
      d="M285.653 80.967C285.653 86.2176 283.567 91.2533 279.855 94.966C276.142 98.6788 271.106 100.765 265.856 100.765C260.605 100.765 255.569 98.6788 251.856 94.966C248.144 91.2533 246.058 86.2176 246.058 80.967C246.058 75.7163 248.144 70.6807 251.856 66.9679C255.569 63.2551 260.605 61.1693 265.856 61.1693C271.106 61.1693 276.142 63.2551 279.855 66.9679C283.567 70.6807 285.653 75.7163 285.653 80.967ZM278.276 80.9918C278.276 77.6912 276.965 74.5258 274.631 72.1919C272.297 69.858 269.131 68.5468 265.831 68.5468C262.53 68.5468 259.365 69.858 257.031 72.1919C254.697 74.5258 253.386 77.6912 253.386 80.9918C253.386 84.2924 254.697 87.4578 257.031 89.7917C259.365 92.1256 262.53 93.4368 265.831 93.4368C269.131 93.4368 272.297 92.1256 274.631 89.7917C276.965 87.4578 278.276 84.2924 278.276 80.9918Z"
      fill="#2B2B2A"
    />
    <path
      d="M350.264 97.1629C350.264 100.786 348.825 104.261 346.262 106.824C343.7 109.386 340.225 110.825 336.602 110.825C332.978 110.825 329.503 109.386 326.941 106.824C324.379 104.261 322.94 100.786 322.94 97.1629C322.94 93.5395 324.379 90.0645 326.941 87.5023C329.503 84.9402 332.978 83.5008 336.602 83.5008C340.225 83.5008 343.7 84.9402 346.262 87.5023C348.825 90.0645 350.264 93.5395 350.264 97.1629ZM342.886 97.1132C342.886 95.453 342.227 93.8609 341.053 92.6869C339.879 91.513 338.287 90.8535 336.627 90.8535C334.966 90.8535 333.374 91.513 332.2 92.6869C331.026 93.8609 330.367 95.453 330.367 97.1132C330.367 97.9353 330.529 98.7493 330.843 99.5087C331.158 100.268 331.619 100.958 332.2 101.54C332.782 102.121 333.472 102.582 334.231 102.896C334.991 103.211 335.805 103.373 336.627 103.373C337.449 103.373 338.263 103.211 339.022 102.896C339.782 102.582 340.472 102.121 341.053 101.54C341.634 100.958 342.095 100.268 342.41 99.5087C342.724 98.7493 342.886 97.9353 342.886 97.1132Z"
      fill="#2B2B2A"
    />
    <path
      d="M161.53 113.259C161.53 116.553 160.222 119.713 157.892 122.042C155.563 124.371 152.404 125.68 149.11 125.68C145.816 125.68 142.657 124.371 140.328 122.042C137.998 119.713 136.69 116.553 136.69 113.259C136.69 109.965 137.998 106.806 140.328 104.477C142.657 102.148 145.816 100.839 149.11 100.839C152.404 100.839 155.563 102.148 157.892 104.477C160.222 106.806 161.53 109.965 161.53 113.259ZM154.177 113.309C154.177 112.64 154.046 111.978 153.79 111.36C153.534 110.743 153.159 110.181 152.686 109.708C152.213 109.235 151.652 108.86 151.034 108.604C150.416 108.349 149.754 108.217 149.085 108.217C148.416 108.217 147.754 108.349 147.136 108.604C146.519 108.86 145.957 109.235 145.484 109.708C145.011 110.181 144.636 110.743 144.38 111.36C144.125 111.978 143.993 112.64 143.993 113.309C143.993 114.66 144.529 115.955 145.484 116.91C146.439 117.865 147.735 118.401 149.085 118.401C150.436 118.401 151.731 117.865 152.686 116.91C153.641 115.955 154.177 114.66 154.177 113.309Z"
      fill="#2B2B2A"
    />
    <path
      d="M218.688 133.156C218.688 137.775 216.853 142.204 213.588 145.469C210.322 148.735 205.893 150.569 201.275 150.569C196.657 150.569 192.228 148.735 188.962 145.469C185.696 142.204 183.862 137.775 183.862 133.156C183.862 130.87 184.312 128.605 185.187 126.493C186.062 124.38 187.345 122.46 188.962 120.843C190.579 119.226 192.499 117.944 194.611 117.069C196.724 116.194 198.988 115.743 201.275 115.743C203.562 115.743 205.826 116.194 207.939 117.069C210.051 117.944 211.971 119.226 213.588 120.843C215.205 122.46 216.487 124.38 217.362 126.493C218.237 128.605 218.688 130.87 218.688 133.156ZM211.186 133.107C211.186 130.471 210.139 127.944 208.276 126.081C206.413 124.217 203.885 123.171 201.25 123.171C198.615 123.171 196.087 124.217 194.224 126.081C192.361 127.944 191.314 130.471 191.314 133.107C191.314 135.742 192.361 138.269 194.224 140.132C196.087 141.996 198.615 143.043 201.25 143.043C203.885 143.043 206.413 141.996 208.276 140.132C210.139 138.269 211.186 135.742 211.186 133.107Z"
      fill="#2B2B2A"
    />
    <path
      d="M290.597 130.623C290.597 134.556 289.035 138.328 286.254 141.109C283.472 143.89 279.7 145.453 275.767 145.453C271.834 145.453 268.062 143.89 265.281 141.109C262.5 138.328 260.938 134.556 260.938 130.623C260.938 126.69 262.5 122.918 265.281 120.137C268.062 117.356 271.834 115.793 275.767 115.793C279.7 115.793 283.472 117.356 286.254 120.137C289.035 122.918 290.597 126.69 290.597 130.623ZM283.244 130.673C283.244 128.703 282.462 126.814 281.069 125.421C279.676 124.028 277.787 123.245 275.817 123.245C273.847 123.245 271.958 124.028 270.565 125.421C269.172 126.814 268.39 128.703 268.39 130.673C268.39 132.642 269.172 134.532 270.565 135.924C271.958 137.317 273.847 138.1 275.817 138.1C277.787 138.1 279.676 137.317 281.069 135.924C282.462 134.532 283.244 132.642 283.244 130.673Z"
      fill="#2B2B2A"
    />
    <path
      d="M352.772 144.26C352.772 149.195 350.812 153.927 347.323 157.416C343.834 160.905 339.102 162.865 334.167 162.865C329.233 162.865 324.5 160.905 321.011 157.416C317.522 153.927 315.562 149.195 315.562 144.26C315.562 139.326 317.522 134.593 321.011 131.104C324.5 127.615 329.233 125.655 334.167 125.655C339.102 125.655 343.834 127.615 347.323 131.104C350.812 134.593 352.772 139.326 352.772 144.26ZM345.246 144.31C345.246 141.365 344.076 138.541 341.994 136.458C339.911 134.376 337.087 133.206 334.142 133.206C331.197 133.206 328.373 134.376 326.291 136.458C324.209 138.541 323.039 141.365 323.039 144.31C323.039 147.255 324.209 150.079 326.291 152.161C328.373 154.244 331.197 155.413 334.142 155.413C337.087 155.413 339.911 154.244 341.994 152.161C344.076 150.079 345.246 147.255 345.246 144.31Z"
      fill="#2B2B2A"
    />
    <path
      d="M146.599 160.481C146.599 162.431 146.215 164.363 145.468 166.165C144.722 167.968 143.627 169.605 142.248 170.984C140.869 172.364 139.231 173.458 137.429 174.205C135.627 174.951 133.695 175.335 131.744 175.335C129.794 175.335 127.862 174.951 126.06 174.205C124.257 173.458 122.62 172.364 121.241 170.984C119.861 169.605 118.767 167.968 118.021 166.165C117.274 164.363 116.89 162.431 116.89 160.481C116.89 156.541 118.455 152.763 121.241 149.977C124.026 147.191 127.805 145.626 131.744 145.626C135.684 145.626 139.462 147.191 142.248 149.977C145.034 152.763 146.599 156.541 146.599 160.481ZM139.122 160.506C139.122 158.542 138.342 156.66 136.954 155.271C135.565 153.883 133.683 153.103 131.719 153.103C129.756 153.103 127.873 153.883 126.485 155.271C125.097 156.66 124.317 158.542 124.317 160.506C124.317 162.469 125.097 164.352 126.485 165.74C127.873 167.128 129.756 167.908 131.719 167.908C133.683 167.908 135.565 167.128 136.954 165.74C138.342 164.352 139.122 162.469 139.122 160.506Z"
      fill="#2B2B2A"
    />
    <path
      d="M220.947 237.436C217.469 233.188 208.402 233.362 203.757 234.555C198.864 235.822 194.815 239.622 190.244 242.305C189.902 242.515 189.498 242.603 189.1 242.556C188.701 242.508 188.33 242.328 188.046 242.044C187.762 241.76 187.581 241.389 187.534 240.99C187.487 240.591 187.575 240.188 187.785 239.846C192.19 232.36 198.118 228.27 205.571 227.575C213.47 226.854 222.04 227.897 226.188 235.325C226.466 235.812 226.58 236.376 226.515 236.933C226.45 237.491 226.208 238.013 225.826 238.423C225.443 238.834 224.939 239.111 224.388 239.215C223.836 239.319 223.266 239.244 222.76 239.001C222.18 238.72 221.576 238.198 220.947 237.436Z"
      fill="#2B2B2A"
    />
    <path
      d="M308.856 242.827C298.622 235.598 287.667 229.463 276.265 238.703C275.827 239.054 275.279 239.238 274.718 239.22C274.157 239.203 273.62 238.987 273.205 238.61C272.789 238.233 272.521 237.721 272.449 237.164C272.377 236.607 272.506 236.043 272.812 235.573C282.028 221.688 305.502 225.737 311.265 240.964C311.388 241.283 311.404 241.633 311.312 241.962C311.22 242.292 311.024 242.583 310.754 242.792C310.483 243.001 310.152 243.117 309.811 243.124C309.469 243.13 309.134 243.026 308.856 242.827Z"
      fill="#2B2B2A"
    />
    <path
      d="M215.109 268.188C220.816 268.188 225.443 263.561 225.443 257.854C225.443 252.147 220.816 247.521 215.109 247.521C209.402 247.521 204.776 252.147 204.776 257.854C204.776 263.561 209.402 268.188 215.109 268.188Z"
      fill="#2B2B2A"
    />
    <path
      d="M283.742 268.313C289.49 268.313 294.15 263.653 294.15 257.905C294.15 252.157 289.49 247.497 283.742 247.497C277.994 247.497 273.334 252.157 273.334 257.905C273.334 263.653 277.994 268.313 283.742 268.313Z"
      fill="#2B2B2A"
    />
    <path
      d="M196.283 78.6318C199.095 78.6318 201.375 76.3519 201.375 73.5395C201.375 70.7271 199.095 68.4473 196.283 68.4473C193.47 68.4473 191.19 70.7271 191.19 73.5395C191.19 76.3519 193.47 78.6318 196.283 78.6318Z"
      fill="white"
    />
    <path
      d="M265.835 93.4367C272.709 93.4367 278.28 87.8649 278.28 80.9917C278.28 74.1186 272.709 68.5468 265.835 68.5468C258.962 68.5468 253.39 74.1186 253.39 80.9917C253.39 87.8649 258.962 93.4367 265.835 93.4367Z"
      fill="white"
    />
    <path
      d="M336.63 103.373C340.087 103.373 342.89 100.57 342.89 97.113C342.89 93.6558 340.087 90.8533 336.63 90.8533C333.173 90.8533 330.37 93.6558 330.37 97.113C330.37 100.57 333.173 103.373 336.63 103.373Z"
      fill="white"
    />
    <path
      d="M149.087 118.401C151.899 118.401 154.179 116.121 154.179 113.309C154.179 110.496 151.899 108.216 149.087 108.216C146.274 108.216 143.994 110.496 143.994 113.309C143.994 116.121 146.274 118.401 149.087 118.401Z"
      fill="white"
    />
    <path
      d="M201.25 143.042C206.738 143.042 211.187 138.594 211.187 133.106C211.187 127.619 206.738 123.17 201.25 123.17C195.763 123.17 191.314 127.619 191.314 133.106C191.314 138.594 195.763 143.042 201.25 143.042Z"
      fill="white"
    />
    <path
      d="M275.82 138.099C279.922 138.099 283.247 134.774 283.247 130.672C283.247 126.57 279.922 123.245 275.82 123.245C271.718 123.245 268.392 126.57 268.392 130.672C268.392 134.774 271.718 138.099 275.82 138.099Z"
      fill="white"
    />
    <path
      d="M334.146 155.413C340.278 155.413 345.249 150.442 345.249 144.31C345.249 138.178 340.278 133.206 334.146 133.206C328.013 133.206 323.042 138.178 323.042 144.31C323.042 150.442 328.013 155.413 334.146 155.413Z"
      fill="white"
    />
    <path
      d="M131.723 167.908C135.811 167.908 139.125 164.593 139.125 160.505C139.125 156.417 135.811 153.103 131.723 153.103C127.634 153.103 124.32 156.417 124.32 160.505C124.32 164.593 127.634 167.908 131.723 167.908Z"
      fill="white"
    />
    <path
      d="M171.964 392.961C172.042 392.617 172.004 392.258 171.856 391.938C171.708 391.619 171.458 391.358 171.145 391.196C170.833 391.034 170.475 390.98 170.129 391.043C169.782 391.107 169.467 391.283 169.231 391.545C159.593 402.549 160.488 410.796 162.45 426.545C163.493 434.742 163.659 442.989 162.947 451.286C162.864 452.329 162.342 452.644 161.382 452.23C146.105 445.721 140.963 415.714 141.386 401.406C141.601 394.103 143.489 387.57 147.049 381.807C147.228 381.511 147.305 381.165 147.269 380.821C147.233 380.477 147.086 380.155 146.85 379.902C146.614 379.649 146.302 379.48 145.961 379.42C145.621 379.361 145.27 379.414 144.962 379.572C135.772 384.54 133.909 392.215 132.344 401.009C131.416 406.192 130.886 406.151 130.754 400.885C130.423 389.177 133.081 378.255 138.728 368.12C139.324 367.044 139.017 366.63 137.809 366.878C134.082 367.64 131.044 369.503 128.692 372.467C128.542 372.677 128.322 372.827 128.072 372.891C127.821 372.954 127.557 372.927 127.325 372.814C127.092 372.701 126.908 372.509 126.804 372.273C126.699 372.037 126.682 371.771 126.755 371.523C131.805 351.022 141.427 332.922 155.619 317.223C156.346 316.416 156.77 315.38 156.82 314.289C156.87 313.199 156.542 312.12 155.892 311.236C147.877 300.489 143.017 288.226 141.311 274.448C139.423 259.022 138.827 246.328 154.799 240.466C155.76 240.102 156.066 240.408 155.718 241.385C150.767 254.981 150.692 268.42 155.495 281.701C161.705 298.841 155.793 318.167 178.646 322.514C183.192 323.383 188.408 322.464 193.351 321.893C194.362 321.777 194.825 322.224 194.742 323.234C194.146 329.842 198.121 331.878 204.132 331.978C221.719 332.326 233.717 325.42 247.95 314.987C248.695 314.441 249.432 314.441 250.161 314.987C264.395 325.47 278.802 333.816 296.24 331.854C300.595 331.357 303.071 328.699 303.667 323.88C303.783 322.986 304.288 322.588 305.182 322.688C328.499 325.022 339.727 314.441 338.866 290.942C338.833 290.097 339.006 289.302 339.387 288.557C346.922 274.001 348.131 258.84 343.014 243.074C342.749 242.28 343.022 242.006 343.834 242.255C351.932 244.739 356.295 249.79 356.925 257.407C358.448 275.955 353.596 293.608 342.368 310.367C340.083 313.795 342.443 318.067 345.225 321.073C358.589 335.546 367.374 351.982 371.58 370.381C371.645 370.629 371.624 370.892 371.52 371.127C371.417 371.363 371.237 371.556 371.011 371.676C370.784 371.797 370.523 371.838 370.271 371.792C370.018 371.746 369.788 371.617 369.618 371.424C367.233 368.874 364.401 367.143 361.123 366.233C359.433 365.752 359.019 366.282 359.881 367.822C365.594 378.04 367.945 389.052 366.935 400.86C366.935 400.939 366.904 401.015 366.848 401.071C366.792 401.127 366.716 401.158 366.637 401.158C366.558 401.158 366.482 401.127 366.426 401.071C366.37 401.015 366.339 400.939 366.339 400.86C365.875 392.331 362.365 385.517 355.807 380.416C350.491 376.293 349.241 377.286 352.056 383.397C360.137 400.901 358.995 419.374 348.628 438.816C346.045 443.668 342.401 447.742 337.698 451.037C337.51 451.174 337.289 451.259 337.057 451.283C336.826 451.307 336.592 451.269 336.38 451.173C336.168 451.077 335.985 450.926 335.85 450.737C335.715 450.547 335.633 450.325 335.612 450.093C333.401 427.191 344.976 411.963 329.675 390.427C329.467 390.117 329.159 389.888 328.803 389.776C328.447 389.665 328.063 389.678 327.716 389.814C327.368 389.95 327.078 390.201 326.892 390.525C326.706 390.848 326.636 391.226 326.694 391.594C327.414 397.382 328.979 403.518 329.203 408.858C329.898 426.098 324.574 441.184 313.231 454.117C312.535 454.912 311.914 454.854 311.367 453.944C308.801 449.704 306.507 445.423 304.487 441.101C300.959 433.574 303.369 423.539 303.096 415.168C302.748 404.536 298.045 396.19 288.986 390.129C288.629 389.887 288.199 389.773 287.768 389.806C287.338 389.839 286.931 390.016 286.614 390.31C286.297 390.604 286.089 390.997 286.023 391.424C285.958 391.851 286.039 392.287 286.254 392.663C293.491 405.497 295.213 419.565 291.421 434.866C288.788 445.548 299.121 451.633 296.563 460.948C296.016 462.952 294.708 464.037 292.638 464.203C269.321 466.09 253.183 456.535 244.224 435.537C244.059 435.139 243.761 434.974 243.33 435.04L242.56 435.139C241.815 435.239 241.384 435.661 241.268 436.406C238.039 458.191 255.03 469.419 273.933 472.847C274.106 472.885 274.261 472.979 274.374 473.115C274.487 473.251 274.551 473.421 274.557 473.598C274.563 473.774 274.509 473.948 274.405 474.091C274.301 474.234 274.153 474.338 273.983 474.387C240.896 483.056 210.963 459.533 204.455 427.538C201.706 414.091 204.182 402.632 211.882 393.159C212.234 392.725 212.413 392.176 212.384 391.618C212.355 391.06 212.12 390.532 211.725 390.137C211.33 389.742 210.802 389.507 210.244 389.478C209.686 389.449 209.137 389.628 208.703 389.98C200.158 396.968 195.512 405.447 194.767 415.416C194.171 423.531 195.645 432.631 199.189 442.716C201.251 448.553 201.102 453.67 200.977 459.483C200.974 459.745 200.909 460.003 200.788 460.236C200.667 460.469 200.494 460.67 200.282 460.824C200.07 460.979 199.825 461.081 199.566 461.124C199.307 461.168 199.042 461.15 198.791 461.073C172.212 452.577 166.077 416.683 171.964 392.961Z"
      fill="white"
    />
    <path
      d="M243.852 306.789C233.22 316.874 220.229 322.488 205.498 322.911C205.283 322.911 205.167 322.803 205.151 322.588C204.058 306.938 210.061 295.437 223.16 288.084C223.385 287.956 223.633 287.874 223.889 287.842C224.146 287.81 224.407 287.83 224.656 287.899C224.906 287.968 225.139 288.086 225.342 288.246C225.546 288.405 225.716 288.604 225.843 288.83C229.966 296.215 235.87 301.614 243.554 305.026C244.531 305.456 244.63 306.044 243.852 306.789Z"
      fill="white"
    />
    <path
      d="M254.831 305.274C262.499 301.697 268.518 296.249 272.89 288.929C273.321 288.217 273.9 288.068 274.629 288.482C289.21 296.754 292.638 304.703 293.657 321.073C293.739 322.397 293.127 323.018 291.818 322.936C277.361 322.124 264.974 316.568 254.657 306.268C254.588 306.197 254.537 306.111 254.508 306.017C254.479 305.923 254.473 305.823 254.49 305.726C254.507 305.629 254.546 305.538 254.606 305.459C254.665 305.38 254.743 305.317 254.831 305.274Z"
      fill="white"
    />
    <path
      d="M166.87 281.875C166.655 281.842 166.44 281.8 166.225 281.751C165.695 281.602 165.306 281.279 165.057 280.782C159.36 269.107 158.781 256.513 163.318 243C166.15 234.604 168.733 231.871 177.08 228.046C226.537 205.565 277.807 208.646 326.693 231.201C337.2 236.044 338.268 255.966 337.324 267.095C336.679 274.746 334.228 280.26 329.972 283.638C329.425 284.069 329.326 284.591 329.674 285.203C330.866 287.265 331.611 288.159 331.81 290.668C332.82 304.43 326.61 313.008 313.18 316.403C310.762 317.015 307.582 316.072 303.641 313.571C302.965 313.136 302.458 312.497 302.2 311.758C300.387 306.591 299.393 300.53 297.481 296.282C293.059 286.445 285.185 284.384 277.435 279.44C276.753 279.003 276.21 278.373 275.87 277.627C270.057 264.81 261.636 255.122 246.235 256.861C242.476 257.291 238.816 258.724 235.256 261.158C227.804 266.201 226.04 273.603 221.345 279.912C220.86 280.56 220.186 281.052 219.408 281.328C205.472 286.346 200.007 293.624 196.654 307.858C195.263 313.745 191.587 316.8 185.724 316.154C168.411 314.192 164.064 298.195 167.963 283.465C168.212 282.521 167.848 281.991 166.87 281.875ZM220.948 237.436C221.577 238.197 222.181 238.719 222.761 239C223.267 239.243 223.837 239.318 224.389 239.214C224.94 239.11 225.444 238.833 225.827 238.423C226.209 238.012 226.451 237.49 226.516 236.933C226.581 236.375 226.467 235.812 226.189 235.324C222.041 227.897 213.471 226.854 205.572 227.574C198.12 228.269 192.191 232.36 187.786 239.845C187.576 240.188 187.488 240.591 187.535 240.989C187.583 241.388 187.763 241.76 188.047 242.044C188.331 242.328 188.702 242.508 189.101 242.555C189.5 242.602 189.903 242.514 190.245 242.304C194.816 239.621 198.865 235.821 203.758 234.554C208.403 233.362 217.47 233.188 220.948 237.436ZM276.267 238.702C287.669 229.462 298.623 235.597 308.857 242.826C309.136 243.025 309.47 243.129 309.812 243.123C310.154 243.117 310.485 243 310.756 242.791C311.026 242.582 311.222 242.291 311.314 241.962C311.406 241.632 311.39 241.282 311.267 240.963C305.504 225.736 282.03 221.687 272.814 235.573C272.508 236.043 272.379 236.607 272.451 237.163C272.523 237.72 272.791 238.232 273.206 238.609C273.622 238.986 274.159 239.203 274.72 239.22C275.281 239.237 275.829 239.053 276.267 238.702ZM225.444 257.854C225.444 255.114 224.355 252.485 222.417 250.547C220.479 248.609 217.851 247.521 215.11 247.521C212.37 247.521 209.741 248.609 207.803 250.547C205.865 252.485 204.777 255.114 204.777 257.854C204.777 259.211 205.044 260.555 205.563 261.809C206.083 263.062 206.844 264.202 207.803 265.161C208.763 266.121 209.902 266.882 211.156 267.401C212.41 267.92 213.753 268.188 215.11 268.188C217.851 268.188 220.479 267.099 222.417 265.161C224.355 263.223 225.444 260.595 225.444 257.854ZM294.152 257.904C294.152 255.144 293.055 252.496 291.104 250.544C289.152 248.592 286.504 247.496 283.744 247.496C280.984 247.496 278.336 248.592 276.384 250.544C274.432 252.496 273.336 255.144 273.336 257.904C273.336 260.664 274.432 263.312 276.384 265.264C278.336 267.215 280.984 268.312 283.744 268.312C286.504 268.312 289.152 267.215 291.104 265.264C293.055 263.312 294.152 260.664 294.152 257.904Z"
      fill="#FADDB3"
    />
    <path
      d="M250.258 297.327C260.204 296.788 267.877 289.167 267.397 280.303C266.917 271.44 258.466 264.692 248.52 265.231C238.575 265.769 230.902 273.391 231.382 282.254C231.862 291.117 240.313 297.865 250.258 297.327Z"
      fill="#FADDB3"
    />
    <path
      d="M117.265 288.383C132.244 286.644 138.28 299.313 143.347 310.963C144.771 314.209 143.521 316.387 139.596 317.496C97.6162 329.444 93.5921 259.121 131.324 271.318C132.152 271.583 132.633 272.129 132.765 272.957L134.852 285.328C135.034 286.338 134.62 286.727 133.61 286.495C128.021 285.229 121.115 281.279 116.669 287.365C116.073 288.16 116.271 288.499 117.265 288.383Z"
      fill="#FADDB3"
    />
    <path
      d="M383.626 288.334C379.602 281.18 370.933 284.955 364.872 286.669C364.657 286.726 364.43 286.727 364.215 286.671C363.999 286.615 363.802 286.504 363.642 286.349C363.482 286.194 363.365 286 363.302 285.786C363.239 285.572 363.232 285.346 363.282 285.129L366.238 273.057C366.337 272.667 366.532 272.308 366.806 272.013C367.079 271.718 367.422 271.496 367.803 271.368C373.086 269.612 376.82 269.289 379.006 270.399C394.357 278.282 397.91 289.923 389.663 305.324C384.098 315.708 365.17 325.246 354.538 314.565C353.975 314.002 353.851 313.348 354.166 312.602C359.457 300.307 366.114 285.353 382.782 289.451C382.926 289.483 383.076 289.473 383.215 289.422C383.353 289.371 383.474 289.282 383.563 289.164C383.652 289.046 383.706 288.905 383.717 288.758C383.728 288.611 383.697 288.463 383.626 288.334Z"
      fill="#FADDB3"
    />
  </g>
  <defs>
    <clipPath id="clip0_47_2">
      <rect width="512" height="512" fill="white" />
    </clipPath>
  </defs>
</svg>
