<svg xmlns="http://www.w3.org/2000/svg" fill="none" viewBox="0 0 256 256"><path fill="#478DA4" d="M127.168 57.712 107.706 39.67a24.74 24.74 0 0 0-7.966-4.94A26.191 26.191 0 0 0 90.34 33H38.704a17.831 17.831 0 0 0-6.392 1.177 16.841 16.841 0 0 0-5.419 3.357 15.47 15.47 0 0 0-3.621 5.027A14.524 14.524 0 0 0 22 48.49v53.759h220V77.736c0-4.109-1.759-8.049-4.89-10.954-3.131-2.904-7.378-4.536-11.806-4.536h-86.335c-4.425 0-8.669-1.635-11.801-4.535Z"/><path fill="#5FB8D7" d="M225.304 223H38.696a15.607 15.607 0 0 1-6.374-1.342 16.595 16.595 0 0 1-5.412-3.866 18.042 18.042 0 0 1-3.625-5.801A19.108 19.108 0 0 1 22 205.137V80.167c0-9.87 7.472-17.863 16.696-17.863h186.608c9.224 0 16.696 7.992 16.696 17.862v124.971a19.093 19.093 0 0 1-1.286 6.854 18.042 18.042 0 0 1-3.624 5.801 16.604 16.604 0 0 1-5.412 3.866 15.604 15.604 0 0 1-6.374 1.342Z"/></svg>