<svg
  width="514"
  height="212"
  viewBox="0 0 1028 425"
  fill="none"
  xmlns="http://www.w3.org/2000/svg"
>
  <g clip-path="url(#clip0_82_112)">
    <path
      d="M88.2 112.64C90 112.64 90.54 113.54 90.54 115.16C90.54 119.3 89.1 125.24 89.1 141.44C89.1 142.88 88.74 144.32 87.48 144.32C86.4 144.32 85.86 143.42 85.5 141.44C84.96 138.92 84.6 135.32 83.88 129.74C82.62 120.92 77.94 120.56 73.44 120.56C64.26 120.56 48.06 122.18 44.64 123.26C40.86 124.16 40.5 126.5 40.5 129.38C40.5 136.94 41.94 167.72 42.66 183.92C45.18 184.28 48.78 184.64 52.02 184.64C59.76 184.64 62.28 182.48 63.72 179.24C64.44 177.44 64.62 176 64.98 173.84C65.34 171.68 66.06 171.14 66.78 171.14C67.5 171.14 68.04 171.86 68.04 173.3C68.04 178.52 66.6 188.96 66.6 195.98C66.6 202.28 66.96 208.94 66.96 211.1C66.96 212.72 66.42 214.52 64.8 214.52C63.54 214.52 62.64 213.26 62.46 210.92C62.28 208.58 62.28 201.92 61.38 198.68C60.66 196.7 59.4 194.54 56.16 193.46C53.46 192.56 47.52 192.2 43.02 191.84C44.1 209.3 46.98 255.74 47.7 259.52C48.24 264.38 50.04 266.36 54.36 266.9C56.7 267.26 59.58 267.44 62.82 267.44C80.64 267.44 89.64 264.2 94.32 252.14C96.84 245.84 97.56 239.18 99 239.18C99.9 239.18 100.26 241.7 100.26 244.58C100.26 253.04 98.28 266.18 96.66 270.86C95.22 274.64 92.7 275.9 88.38 275.9C81 275.9 61.56 272.84 41.22 271.76C25.56 270.86 12.42 270.86 7.56 270.86C4.32 270.86 3.6 269.96 3.6 268.52C3.6 266.72 5.04 266.18 7.02 266.18C8.28 266.18 11.52 266.54 16.02 266.54C17.46 266.54 19.08 266.54 20.88 266.36C29.34 266 29.34 260.42 29.34 257.36C28.98 234.68 25.02 203 23.94 190.94C22.86 178.88 19.26 151.16 17.1 139.82C15.3 130.82 12.78 126.68 9.36 124.16C6.66 122 1.8 120.38 1.8 118.4C1.8 117.5 2.52 116.96 4.14 116.96C7.56 116.96 15.48 118.94 31.32 118.94C49.32 118.94 84.78 112.64 88.2 112.64ZM135.165 160.52C136.065 160.52 136.965 160.88 136.965 162.14C136.965 163.04 136.425 163.58 135.705 164.3C134.265 165.38 131.385 166.82 126.345 170.6C120.405 175.1 120.045 181.22 120.045 190.04C120.405 207.68 124.725 224.24 128.685 232.16C132.825 240.62 138.765 246.02 147.405 246.02C165.585 246.02 168.825 217.22 168.825 204.08C168.825 192.56 167.025 186.8 163.245 184.46C160.365 182.48 154.605 181.58 152.625 181.04C150.105 180.5 149.205 179.6 149.205 177.98C149.205 176.36 150.465 175.28 152.265 175.28C155.685 175.28 161.445 176.18 169.185 176.18C177.645 176.18 190.605 173.84 194.745 172.4C196.365 171.68 197.445 171.68 197.985 171.68C199.425 171.68 200.505 172.4 200.505 173.66C200.505 174.92 199.965 175.64 198.885 176.36C196.185 178.16 193.305 179.42 192.045 182.3C189.885 187.34 190.065 195.62 188.625 214.88C187.005 236.3 183.225 264.02 173.865 292.82C164.325 321.8 148.125 339.62 127.605 339.62C113.205 339.62 103.305 330.26 103.305 316.58C103.305 301.82 112.485 291.38 124.725 291.38C134.805 291.38 140.025 298.4 140.025 305.78C140.025 312.08 135.885 317.12 129.045 317.12C117.165 317.12 119.145 304.16 113.925 304.16C110.145 304.16 107.625 310.28 107.625 316.22C107.625 327.56 116.085 335.12 127.785 335.12C157.305 335.12 164.685 290.48 165.765 285.26C169.005 264.56 169.725 249.26 169.725 240.44C169.725 237.56 169.545 235.4 169.545 233.96L169.365 231.62C169.005 232.88 168.465 234.14 167.925 235.4C166.845 237.92 165.585 240.8 163.965 243.68C159.825 250.88 150.825 258.26 138.765 258.26C107.265 258.26 103.125 215.78 97.9045 189.5C97.1845 185.9 95.7445 185 93.7645 185C91.6045 185 88.9045 185.72 87.6445 185.72C86.5645 185.72 85.8445 185.18 85.8445 184.1C85.8445 183.2 86.5645 182.48 87.6445 182.12C98.2645 179.24 103.665 177.08 109.965 174.02C124.545 167 131.025 160.52 135.165 160.52ZM273.797 210.38C275.417 213.08 277.037 218.12 277.037 222.8C277.037 239.9 265.337 249.98 246.797 249.98C219.977 249.98 204.677 230.9 204.677 204.26C204.677 168.08 229.877 151.88 248.777 151.88C261.197 151.88 277.217 157.82 277.217 177.44C277.217 203.18 252.557 208.94 240.497 208.94C234.737 208.94 228.797 208.04 225.737 206.96C226.637 225.32 235.097 242.06 252.917 242.06C265.337 242.06 270.917 232.88 270.917 222.62C270.917 219.56 270.557 216.14 269.477 213.26C268.757 211.46 268.217 209.84 268.217 208.94C268.217 207.86 268.757 207.14 269.837 207.14C270.917 207.14 272.537 208.22 273.797 210.38ZM225.377 201.2C228.437 202.1 231.857 202.82 237.797 202.82C251.477 202.82 261.197 192.2 261.197 176.18C261.197 161.78 254.357 157.28 247.337 157.28C238.337 157.28 225.377 166.82 225.377 201.2ZM339.244 179.6C331.864 179.6 326.104 174.92 326.104 165.02C326.104 158 324.844 151.16 316.924 151.16C307.384 151.16 297.124 163.22 297.124 186.8C297.124 215.24 309.004 232.16 328.804 232.16C341.764 232.16 349.144 222.62 349.144 211.28C349.144 199.4 342.124 195.26 342.124 192.38C342.124 191.48 342.664 191.12 343.564 191.12C347.164 191.12 355.804 198.86 355.804 211.82C355.804 232.88 341.224 244.58 321.424 244.58C298.564 244.58 282.544 226.76 282.544 197.42C282.544 183.38 287.944 169.34 294.784 161.24C304.864 148.82 315.664 145.04 327.904 145.04C341.404 145.04 351.844 152.78 351.844 164.48C351.844 175.64 345.004 179.6 339.244 179.6ZM362.55 203C362.55 176.72 379.65 159.98 405.57 159.98C428.61 159.98 445.71 176 445.71 201.56C445.71 231.8 423.75 244.22 405.21 244.22C383.07 244.22 362.55 229.1 362.55 203ZM404.31 163.4C390.81 163.4 385.05 177.8 385.05 194.54C385.05 215.24 392.25 238.46 408.81 238.46C423.21 238.46 427.71 224.24 427.71 211.1C427.71 178.7 417.63 163.4 404.31 163.4ZM473.385 143.78C475.185 143.78 476.985 156.74 478.965 169.7L482.205 191.84C484.005 180.32 493.365 155.66 514.785 155.66C532.425 155.66 540.345 169.7 540.345 189.14C540.345 206.6 535.665 225.14 535.665 239C535.665 243.14 536.385 246.02 537.825 248.54C541.065 253.4 548.265 255.56 548.265 259.16C548.265 260.24 547.725 261.14 546.285 261.14C542.145 261.14 536.925 253.94 522.165 249.26C516.585 247.46 511.545 246.38 504.165 246.02C502.185 245.84 501.105 245.3 501.105 244.22C501.105 243.14 501.825 242.6 503.085 242.6C504.705 242.6 507.945 242.6 511.005 242.42C515.685 242.06 518.745 240.08 520.185 233.24C521.265 227.84 522.165 215.96 522.165 207.14C522.165 195.26 522.165 169.52 504.885 169.52C495.165 169.52 488.325 179.96 486.165 194.18C484.725 201.38 484.545 209.12 484.545 216.86C484.545 229.64 486.345 241.16 489.405 245.48C491.565 248.54 494.445 249.8 496.245 250.52C498.585 251.24 499.485 251.6 499.485 252.5C499.485 253.22 498.405 253.94 495.885 253.94C491.025 253.94 484.005 251.96 477.345 251.96C470.865 251.96 463.125 253.04 460.065 253.04C457.905 253.04 456.645 252.32 456.645 250.88C456.645 249.8 457.365 249.08 459.345 248.72C462.585 248.54 464.205 248.54 468.165 248C471.945 247.46 473.025 245.3 473.025 241.52C473.025 228.56 468.345 203.72 462.405 177.62C460.965 170.96 459.525 167.72 456.105 167.72C452.505 167.72 448.365 170.78 445.665 170.78C444.585 170.78 444.045 170.42 444.045 169.34C444.045 167.9 445.485 167.36 446.925 166.82C450.165 165.56 453.945 163.76 458.445 160.34C467.085 153.5 471.945 143.78 473.385 143.78ZM605.744 144.32C615.464 144.32 618.524 146.66 621.944 146.66C623.924 146.66 624.824 144.32 625.904 141.26C626.624 139.28 627.524 138.2 628.604 138.2C630.404 138.2 630.764 139.64 630.764 140.72C630.764 143.42 629.324 146.12 627.704 156.74C626.264 165.38 626.444 168.8 625.724 172.94C625.364 175.1 624.464 176.36 623.384 176.36C621.944 176.36 621.584 174.56 621.584 172.76V165.92C621.584 152.06 614.924 147.74 606.104 147.74C598.364 147.74 591.344 153.14 591.344 162.32C591.344 186.44 640.124 202.28 640.124 238.46C640.124 262.58 624.104 275.9 605.204 275.9C592.064 275.9 582.344 269.78 577.124 264.02C572.264 258.62 569.384 255.74 565.424 255.74C561.104 255.74 555.164 262.94 552.284 262.94C551.024 262.94 550.484 262.04 550.484 261.32C550.484 260.6 550.844 259.88 551.744 258.98C553.184 257.54 560.384 251.78 568.844 240.08C576.764 229.1 578.564 220.1 581.984 220.1C583.784 220.1 584.144 221.36 584.144 222.62C584.144 226.22 578.024 233.78 578.024 247.1C578.024 254.84 583.784 269.42 599.804 269.42C612.404 269.42 620.504 259.52 620.504 245.12C620.504 217.4 576.404 195.62 576.404 170.96C576.404 152.6 591.344 144.32 605.744 144.32Z"
      fill="#2B2B2A"
    />
    <path
      d="M85.5 141.44L87.9597 140.993L87.9527 140.954L87.9445 140.916L85.5 141.44ZM83.88 129.74L86.3594 129.42L86.3573 129.403L86.3549 129.386L83.88 129.74ZM44.64 123.26L45.2191 125.692L45.3068 125.671L45.3928 125.644L44.64 123.26ZM42.66 183.92L40.1625 184.031L40.2545 186.102L42.3064 186.395L42.66 183.92ZM63.72 179.24L66.0045 180.255L66.0237 180.212L66.0412 180.168L63.72 179.24ZM64.98 173.84L67.446 174.251L67.446 174.251L64.98 173.84ZM62.46 210.92L59.9674 211.112L59.9674 211.112L62.46 210.92ZM61.38 198.68L63.7888 198.011L63.7627 197.917L63.7295 197.826L61.38 198.68ZM56.16 193.46L56.9506 191.088L56.9506 191.088L56.16 193.46ZM43.02 191.84L43.2194 189.348L40.3469 189.118L40.5248 191.994L43.02 191.84ZM47.7 259.52L50.1847 259.244L50.174 259.148L50.1558 259.052L47.7 259.52ZM54.36 266.9L54.7401 264.429L54.7052 264.424L54.6701 264.419L54.36 266.9ZM94.32 252.14L91.9988 251.212L91.994 251.224L91.9893 251.236L94.32 252.14ZM96.66 270.86L98.9962 271.75L99.0099 271.714L99.0225 271.678L96.66 270.86ZM41.22 271.76L41.0766 274.256L41.0874 274.256L41.22 271.76ZM20.88 266.36L20.7737 263.862L20.7023 263.865L20.6312 263.872L20.88 266.36ZM29.34 257.36H31.84V257.34L31.8397 257.32L29.34 257.36ZM23.94 190.94L21.45 191.163L21.45 191.163L23.94 190.94ZM17.1 139.82L19.5558 139.352L19.5537 139.341L19.5515 139.33L17.1 139.82ZM9.36 124.16L7.79826 126.112L7.83703 126.143L7.877 126.173L9.36 124.16ZM88.2 115.14C88.3225 115.14 88.4033 115.148 88.4501 115.155C88.4965 115.162 88.5012 115.166 88.4759 115.157C88.4489 115.148 88.3944 115.124 88.3265 115.078C88.2573 115.031 88.1905 114.971 88.1327 114.903C88.0146 114.763 87.9944 114.659 88.0034 114.694C88.0082 114.713 88.0179 114.759 88.0261 114.84C88.0343 114.92 88.04 115.025 88.04 115.16H93.04C93.04 114.176 92.8984 112.8 91.9573 111.682C90.9321 110.465 89.4798 110.14 88.2 110.14V115.14ZM88.04 115.16C88.04 117.083 87.7078 119.327 87.3299 123.555C86.9639 127.65 86.6 133.259 86.6 141.44H91.6C91.6 133.421 91.9561 127.96 92.3101 124C92.6522 120.173 93.04 117.377 93.04 115.16H88.04ZM86.6 141.44C86.6 141.702 86.5833 141.927 86.5548 142.107C86.5409 142.195 86.5256 142.262 86.512 142.311C86.4982 142.36 86.4888 142.381 86.4898 142.378C86.4909 142.376 86.5075 142.34 86.5494 142.284C86.5924 142.227 86.6632 142.148 86.769 142.069C86.8772 141.988 87.0041 141.921 87.142 141.877C87.2786 141.832 87.3965 141.82 87.48 141.82V146.82C88.3062 146.82 89.0957 146.572 89.7604 146.076C90.3943 145.602 90.7891 144.999 91.0352 144.462C91.5038 143.439 91.6 142.296 91.6 141.44H86.6ZM87.48 141.82C87.5706 141.82 87.7629 141.843 87.9772 141.962C88.1848 142.077 88.2826 142.209 88.3001 142.236C88.3087 142.249 88.2602 142.178 88.1866 141.951C88.1146 141.73 88.0374 141.42 87.9597 140.993L83.0403 141.887C83.2323 142.943 83.5269 144.09 84.1399 145.009C84.4724 145.508 84.9302 145.99 85.554 146.335C86.1846 146.685 86.8494 146.82 87.48 146.82V141.82ZM87.9445 140.916C87.4334 138.531 87.0968 135.134 86.3594 129.42L81.4006 130.06C82.1032 135.505 82.4866 139.309 83.0555 141.964L87.9445 140.916ZM86.3549 129.386C85.6668 124.57 83.948 121.456 81.209 119.728C78.6322 118.102 75.6335 118.06 73.44 118.06V123.06C75.7465 123.06 77.3378 123.198 78.541 123.957C79.582 124.614 80.8332 126.09 81.4051 130.094L86.3549 129.386ZM73.44 118.06C68.7377 118.06 62.3047 118.473 56.6411 119.016C53.8025 119.289 51.1312 119.597 48.9411 119.907C46.8171 120.208 44.967 120.535 43.8872 120.876L45.3928 125.644C46.023 125.445 47.4804 125.164 49.6427 124.858C51.7388 124.561 54.3325 124.261 57.1189 123.994C62.7053 123.457 68.9623 123.06 73.44 123.06V118.06ZM44.061 120.828C41.6717 121.397 39.9302 122.552 38.9453 124.403C38.0617 126.065 38 127.943 38 129.38H43C43 127.937 43.1183 127.205 43.3597 126.752C43.4998 126.488 43.8283 126.023 45.2191 125.692L44.061 120.828ZM38 129.38C38 137.014 39.4451 167.89 40.1625 184.031L45.1575 183.809C44.4349 167.55 43 136.866 43 129.38H38ZM42.3064 186.395C44.8998 186.765 48.6245 187.14 52.02 187.14V182.14C48.9356 182.14 45.4602 181.795 43.0136 181.445L42.3064 186.395ZM52.02 187.14C56.0744 187.14 59.1105 186.583 61.4061 185.362C63.8087 184.085 65.1271 182.23 66.0045 180.255L61.4355 178.225C60.8729 179.49 60.2113 180.335 59.0589 180.948C57.7995 181.617 55.7056 182.14 52.02 182.14V187.14ZM66.0412 180.168C66.8846 178.06 67.1033 176.307 67.446 174.251L62.514 173.429C62.1367 175.693 61.9954 176.82 61.3988 178.312L66.0412 180.168ZM67.446 174.251C67.5176 173.821 67.5965 173.539 67.6603 173.364C67.7247 173.188 67.7584 173.163 67.7184 173.215C67.6696 173.278 67.547 173.406 67.3345 173.509C67.1223 173.611 66.9211 173.64 66.78 173.64V168.64C65.6642 168.64 64.5698 169.119 63.7716 170.145C63.0852 171.028 62.7222 172.18 62.514 173.429L67.446 174.251ZM66.78 173.64C66.5282 173.64 66.2542 173.573 66.0061 173.426C65.7657 173.283 65.6272 173.112 65.56 173.005C65.4468 172.824 65.54 172.844 65.54 173.3H70.54C70.54 172.316 70.3632 171.256 69.8 170.355C69.178 169.36 68.1091 168.64 66.78 168.64V173.64ZM65.54 173.3C65.54 175.772 65.1951 179.543 64.8294 183.748C64.4713 187.866 64.1 192.342 64.1 195.98H69.1C69.1 192.598 69.4487 188.344 69.8106 184.182C70.1649 180.107 70.54 176.048 70.54 173.3H65.54ZM64.1 195.98C64.1 199.172 64.1911 202.446 64.2814 205.175C64.3731 207.951 64.46 210.075 64.46 211.1H69.46C69.46 209.965 69.3669 207.679 69.2786 205.01C69.1889 202.294 69.1 199.088 69.1 195.98H64.1ZM64.46 211.1C64.46 211.372 64.4369 211.628 64.3949 211.848C64.3518 212.073 64.2985 212.208 64.267 212.269C64.2365 212.328 64.2603 212.254 64.3915 212.162C64.547 212.054 64.7118 212.02 64.8 212.02V217.02C66.7739 217.02 68.0578 215.823 68.708 214.566C69.2992 213.423 69.46 212.123 69.46 211.1H64.46ZM64.8 212.02C64.9192 212.02 65.0639 212.055 65.1907 212.129C65.3068 212.197 65.3341 212.254 65.3051 212.211C65.2253 212.091 65.0245 211.662 64.9526 210.728L59.9674 211.112C60.0755 212.518 60.4147 213.889 61.1449 214.984C61.931 216.163 63.1956 217.02 64.8 217.02V212.02ZM64.9526 210.728C64.861 209.537 64.8327 207.563 64.6859 204.995C64.5522 202.654 64.3203 199.924 63.7888 198.011L58.9712 199.349C59.3397 200.676 59.5578 202.896 59.6941 205.28C59.8173 207.437 59.879 209.963 59.9674 211.112L64.9526 210.728ZM63.7295 197.826C62.8557 195.423 61.1672 192.494 56.9506 191.088L55.3694 195.832C57.6328 196.586 58.4643 197.977 59.0305 199.534L63.7295 197.826ZM56.9506 191.088C55.3064 190.54 52.8882 190.206 50.523 189.961C48.099 189.709 45.4296 189.525 43.2194 189.348L42.8206 194.332C45.1104 194.515 47.661 194.691 50.007 194.934C52.4118 195.184 54.3136 195.48 55.3694 195.832L56.9506 191.088ZM40.5248 191.994C41.0647 200.724 42.0551 216.704 43.0005 230.975C43.4731 238.11 43.935 244.824 44.3239 249.993C44.7047 255.054 45.03 258.864 45.2442 259.988L50.1558 259.052C50.01 258.286 49.7053 254.874 49.3098 249.618C48.9226 244.471 48.4619 237.775 47.9895 230.645C47.0449 216.386 46.0553 200.416 45.5152 191.686L40.5248 191.994ZM45.2153 259.796C45.508 262.43 46.1825 264.763 47.7578 266.506C49.3757 268.296 51.5818 269.072 54.0499 269.381L54.6701 264.419C52.8182 264.188 51.9643 263.704 51.4672 263.154C50.9275 262.557 50.432 261.47 50.1847 259.244L45.2153 259.796ZM53.9799 269.371C56.4847 269.756 59.4996 269.94 62.82 269.94V264.94C59.6604 264.94 56.9153 264.764 54.7401 264.429L53.9799 269.371ZM62.82 269.94C71.8039 269.94 78.9631 269.138 84.5381 266.586C90.282 263.956 94.1135 259.583 96.6507 253.044L91.9893 251.236C89.8465 256.757 86.838 260.034 82.4569 262.039C77.9069 264.122 71.6561 264.94 62.82 264.94V269.94ZM96.6412 253.068C97.9671 249.754 98.8213 246.337 99.4754 243.961C99.8194 242.711 100.082 241.844 100.314 241.303C100.434 241.023 100.476 240.999 100.407 241.081C100.347 241.153 99.8807 241.68 99 241.68V236.68C97.7594 236.68 96.9551 237.415 96.5703 237.876C96.1767 238.347 95.907 238.892 95.7173 239.335C95.3304 240.239 94.9856 241.432 94.6546 242.634C93.9587 245.163 93.1929 248.226 91.9988 251.212L96.6412 253.068ZM99 241.68C97.8716 241.68 97.4047 240.857 97.4046 240.857C97.372 240.8 97.4369 240.904 97.5182 241.301C97.6716 242.051 97.76 243.208 97.76 244.58H102.76C102.76 243.072 102.668 241.529 102.417 240.299C102.296 239.706 102.102 239 101.749 238.381C101.428 237.818 100.578 236.68 99 236.68V241.68ZM97.76 244.58C97.76 248.651 97.2805 253.925 96.5922 258.787C95.8976 263.694 95.0234 267.945 94.2975 270.042L99.0225 271.678C99.9166 269.095 100.842 264.436 101.543 259.488C102.25 254.495 102.76 248.969 102.76 244.58H97.76ZM94.3238 269.97C93.7519 271.471 93.078 272.208 92.3403 272.638C91.5369 273.107 90.337 273.4 88.38 273.4V278.4C90.743 278.4 92.9631 278.063 94.8597 276.957C96.822 275.812 98.1281 274.029 98.9962 271.75L94.3238 269.97ZM88.38 273.4C84.8649 273.4 78.3548 272.66 69.9287 271.749C61.6014 270.849 51.5969 269.807 41.3526 269.264L41.0874 274.256C51.1831 274.793 61.0686 275.821 69.3913 276.721C77.6152 277.61 84.5151 278.4 88.38 278.4V273.4ZM41.3634 269.264C25.6293 268.36 12.431 268.36 7.56 268.36V273.36C12.409 273.36 25.4907 273.36 41.0766 274.256L41.3634 269.264ZM7.56 268.36C6.8532 268.36 6.37996 268.31 6.07479 268.247C5.76714 268.185 5.71993 268.127 5.78803 268.175C5.89116 268.246 6.00897 268.381 6.07482 268.541C6.12386 268.66 6.1 268.689 6.1 268.52H1.1C1.1 269.684 1.42315 271.234 2.94197 272.285C4.1882 273.148 5.8417 273.36 7.56 273.36V268.36ZM6.1 268.52C6.1 268.407 6.12067 268.464 6.0499 268.594C5.97472 268.731 5.87574 268.806 5.84201 268.826C5.82811 268.834 5.89886 268.79 6.11809 268.748C6.33358 268.707 6.63007 268.68 7.02 268.68V263.68C5.89476 263.68 4.48766 263.816 3.29299 264.524C1.8676 265.369 1.1 266.807 1.1 268.52H6.1ZM7.02 268.68C7.55237 268.68 8.51416 268.759 10.1582 268.856C11.7155 268.947 13.7033 269.04 16.02 269.04V264.04C13.8367 264.04 11.9545 263.953 10.4518 263.864C9.03584 263.781 7.74763 263.68 7.02 263.68V268.68ZM16.02 269.04C17.4532 269.04 19.189 269.042 21.1288 268.848L20.6312 263.872C18.971 264.038 17.4668 264.04 16.02 264.04V269.04ZM20.9863 268.858C25.8189 268.652 28.847 266.881 30.4448 264.127C31.8901 261.636 31.84 258.796 31.84 257.36H26.84C26.84 258.984 26.7899 260.464 26.1202 261.618C25.603 262.509 24.4011 263.708 20.7737 263.862L20.9863 268.858ZM31.8397 257.32C31.4778 234.519 27.4955 202.615 26.43 190.717L21.45 191.163C22.5445 203.385 26.4822 234.841 26.8403 257.4L31.8397 257.32ZM26.43 190.717C25.345 178.6 21.7354 150.795 19.5558 139.352L14.6442 140.288C16.7846 151.525 20.375 179.16 21.45 191.163L26.43 190.717ZM19.5515 139.33C17.6984 130.065 14.9893 125.202 10.843 122.147L7.877 126.173C10.5707 128.157 12.9016 131.575 14.6485 140.31L19.5515 139.33ZM10.9217 122.208C9.3925 120.984 7.14676 119.837 5.84457 119.063C5.09082 118.615 4.59579 118.273 4.30625 118.003C3.9678 117.687 4.3 117.838 4.3 118.4H-0.7C-0.7 119.952 0.239698 121.048 0.896872 121.66C1.60296 122.318 2.49168 122.887 3.29043 123.362C5.09325 124.433 6.6275 125.176 7.79826 126.112L10.9217 122.208ZM4.3 118.4C4.3 118.513 4.27547 118.72 4.15239 118.955C4.02622 119.196 3.85469 119.355 3.72063 119.441C3.60154 119.518 3.54615 119.518 3.62588 119.501C3.70393 119.483 3.86667 119.46 4.14 119.46V114.46C3.12651 114.46 1.9747 114.616 1.00437 115.244C-0.139501 115.984 -0.7 117.163 -0.7 118.4H4.3ZM4.14 119.46C4.81212 119.46 5.7933 119.561 7.28918 119.75C8.72897 119.931 10.5771 120.184 12.7922 120.434C17.2549 120.938 23.29 121.44 31.32 121.44V116.44C23.51 116.44 17.6651 115.952 13.3528 115.466C11.1804 115.221 9.41728 114.979 7.91519 114.789C6.4692 114.607 5.17788 114.46 4.14 114.46V119.46ZM31.32 121.44C40.5144 121.44 54.0409 119.84 65.5655 118.267C71.3498 117.478 76.6825 116.688 80.7585 116.099C82.8023 115.803 84.5215 115.56 85.8329 115.39C87.2187 115.211 87.9684 115.14 88.2 115.14V110.14C87.5766 110.14 86.4701 110.266 85.1917 110.431C83.839 110.606 82.0862 110.855 80.0433 111.15C75.9462 111.742 70.6477 112.527 64.8895 113.313C53.3291 114.89 40.1256 116.44 31.32 116.44V121.44ZM135.705 164.3L137.205 166.3L137.347 166.193L137.472 166.068L135.705 164.3ZM126.345 170.6L124.845 168.6L124.835 168.607L126.345 170.6ZM120.045 190.04H117.545V190.066L117.545 190.091L120.045 190.04ZM128.685 232.16L130.93 231.061L130.925 231.052L130.921 231.042L128.685 232.16ZM163.245 184.46L161.828 186.52L161.878 186.554L161.929 186.586L163.245 184.46ZM152.625 181.04L153.282 178.628L153.216 178.61L153.148 178.595L152.625 181.04ZM194.745 172.4L195.566 174.761L195.664 174.727L195.76 174.685L194.745 172.4ZM198.885 176.36L197.498 174.28L197.498 174.28L198.885 176.36ZM192.045 182.3L189.754 181.298L189.75 181.307L189.747 181.315L192.045 182.3ZM188.625 214.88L191.117 215.069L191.118 215.066L188.625 214.88ZM173.865 292.82L176.239 293.602L176.242 293.593L173.865 292.82ZM165.765 285.26L168.213 285.767L168.225 285.707L168.234 285.647L165.765 285.26ZM169.545 233.96H172.045V233.864L172.037 233.768L169.545 233.96ZM169.365 231.62L171.857 231.428L166.961 230.933L169.365 231.62ZM167.925 235.4L165.627 234.415L165.627 234.415L167.925 235.4ZM163.965 243.68L166.132 244.926L166.138 244.916L166.143 244.906L163.965 243.68ZM97.9045 189.5L100.357 189.013L100.356 189.01L97.9045 189.5ZM87.6445 182.12L86.9902 179.707L86.9215 179.726L86.854 179.748L87.6445 182.12ZM109.965 174.02L108.88 171.767L108.872 171.771L109.965 174.02ZM135.165 163.02C135.23 163.02 135.243 163.027 135.212 163.019C135.179 163.011 135.066 162.978 134.924 162.874C134.769 162.76 134.631 162.599 134.544 162.413C134.462 162.237 134.465 162.123 134.465 162.14H139.465C139.465 160.839 138.955 159.629 137.88 158.841C136.941 158.153 135.882 158.02 135.165 158.02V163.02ZM134.465 162.14C134.465 162.106 134.471 162.045 134.494 161.976C134.515 161.911 134.536 161.883 134.524 161.901C134.508 161.925 134.465 161.984 134.361 162.097C134.253 162.215 134.126 162.343 133.937 162.532L137.472 166.068C138.049 165.491 139.465 164.238 139.465 162.14H134.465ZM134.205 162.3C133.59 162.761 132.7 163.274 131.038 164.325C129.466 165.319 127.43 166.661 124.845 168.6L127.845 172.6C130.3 170.759 132.223 169.491 133.711 168.55C135.109 167.666 136.379 166.919 137.205 166.3L134.205 162.3ZM124.835 168.607C117.79 173.944 117.545 181.359 117.545 190.04H122.545C122.545 181.081 123.019 176.256 127.854 172.593L124.835 168.607ZM117.545 190.091C117.911 208.013 122.287 224.955 126.448 233.278L130.921 231.042C127.162 223.525 122.898 207.347 122.544 189.989L117.545 190.091ZM126.439 233.259C130.802 242.174 137.432 248.52 147.405 248.52V243.52C140.097 243.52 134.847 239.066 130.93 231.061L126.439 233.259ZM147.405 248.52C158.184 248.52 164.124 239.889 167.293 230.8C170.506 221.583 171.325 210.782 171.325 204.08H166.325C166.325 210.518 165.523 220.687 162.571 229.155C159.575 237.751 154.805 243.52 147.405 243.52V248.52ZM171.325 204.08C171.325 198.229 170.872 193.636 169.853 190.129C168.823 186.589 167.147 183.935 164.56 182.334L161.929 186.586C163.122 187.325 164.236 188.721 165.051 191.526C165.877 194.364 166.325 198.411 166.325 204.08H171.325ZM164.661 182.4C162.834 181.144 160.301 180.338 158.235 179.793C157.16 179.509 156.123 179.275 155.255 179.083C154.347 178.882 153.702 178.742 153.282 178.628L151.967 183.452C152.537 183.608 153.355 183.783 154.174 183.965C155.032 184.155 155.987 184.371 156.959 184.627C158.988 185.162 160.775 185.796 161.828 186.52L164.661 182.4ZM153.148 178.595C152.619 178.482 152.252 178.365 152.001 178.259C151.753 178.154 151.667 178.08 151.659 178.072C151.656 178.07 151.667 178.08 151.683 178.103C151.699 178.126 151.71 178.149 151.717 178.165C151.729 178.198 151.705 178.157 151.705 177.98H146.705C146.705 179.314 147.106 180.682 148.28 181.758C149.315 182.706 150.699 183.184 152.101 183.485L153.148 178.595ZM151.705 177.98C151.705 177.903 151.718 177.88 151.714 177.89C151.71 177.9 151.703 177.907 151.706 177.904C151.711 177.9 151.856 177.78 152.265 177.78V172.78C150.873 172.78 149.488 173.2 148.413 174.141C147.31 175.107 146.705 176.478 146.705 177.98H151.705ZM152.265 177.78C153.844 177.78 155.975 177.989 158.907 178.222C161.768 178.449 165.218 178.68 169.185 178.68V173.68C165.411 173.68 162.111 173.461 159.302 173.238C156.564 173.021 154.105 172.78 152.265 172.78V177.78ZM169.185 178.68C173.601 178.68 179.102 178.074 183.977 177.299C188.818 176.53 193.276 175.558 195.566 174.761L193.923 170.039C192.073 170.682 187.981 171.6 183.192 172.361C178.437 173.116 173.228 173.68 169.185 173.68V178.68ZM195.76 174.685C196.376 174.411 196.848 174.291 197.181 174.236C197.51 174.181 197.747 174.18 197.985 174.18V169.18C197.26 169.18 195.792 169.199 193.729 170.115L195.76 174.685ZM197.985 174.18C198.14 174.18 198.242 174.2 198.296 174.215C198.35 174.231 198.336 174.236 198.285 174.197C198.228 174.155 198.146 174.073 198.082 173.947C198.018 173.82 198.005 173.711 198.005 173.66H203.005C203.005 172.226 202.35 170.997 201.285 170.197C200.291 169.452 199.088 169.18 197.985 169.18V174.18ZM198.005 173.66C198.005 173.796 197.99 173.859 197.986 173.875C197.984 173.883 197.983 173.884 197.984 173.881C197.986 173.878 197.987 173.876 197.986 173.878C197.981 173.885 197.898 174.013 197.498 174.28L200.271 178.44C200.951 177.987 201.678 177.395 202.213 176.547C202.778 175.653 203.005 174.677 203.005 173.66H198.005ZM197.498 174.28C196.866 174.701 196.235 175.084 195.534 175.519C194.857 175.94 194.131 176.402 193.436 176.916C192.033 177.956 190.625 179.307 189.754 181.298L194.335 183.302C194.724 182.413 195.386 181.694 196.413 180.934C196.933 180.548 197.512 180.177 198.174 179.765C198.812 179.369 199.553 178.919 200.271 178.44L197.498 174.28ZM189.747 181.315C188.486 184.257 187.976 187.969 187.572 193.06C187.177 198.047 186.835 205.286 186.131 214.694L191.118 215.066C191.854 205.214 192.142 198.683 192.557 193.455C192.963 188.331 193.443 185.383 194.342 183.285L189.747 181.315ZM186.132 214.691C184.521 235.99 180.765 263.498 171.487 292.047L176.242 293.593C185.684 264.542 189.488 236.61 191.117 215.069L186.132 214.691ZM171.49 292.038C162.035 320.761 146.412 337.12 127.605 337.12V342.12C149.837 342.12 166.614 322.839 176.239 293.602L171.49 292.038ZM127.605 337.12C120.951 337.12 115.521 334.965 111.774 331.415C108.038 327.876 105.805 322.792 105.805 316.58H100.805C100.805 324.048 103.521 330.484 108.335 335.045C113.138 339.595 119.858 342.12 127.605 342.12V337.12ZM105.805 316.58C105.805 302.829 114.209 293.88 124.725 293.88V288.88C110.76 288.88 100.805 300.811 100.805 316.58H105.805ZM124.725 293.88C129.15 293.88 132.3 295.403 134.349 297.542C136.426 299.709 137.525 302.67 137.525 305.78H142.525C142.525 301.51 141.013 297.271 137.96 294.083C134.879 290.867 130.379 288.88 124.725 288.88V293.88ZM137.525 305.78C137.525 308.387 136.671 310.59 135.263 312.117C133.876 313.618 131.813 314.62 129.045 314.62V319.62C133.116 319.62 136.543 318.102 138.937 315.508C141.308 312.94 142.525 309.473 142.525 305.78H137.525ZM129.045 314.62C126.57 314.62 125.02 313.96 123.936 313.12C122.799 312.237 121.973 311 121.217 309.51C120.836 308.758 120.508 308.017 120.143 307.22C119.796 306.462 119.407 305.635 118.958 304.892C118.067 303.417 116.555 301.66 113.925 301.66V306.66C114.003 306.66 114.019 306.667 114.078 306.711C114.189 306.795 114.392 307.002 114.679 307.478C114.964 307.95 115.249 308.541 115.597 309.301C115.927 310.023 116.317 310.902 116.757 311.77C117.644 313.52 118.876 315.523 120.872 317.07C122.921 318.66 125.579 319.62 129.045 319.62V314.62ZM113.925 301.66C110.544 301.66 108.33 304.353 107.108 306.871C105.813 309.541 105.125 312.941 105.125 316.22H110.125C110.125 313.559 110.696 310.929 111.606 309.054C112.589 307.027 113.525 306.66 113.925 306.66V301.66ZM105.125 316.22C105.125 322.545 107.5 327.949 111.62 331.758C115.722 335.551 121.396 337.62 127.785 337.62V332.62C122.473 332.62 118.067 330.909 115.014 328.087C111.979 325.281 110.125 321.235 110.125 316.22H105.125ZM127.785 337.62C144.05 337.62 153.911 325.276 159.693 313.229C165.522 301.087 167.689 288.298 168.213 285.767L163.316 284.753C162.76 287.442 160.698 299.583 155.186 311.066C149.628 322.644 141.039 332.62 127.785 332.62V337.62ZM168.234 285.647C171.494 264.819 172.225 249.39 172.225 240.44H167.225C167.225 249.13 166.515 264.301 163.295 284.873L168.234 285.647ZM172.225 240.44C172.225 238.948 172.178 237.648 172.132 236.556C172.086 235.433 172.045 234.612 172.045 233.96H167.045C167.045 234.748 167.093 235.727 167.137 236.764C167.181 237.832 167.225 239.052 167.225 240.44H172.225ZM172.037 233.768L171.857 231.428L166.872 231.812L167.052 234.152L172.037 233.768ZM166.961 230.933C166.652 232.014 166.179 233.126 165.627 234.415L170.222 236.385C170.75 235.154 171.357 233.746 171.768 232.307L166.961 230.933ZM165.627 234.415C164.549 236.93 163.334 239.702 161.786 242.454L166.143 244.906C167.835 241.898 169.14 238.91 170.222 236.385L165.627 234.415ZM161.797 242.434C158.011 249.019 149.759 255.76 138.765 255.76V260.76C151.89 260.76 161.638 252.741 166.132 244.926L161.797 242.434ZM138.765 255.76C131.517 255.76 125.944 253.34 121.494 249.351C116.986 245.308 113.533 239.56 110.797 232.797C105.289 219.182 103.014 202.391 100.357 189.013L95.4524 189.987C98.0152 202.889 100.42 220.478 106.162 234.673C109.051 241.815 112.866 248.33 118.156 253.073C123.505 257.87 130.262 260.76 138.765 260.76V255.76ZM100.356 189.01C99.9537 186.998 99.2727 185.291 98.0456 184.103C96.728 182.828 95.1521 182.5 93.7645 182.5V187.5C94.3569 187.5 94.491 187.622 94.5685 187.697C94.7363 187.859 95.1353 188.402 95.4531 189.99L100.356 189.01ZM93.7645 182.5C92.4566 182.5 91.0565 182.714 89.9642 182.893C88.7033 183.099 88.0105 183.22 87.6445 183.22V188.22C88.5386 188.22 89.8258 187.981 90.7699 187.827C91.8826 187.646 92.9124 187.5 93.7645 187.5V182.5ZM87.6445 183.22C87.4881 183.22 87.6892 183.179 87.9665 183.417C88.1091 183.539 88.217 183.692 88.2816 183.847C88.343 183.994 88.3445 184.093 88.3445 184.1H83.3445C83.3445 185.231 83.7463 186.385 84.7126 187.213C85.6198 187.991 86.721 188.22 87.6445 188.22V183.22ZM88.3445 184.1C88.3445 184.216 88.3199 184.332 88.2768 184.435C88.2352 184.533 88.1882 184.591 88.1672 184.613C88.1474 184.634 88.1514 184.624 88.1979 184.596C88.244 184.568 88.3213 184.53 88.4351 184.492L86.854 179.748C85.2877 180.27 83.3445 181.651 83.3445 184.1H88.3445ZM88.2989 184.533C99.0565 181.616 104.604 179.403 111.057 176.269L108.872 171.771C102.725 174.757 97.4726 176.864 86.9902 179.707L88.2989 184.533ZM111.049 176.272C118.482 172.694 123.856 169.248 127.813 166.752C129.816 165.489 131.367 164.527 132.659 163.873C133.984 163.203 134.733 163.02 135.165 163.02V158.02C133.526 158.02 131.913 158.647 130.402 159.411C128.86 160.192 127.103 161.289 125.146 162.523C121.184 165.022 116.027 168.326 108.88 171.767L111.049 176.272ZM273.797 210.38L271.637 211.64L271.645 211.653L271.653 211.666L273.797 210.38ZM225.737 206.96L226.569 204.603L223.058 203.363L223.24 207.082L225.737 206.96ZM269.477 213.26L271.818 212.382L271.808 212.357L271.798 212.332L269.477 213.26ZM225.377 201.2H222.877V203.071L224.671 203.598L225.377 201.2ZM271.653 211.666C273.042 213.981 274.537 218.577 274.537 222.8H279.537C279.537 217.663 277.791 212.179 275.941 209.094L271.653 211.666ZM274.537 222.8C274.537 230.748 271.839 236.82 267.209 240.934C262.541 245.08 255.632 247.48 246.797 247.48V252.48C256.501 252.48 264.712 249.84 270.53 244.671C276.385 239.47 279.537 231.952 279.537 222.8H274.537ZM246.797 247.48C234.019 247.48 224.201 242.957 217.55 235.452C210.866 227.909 207.177 217.117 207.177 204.26H202.177C202.177 218.043 206.137 230.111 213.808 238.768C221.513 247.463 232.755 252.48 246.797 252.48V247.48ZM207.177 204.26C207.177 169.485 231.233 154.38 248.777 154.38V149.38C228.521 149.38 202.177 166.675 202.177 204.26H207.177ZM248.777 154.38C254.651 154.38 261.202 155.795 266.209 159.342C271.092 162.802 274.717 168.424 274.717 177.44H279.717C279.717 166.836 275.332 159.678 269.1 155.263C262.992 150.935 255.323 149.38 248.777 149.38V154.38ZM274.717 177.44C274.717 189.33 269.104 196.443 262.082 200.705C254.915 205.056 246.225 206.44 240.497 206.44V211.44C246.829 211.44 256.498 209.944 264.677 204.98C273 199.927 279.717 191.29 279.717 177.44H274.717ZM240.497 206.44C234.904 206.44 229.271 205.556 226.569 204.603L224.905 209.317C228.323 210.524 234.569 211.44 240.497 211.44V206.44ZM223.24 207.082C223.704 216.559 226.123 225.831 230.922 232.811C235.785 239.886 243.087 244.56 252.917 244.56V239.56C244.927 239.56 239.088 235.864 235.042 229.979C230.931 223.999 228.669 215.721 228.234 206.838L223.24 207.082ZM252.917 244.56C259.806 244.56 265.04 241.982 268.504 237.777C271.911 233.642 273.417 228.17 273.417 222.62H268.417C268.417 227.33 267.133 231.578 264.645 234.598C262.214 237.548 258.448 239.56 252.917 239.56V244.56ZM273.417 222.62C273.417 219.408 273.045 215.654 271.818 212.382L267.136 214.138C268.069 216.626 268.417 219.712 268.417 222.62H273.417ZM271.798 212.332C271.45 211.462 271.165 210.682 270.969 210.037C270.872 209.716 270.805 209.453 270.763 209.247C270.719 209.029 270.717 208.937 270.717 208.94H265.717C265.717 209.78 265.948 210.707 266.184 211.488C266.439 212.328 266.783 213.258 267.156 214.188L271.798 212.332ZM270.717 208.94C270.717 208.784 270.758 208.985 270.52 209.262C270.398 209.405 270.245 209.513 270.09 209.577C269.942 209.638 269.844 209.64 269.837 209.64V204.64C268.705 204.64 267.552 205.042 266.724 206.008C265.946 206.915 265.717 208.016 265.717 208.94H270.717ZM269.837 209.64C269.613 209.64 269.758 209.57 270.219 209.927C270.629 210.244 271.146 210.797 271.637 211.64L275.956 209.12C275.188 207.803 274.265 206.736 273.28 205.973C272.346 205.25 271.141 204.64 269.837 204.64V209.64ZM224.671 203.598C227.949 204.562 231.606 205.32 237.797 205.32V200.32C232.108 200.32 228.925 199.638 226.082 198.802L224.671 203.598ZM237.797 205.32C245.321 205.32 251.862 202.381 256.495 197.168C261.11 191.977 263.697 184.691 263.697 176.18H258.697C258.697 183.689 256.423 189.723 252.758 193.847C249.112 197.949 243.952 200.32 237.797 200.32V205.32ZM263.697 176.18C263.697 168.618 261.903 163.213 258.772 159.674C255.606 156.095 251.39 154.78 247.337 154.78V159.78C250.304 159.78 253.018 160.715 255.027 162.986C257.071 165.297 258.697 169.342 258.697 176.18H263.697ZM247.337 154.78C241.892 154.78 235.657 157.68 230.889 164.98C226.16 172.219 222.877 183.741 222.877 201.2H227.877C227.877 184.279 231.073 173.841 235.075 167.715C239.036 161.65 243.782 159.78 247.337 159.78V154.78ZM294.784 161.24L296.694 162.853L296.71 162.834L296.725 162.815L294.784 161.24ZM339.244 177.1C336.083 177.1 333.492 176.107 331.691 174.271C329.892 172.439 328.604 169.483 328.604 165.02H323.604C323.604 170.457 325.195 174.791 328.122 177.774C331.046 180.753 335.025 182.1 339.244 182.1V177.1ZM328.604 165.02C328.604 161.467 328.306 157.484 326.716 154.332C325.893 152.7 324.7 151.24 323.001 150.204C321.305 149.17 319.27 148.66 316.924 148.66V153.66C318.537 153.66 319.63 154.005 320.398 154.473C321.163 154.939 321.77 155.627 322.252 156.583C323.272 158.606 323.604 161.553 323.604 165.02H328.604ZM316.924 148.66C311.037 148.66 305.389 152.365 301.331 158.805C297.259 165.266 294.624 174.672 294.624 186.8H299.624C299.624 175.348 302.118 166.934 305.561 161.47C309.018 155.985 313.271 153.66 316.924 153.66V148.66ZM294.624 186.8C294.624 201.321 297.65 213.227 303.49 221.578C309.403 230.032 318.088 234.66 328.804 234.66V229.66C319.72 229.66 312.565 225.828 307.587 218.712C302.538 211.493 299.624 200.719 299.624 186.8H294.624ZM328.804 234.66C335.939 234.66 341.711 232.013 345.682 227.656C349.623 223.331 351.644 217.482 351.644 211.28H346.644C346.644 216.418 344.974 221.009 341.986 224.289C339.026 227.537 334.629 229.66 328.804 229.66V234.66ZM351.644 211.28C351.644 204.784 349.706 200.334 347.769 197.154C346.861 195.665 345.845 194.301 345.295 193.483C344.986 193.022 344.799 192.707 344.692 192.476C344.583 192.243 344.624 192.239 344.624 192.38H339.624C339.624 193.241 339.884 193.996 340.159 194.587C340.435 195.18 340.797 195.754 341.146 196.272C341.912 197.412 342.651 198.365 343.499 199.756C345.071 202.336 346.644 205.896 346.644 211.28H351.644ZM344.624 192.38C344.624 192.399 344.621 192.539 344.541 192.739C344.453 192.956 344.301 193.174 344.089 193.347C343.697 193.668 343.379 193.62 343.564 193.62V188.62C342.848 188.62 341.81 188.752 340.923 189.478C339.937 190.284 339.624 191.411 339.624 192.38H344.624ZM343.564 193.62C343.703 193.62 344.401 193.762 345.554 194.575C346.626 195.33 347.855 196.504 349.019 198.09C351.337 201.247 353.304 205.91 353.304 211.82H358.304C358.304 204.77 355.951 199.083 353.049 195.13C351.603 193.161 349.997 191.59 348.436 190.489C346.956 189.445 345.225 188.62 343.564 188.62V193.62ZM353.304 211.82C353.304 221.739 349.891 229.223 344.358 234.247C338.793 239.3 330.844 242.08 321.424 242.08V247.08C331.804 247.08 341.044 244.01 347.719 237.948C354.427 231.857 358.304 222.961 358.304 211.82H353.304ZM321.424 242.08C310.69 242.08 301.683 237.92 295.321 230.389C288.927 222.821 285.044 211.651 285.044 197.42H280.044C280.044 212.529 284.17 224.939 291.502 233.616C298.864 242.33 309.297 247.08 321.424 247.08V242.08ZM285.044 197.42C285.044 183.924 290.264 170.468 296.694 162.853L292.874 159.627C285.624 168.212 280.044 182.836 280.044 197.42H285.044ZM296.725 162.815C301.561 156.857 306.484 153.071 311.569 150.758C316.658 148.443 322.047 147.54 327.904 147.54V142.54C321.521 142.54 315.39 143.527 309.499 146.207C303.603 148.889 298.087 153.203 292.843 159.665L296.725 162.815ZM327.904 147.54C340.603 147.54 349.344 154.676 349.344 164.48H354.344C354.344 150.884 342.205 142.54 327.904 142.54V147.54ZM349.344 164.48C349.344 169.529 347.812 172.615 345.953 174.441C344.06 176.298 341.575 177.1 339.244 177.1V182.1C342.673 182.1 346.487 180.922 349.455 178.009C352.455 175.065 354.344 170.591 354.344 164.48H349.344ZM365.05 203C365.05 190.414 369.133 180.336 376.102 173.408C383.074 166.478 393.156 162.48 405.57 162.48V157.48C392.063 157.48 380.635 161.852 372.577 169.862C364.516 177.874 360.05 189.306 360.05 203H365.05ZM405.57 162.48C416.498 162.48 425.871 166.27 432.506 172.947C439.138 179.621 443.21 189.353 443.21 201.56H448.21C448.21 188.207 443.731 177.149 436.053 169.423C428.378 161.7 417.681 157.48 405.57 157.48V162.48ZM443.21 201.56C443.21 216.018 437.987 225.98 430.759 232.355C423.47 238.783 413.959 241.72 405.21 241.72V246.72C415 246.72 425.739 243.447 434.066 236.105C442.452 228.71 448.21 217.342 448.21 201.56H443.21ZM405.21 241.72C384.173 241.72 365.05 227.458 365.05 203H360.05C360.05 230.742 381.966 246.72 405.21 246.72V241.72ZM404.31 160.9C396.463 160.9 390.896 165.173 387.426 171.489C384.019 177.689 382.55 185.943 382.55 194.54H387.55C387.55 186.397 388.96 179.081 391.808 173.896C394.593 168.827 398.656 165.9 404.31 165.9V160.9ZM382.55 194.54C382.55 205.124 384.382 216.49 388.449 225.309C392.501 234.097 399.109 240.96 408.81 240.96V235.96C401.95 235.96 396.678 231.213 392.99 223.216C389.317 215.25 387.55 204.656 387.55 194.54H382.55ZM408.81 240.96C417.033 240.96 422.533 236.807 425.838 230.934C429.058 225.212 430.21 217.887 430.21 211.1H425.21C425.21 217.453 424.111 223.808 421.481 228.481C418.936 233.003 414.986 235.96 408.81 235.96V240.96ZM430.21 211.1C430.21 194.697 427.667 182.309 423.212 173.927C418.712 165.459 412.122 160.9 404.31 160.9V165.9C409.817 165.9 414.927 168.991 418.797 176.273C422.712 183.641 425.21 195.103 425.21 211.1H430.21ZM478.965 169.7L481.438 169.338L481.437 169.33L481.436 169.322L478.965 169.7ZM482.205 191.84L479.731 192.202L484.675 192.226L482.205 191.84ZM537.825 248.54L535.654 249.78L535.697 249.855L535.744 249.927L537.825 248.54ZM522.165 249.26L521.397 251.639L521.409 251.643L522.165 249.26ZM504.165 246.02L503.938 248.51L503.99 248.514L504.043 248.517L504.165 246.02ZM511.005 242.42L511.151 244.916L511.174 244.914L511.196 244.913L511.005 242.42ZM520.185 233.24L522.631 233.755L522.634 233.743L522.636 233.73L520.185 233.24ZM486.165 194.18L488.616 194.67L488.627 194.613L488.636 194.555L486.165 194.18ZM489.405 245.48L491.447 244.038L491.445 244.035L489.405 245.48ZM496.245 250.52L495.316 252.841L495.411 252.879L495.509 252.909L496.245 250.52ZM459.345 248.72L459.206 246.224L459.05 246.232L458.897 246.26L459.345 248.72ZM468.165 248L468.502 250.477L468.51 250.476L468.518 250.475L468.165 248ZM462.405 177.62L459.961 178.148L459.964 178.162L459.967 178.175L462.405 177.62ZM446.925 166.82L447.802 169.161L447.817 169.155L447.831 169.15L446.925 166.82ZM458.445 160.34L459.957 162.33L459.977 162.315L459.996 162.3L458.445 160.34ZM473.385 146.28C472.701 146.28 472.253 145.965 472.08 145.813C471.915 145.67 471.869 145.569 471.91 145.638C471.99 145.774 472.148 146.118 472.356 146.768C472.76 148.033 473.193 149.934 473.651 152.346C474.562 157.148 475.498 163.561 476.493 170.078L481.436 169.322C480.451 162.879 479.497 156.332 478.563 151.414C478.099 148.966 477.62 146.817 477.119 145.247C476.874 144.48 476.58 143.71 476.21 143.086C476.026 142.776 475.754 142.384 475.365 142.044C474.966 141.697 474.293 141.28 473.385 141.28V146.28ZM476.491 170.062L479.731 192.202L484.678 191.478L481.438 169.338L476.491 170.062ZM484.675 192.226C485.529 186.757 488.207 178.085 493.195 170.849C498.162 163.644 505.184 158.16 514.785 158.16V153.16C502.965 153.16 494.597 160.006 489.079 168.011C483.582 175.985 480.68 185.403 479.735 191.454L484.675 192.226ZM514.785 158.16C522.84 158.16 528.446 161.313 532.136 166.55C535.914 171.912 537.845 179.704 537.845 189.14H542.845C542.845 179.136 540.815 170.188 536.223 163.67C531.543 157.027 524.369 153.16 514.785 153.16V158.16ZM537.845 189.14C537.845 197.676 536.7 206.517 535.528 215.081C534.367 223.56 533.165 231.859 533.165 239H538.165C538.165 232.281 539.302 224.38 540.481 215.759C541.649 207.223 542.845 198.064 542.845 189.14H537.845ZM533.165 239C533.165 243.459 533.947 246.793 535.654 249.78L539.995 247.3C538.822 245.247 538.165 242.821 538.165 239H533.165ZM535.744 249.927C537.673 252.819 540.741 254.86 542.793 256.347C543.912 257.158 544.719 257.784 545.253 258.363C545.778 258.93 545.765 259.157 545.765 259.16H550.765C550.765 257.363 549.851 255.97 548.924 254.968C548.008 253.977 546.812 253.085 545.726 252.298C543.368 250.59 541.217 249.121 539.905 247.153L535.744 249.927ZM545.765 259.16C545.765 259.322 545.721 259.151 545.933 258.909C546.043 258.783 546.17 258.703 546.273 258.661C546.366 258.624 546.386 258.64 546.285 258.64V263.64C547.551 263.64 548.802 263.223 549.696 262.201C550.538 261.239 550.765 260.078 550.765 259.16H545.765ZM546.285 258.64C545.938 258.64 545.317 258.479 544.09 257.774C542.867 257.071 541.508 256.119 539.57 254.859C535.799 252.407 530.593 249.31 522.92 246.877L521.409 251.643C528.496 253.89 533.28 256.733 536.844 259.051C538.574 260.176 540.219 261.316 541.599 262.11C542.977 262.901 544.561 263.64 546.285 263.64V258.64ZM522.932 246.881C517.159 245.018 511.902 243.894 504.286 243.523L504.043 248.517C511.187 248.866 516.01 249.902 521.397 251.639L522.932 246.881ZM504.391 243.53C503.981 243.493 503.671 243.442 503.445 243.386C503.333 243.359 503.252 243.333 503.197 243.313C503.141 243.292 503.119 243.279 503.122 243.281C503.128 243.284 503.27 243.366 503.406 243.578C503.555 243.809 503.605 244.05 503.605 244.22H498.605C498.605 245.824 499.513 246.984 500.662 247.634C501.647 248.191 502.839 248.41 503.938 248.51L504.391 243.53ZM503.605 244.22C503.605 244.226 503.603 244.337 503.533 244.5C503.458 244.674 503.335 244.836 503.184 244.957C502.908 245.178 502.758 245.1 503.085 245.1V240.1C502.151 240.1 501.011 240.292 500.06 241.053C499.015 241.889 498.605 243.08 498.605 244.22H503.605ZM503.085 245.1C504.699 245.1 508.008 245.101 511.151 244.916L510.858 239.924C507.881 240.099 504.71 240.1 503.085 240.1V245.1ZM511.196 244.913C513.833 244.71 516.394 244.022 518.494 242.107C520.564 240.22 521.855 237.44 522.631 233.755L517.738 232.725C517.074 235.88 516.115 237.51 515.125 238.413C514.165 239.288 512.856 239.77 510.813 239.927L511.196 244.913ZM522.636 233.73C523.762 228.102 524.665 216.039 524.665 207.14H519.665C519.665 215.881 518.767 227.578 517.733 232.75L522.636 233.73ZM524.665 207.14C524.665 201.26 524.679 191.515 522.416 183.217C521.282 179.056 519.518 175.033 516.701 172.02C513.81 168.928 509.914 167.02 504.885 167.02V172.02C508.495 172.02 511.079 173.329 513.048 175.435C515.091 177.619 516.567 180.774 517.593 184.533C519.65 192.075 519.665 201.14 519.665 207.14H524.665ZM504.885 167.02C499.011 167.02 494.192 170.207 490.669 175.046C487.168 179.853 484.812 186.434 483.693 193.805L488.636 194.555C489.677 187.706 491.821 181.957 494.71 177.989C497.577 174.053 501.038 172.02 504.885 172.02V167.02ZM483.713 193.69C482.22 201.155 482.045 209.114 482.045 216.86H487.045C487.045 209.126 487.229 201.605 488.616 194.67L483.713 193.69ZM482.045 216.86C482.045 223.356 482.501 229.571 483.361 234.752C484.2 239.812 485.482 244.267 487.364 246.925L491.445 244.035C490.267 242.373 489.119 238.908 488.293 233.933C487.488 229.079 487.045 223.144 487.045 216.86H482.045ZM487.362 246.922C489.958 250.599 493.415 252.081 495.316 252.841L497.173 248.199C495.474 247.519 493.171 246.481 491.447 244.038L487.362 246.922ZM495.509 252.909C496.091 253.088 496.537 253.231 496.89 253.358C497.253 253.489 497.433 253.574 497.512 253.619C497.593 253.665 497.435 253.595 497.264 253.353C497.057 253.058 496.985 252.734 496.985 252.5H501.985C501.985 251.816 501.8 251.109 501.351 250.472C500.938 249.886 500.409 249.513 499.972 249.266C499.171 248.813 498.074 248.467 496.98 248.131L495.509 252.909ZM496.985 252.5C496.985 252.014 497.177 251.643 497.356 251.428C497.516 251.236 497.64 251.193 497.582 251.22C497.451 251.281 496.952 251.44 495.885 251.44V256.44C497.337 256.44 498.638 256.239 499.677 255.76C500.653 255.309 501.985 254.282 501.985 252.5H496.985ZM495.885 251.44C493.696 251.44 490.964 250.989 487.672 250.479C484.487 249.986 480.891 249.46 477.345 249.46V254.46C480.458 254.46 483.702 254.924 486.907 255.421C490.005 255.901 493.213 256.44 495.885 256.44V251.44ZM477.345 249.46C473.987 249.46 470.339 249.739 467.207 250.009C463.973 250.288 461.452 250.54 460.065 250.54V255.54C461.737 255.54 464.616 255.252 467.637 254.991C470.761 254.721 474.222 254.46 477.345 254.46V249.46ZM460.065 250.54C459.657 250.54 459.354 250.505 459.141 250.46C458.924 250.414 458.848 250.367 458.855 250.371C458.874 250.383 458.971 250.451 459.054 250.599C459.138 250.749 459.145 250.865 459.145 250.88H454.145C454.145 252.479 454.919 253.82 456.234 254.629C457.384 255.337 458.775 255.54 460.065 255.54V250.54ZM459.145 250.88C459.145 250.891 459.142 250.994 459.078 251.14C459.012 251.292 458.92 251.394 458.862 251.442C458.818 251.48 458.838 251.448 458.996 251.386C459.154 251.325 459.408 251.249 459.792 251.18L458.897 246.26C457.738 246.471 456.559 246.846 455.642 247.618C454.587 248.506 454.145 249.689 454.145 250.88H459.145ZM459.483 251.216C462.671 251.039 464.417 251.034 468.502 250.477L467.827 245.523C463.992 246.046 462.498 246.041 459.206 246.224L459.483 251.216ZM468.518 250.475C470.847 250.142 472.809 249.228 474.072 247.391C475.251 245.677 475.525 243.563 475.525 241.52H470.525C470.525 243.257 470.258 244.113 469.952 244.559C469.73 244.882 469.262 245.318 467.811 245.525L468.518 250.475ZM475.525 241.52C475.525 228.228 470.768 203.104 464.842 177.065L459.967 178.175C465.921 204.336 470.525 228.892 470.525 241.52H475.525ZM464.848 177.092C464.13 173.769 463.345 170.931 462.151 168.904C461.53 167.85 460.736 166.901 459.675 166.223C458.589 165.53 457.38 165.22 456.105 165.22V170.22C456.539 170.22 456.792 170.315 456.983 170.437C457.2 170.575 457.496 170.853 457.843 171.441C458.584 172.699 459.239 174.811 459.961 178.148L464.848 177.092ZM456.105 165.22C453.72 165.22 451.324 166.212 449.579 166.945C448.622 167.347 447.836 167.687 447.107 167.941C446.364 168.199 445.916 168.28 445.665 168.28V173.28C446.763 173.28 447.845 172.978 448.751 172.663C449.669 172.343 450.65 171.918 451.515 171.555C453.415 170.758 454.889 170.22 456.105 170.22V165.22ZM445.665 168.28C445.52 168.28 445.502 168.266 445.562 168.282C445.632 168.299 445.83 168.362 446.05 168.544C446.284 168.739 446.425 168.974 446.495 169.166C446.556 169.332 446.545 169.415 446.545 169.34H441.545C441.545 170.263 441.781 171.496 442.849 172.386C443.807 173.184 444.953 173.28 445.665 173.28V168.28ZM446.545 169.34C446.545 169.424 446.516 169.568 446.434 169.704C446.366 169.818 446.314 169.836 446.39 169.783C446.47 169.726 446.618 169.641 446.877 169.526C447.138 169.411 447.429 169.301 447.802 169.161L446.047 164.479C445.413 164.717 444.357 165.095 443.499 165.702C442.508 166.404 441.545 167.582 441.545 169.34H446.545ZM447.831 169.15C451.24 167.824 455.235 165.919 459.957 162.33L456.932 158.35C452.654 161.601 449.089 163.296 446.018 164.49L447.831 169.15ZM459.996 162.3C464.57 158.68 468.097 154.336 470.611 150.999C471.93 149.249 472.835 147.962 473.63 146.942C474.014 146.449 474.268 146.157 474.425 146.005C474.504 145.928 474.491 145.954 474.397 146.012C474.336 146.051 473.966 146.28 473.385 146.28V141.28C472.623 141.28 472.047 141.585 471.751 141.77C471.425 141.973 471.151 142.215 470.942 142.417C470.524 142.823 470.095 143.344 469.685 143.869C468.894 144.886 467.774 146.456 466.618 147.991C464.182 151.224 460.959 155.16 456.893 158.38L459.996 162.3ZM625.904 141.26L623.554 140.406L623.55 140.417L623.546 140.428L625.904 141.26ZM627.704 156.74L630.17 157.151L630.172 157.134L630.175 157.117L627.704 156.74ZM625.724 172.94L623.261 172.512L623.259 172.52L623.258 172.529L625.724 172.94ZM577.124 264.02L575.265 265.692L575.271 265.699L577.124 264.02ZM551.744 258.98L553.511 260.748L553.511 260.748L551.744 258.98ZM568.844 240.08L570.869 241.545L570.871 241.543L568.844 240.08ZM605.744 146.82C610.377 146.82 613.372 147.374 615.616 147.919C616.189 148.059 616.719 148.199 617.237 148.336C617.746 148.471 618.26 148.608 618.756 148.726C619.753 148.964 620.804 149.16 621.944 149.16V144.16C621.373 144.16 620.759 144.064 619.916 143.863C619.493 143.762 619.044 143.642 618.518 143.503C618.002 143.366 617.427 143.214 616.796 143.061C614.225 142.436 610.83 141.82 605.744 141.82V146.82ZM621.944 149.16C624.165 149.16 625.553 147.751 626.378 146.437C627.162 145.189 627.744 143.556 628.261 142.092L623.546 140.428C622.983 142.024 622.575 143.091 622.144 143.778C621.945 144.095 621.824 144.19 621.807 144.202C621.806 144.203 621.827 144.188 621.868 144.175C621.887 144.169 621.905 144.165 621.92 144.162C621.935 144.16 621.944 144.16 621.944 144.16V149.16ZM628.253 142.114C628.563 141.262 628.84 140.818 629.005 140.628C629.078 140.545 629.083 140.563 629.005 140.605C628.913 140.654 628.769 140.7 628.604 140.7V135.7C627.125 135.7 625.995 136.47 625.232 137.347C624.498 138.192 623.964 139.278 623.554 140.406L628.253 142.114ZM628.604 140.7C628.715 140.7 628.661 140.72 628.531 140.651C628.47 140.619 628.41 140.576 628.358 140.527C628.306 140.478 628.271 140.431 628.249 140.397C628.21 140.335 628.219 140.321 628.235 140.398C628.251 140.472 628.264 140.581 628.264 140.72H633.264C633.264 139.981 633.154 138.791 632.468 137.713C631.663 136.449 630.3 135.7 628.604 135.7V140.7ZM628.264 140.72C628.264 141.695 628.011 142.677 627.41 145.176C626.837 147.562 626.056 150.964 625.232 156.363L630.175 157.117C630.971 151.896 631.72 148.638 632.272 146.344C632.796 144.162 633.264 142.445 633.264 140.72H628.264ZM625.238 156.329C624.505 160.727 624.183 163.807 623.954 166.299C623.723 168.817 623.598 170.569 623.261 172.512L628.187 173.368C628.569 171.171 628.714 169.143 628.933 166.756C629.154 164.343 629.463 161.393 630.17 157.151L625.238 156.329ZM623.258 172.529C623.114 173.391 622.893 173.857 622.768 174.037C622.712 174.118 622.719 174.079 622.825 174.012C622.946 173.936 623.144 173.86 623.384 173.86V178.86C625.016 178.86 626.187 177.883 626.879 176.883C627.564 175.893 627.973 174.649 628.19 173.351L623.258 172.529ZM623.384 173.86C623.468 173.86 623.592 173.874 623.734 173.925C623.877 173.976 623.999 174.05 624.095 174.13C624.276 174.281 624.301 174.397 624.265 174.307C624.231 174.221 624.179 174.044 624.14 173.751C624.103 173.467 624.084 173.132 624.084 172.76H619.084C619.084 173.753 619.172 175.039 619.622 176.163C619.856 176.748 620.241 177.427 620.894 177.971C621.592 178.552 622.454 178.86 623.384 178.86V173.86ZM624.084 172.76V165.92H619.084V172.76H624.084ZM624.084 165.92C624.084 158.631 622.334 153.335 618.933 149.879C615.523 146.413 610.889 145.24 606.104 145.24V150.24C610.139 150.24 613.244 151.227 615.369 153.386C617.503 155.555 619.084 159.349 619.084 165.92H624.084ZM606.104 145.24C597.19 145.24 588.844 151.561 588.844 162.32H593.844C593.844 154.719 599.537 150.24 606.104 150.24V145.24ZM588.844 162.32C588.844 169.227 592.34 175.306 597.052 180.913C601.748 186.502 608.022 192.032 614.019 197.687C626.264 209.232 637.624 221.561 637.624 238.46H642.624C642.624 219.179 629.593 205.498 617.449 194.048C611.251 188.205 605.329 182.992 600.879 177.696C596.444 172.419 593.844 167.473 593.844 162.32H588.844ZM637.624 238.46C637.624 249.945 633.823 258.638 627.986 264.454C622.136 270.284 614.063 273.4 605.204 273.4V278.4C615.244 278.4 624.632 274.856 631.516 267.996C638.414 261.122 642.624 251.095 642.624 238.46H637.624ZM605.204 273.4C592.865 273.4 583.791 267.654 578.976 262.341L575.271 265.699C580.897 271.906 591.262 278.4 605.204 278.4V273.4ZM578.982 262.348C576.579 259.678 574.493 257.429 572.456 255.87C570.339 254.249 568.108 253.24 565.424 253.24V258.24C566.699 258.24 567.889 258.671 569.417 259.84C571.024 261.071 572.808 262.962 575.265 265.692L578.982 262.348ZM565.424 253.24C563.704 253.24 562.07 253.936 560.735 254.682C559.361 255.449 558.003 256.442 556.808 257.345C555.552 258.292 554.511 259.109 553.573 259.724C553.116 260.024 552.759 260.224 552.489 260.343C552.199 260.471 552.155 260.44 552.284 260.44V265.44C553.133 265.44 553.904 265.184 554.507 264.918C555.13 264.643 555.743 264.281 556.315 263.906C557.436 263.171 558.69 262.188 559.82 261.335C561.009 260.438 562.126 259.631 563.171 259.048C564.254 258.444 564.983 258.24 565.424 258.24V253.24ZM552.284 260.44C552.27 260.44 552.333 260.439 552.438 260.483C552.545 260.528 552.652 260.601 552.743 260.699C552.909 260.878 552.984 261.093 552.984 261.32H547.984C547.984 262.267 548.328 263.292 549.079 264.101C549.878 264.962 551.009 265.44 552.284 265.44V260.44ZM552.984 261.32C552.984 261.409 552.953 261.448 552.986 261.387C553.033 261.298 553.168 261.091 553.511 260.748L549.976 257.212C548.874 258.314 547.984 259.636 547.984 261.32H552.984ZM553.511 260.748C554.797 259.462 562.254 253.46 570.869 241.545L566.818 238.615C558.513 250.1 551.57 255.618 549.976 257.212L553.511 260.748ZM570.871 241.543C574.961 235.872 577.477 230.699 579.323 227.118C580.275 225.272 580.972 224.004 581.59 223.193C582.247 222.331 582.352 222.6 581.984 222.6V217.6C579.905 217.6 578.503 218.994 577.613 220.163C576.684 221.382 575.795 223.051 574.879 224.827C572.99 228.491 570.646 233.308 566.816 238.617L570.871 241.543ZM581.984 222.6C582.145 222.6 582.119 222.628 581.998 222.57C581.938 222.541 581.871 222.499 581.806 222.441C581.741 222.384 581.693 222.325 581.658 222.274C581.594 222.177 581.597 222.133 581.612 222.207C581.628 222.282 581.644 222.414 581.644 222.62H586.644C586.644 221.845 586.552 220.6 585.819 219.501C584.952 218.201 583.548 217.6 581.984 217.6V222.6ZM581.644 222.62C581.644 222.964 581.464 223.679 580.869 225.156C580.358 226.422 579.51 228.329 578.748 230.323C577.151 234.504 575.524 240.037 575.524 247.1H580.524C580.524 240.843 581.956 235.936 583.419 232.107C584.187 230.096 584.869 228.605 585.506 227.025C586.058 225.656 586.644 224.076 586.644 222.62H581.644ZM575.524 247.1C575.524 251.476 577.119 257.588 580.903 262.658C584.761 267.827 590.915 271.92 599.804 271.92V266.92C592.672 266.92 587.937 263.723 584.91 259.667C581.808 255.512 580.524 250.464 580.524 247.1H575.524ZM599.804 271.92C606.811 271.92 612.697 269.142 616.791 264.28C620.85 259.46 623.004 252.772 623.004 245.12H618.004C618.004 251.868 616.107 257.33 612.966 261.06C609.86 264.748 605.396 266.92 599.804 266.92V271.92ZM623.004 245.12C623.004 237.513 619.977 230.474 615.706 223.938C611.441 217.414 605.788 211.177 600.294 205.201C594.738 199.157 589.362 193.397 585.346 187.625C581.331 181.853 578.904 176.378 578.904 170.96H573.904C573.904 177.872 576.989 184.367 581.242 190.481C585.495 196.594 591.144 202.636 596.613 208.584C602.144 214.601 607.516 220.547 611.52 226.674C615.517 232.789 618.004 238.867 618.004 245.12H623.004ZM578.904 170.96C578.904 162.543 582.29 156.607 587.222 152.718C592.229 148.769 598.983 146.82 605.744 146.82V141.82C598.104 141.82 590.189 144.011 584.126 148.792C577.987 153.633 573.904 161.017 573.904 170.96H578.904Z"
      fill="#2B2B2A"
    />
    <path
      d="M787.485 24.3384C829.568 0.373017 881.389 -1.56045 924.88 20.8534C970.663 44.4608 990.976 99.123 998.185 146.934C998.615 149.751 997.62 150.404 995.201 148.892C903.095 90.9356 810.877 90.8799 718.548 148.725C717.737 149.234 717.395 149.011 717.522 148.056C722.797 108.361 738.098 67.185 766.79 38.2069C769.972 34.9924 776.871 30.3696 787.485 24.3384ZM819.757 29.017C819.757 25.8389 818.495 22.7911 816.247 20.5439C814 18.2967 810.952 17.0342 807.774 17.0342C804.596 17.0342 801.548 18.2967 799.301 20.5439C797.054 22.7911 795.792 25.8389 795.792 29.017C795.792 32.195 797.054 35.2428 799.301 37.49C801.548 39.7372 804.596 40.9997 807.774 40.9997C810.952 40.9997 814 39.7372 816.247 37.49C818.495 35.2428 819.757 32.195 819.757 29.017ZM893.658 36.1779C893.658 31.1324 891.654 26.2935 888.086 22.7257C884.518 19.1579 879.68 17.1536 874.634 17.1536C869.588 17.1536 864.75 19.1579 861.182 22.7257C857.614 26.2935 855.61 31.1324 855.61 36.1779C855.61 41.2235 857.614 46.0624 861.182 49.6302C864.75 53.1979 869.588 55.2023 874.634 55.2023C879.68 55.2023 884.518 53.1979 888.086 49.6302C891.654 46.0624 893.658 41.2235 893.658 36.1779ZM955.744 51.7411C955.744 48.2593 954.361 44.92 951.899 42.4579C949.437 39.9959 946.098 38.6127 942.616 38.6127C939.134 38.6127 935.794 39.9959 933.332 42.4579C930.87 44.92 929.487 48.2593 929.487 51.7411C929.487 55.223 930.87 58.5623 933.332 61.0244C935.794 63.4864 939.134 64.8696 942.616 64.8696C946.098 64.8696 949.437 63.4864 951.899 61.0244C954.361 58.5623 955.744 55.223 955.744 51.7411ZM774.38 67.2089C774.38 64.0435 773.123 61.0078 770.885 58.7696C768.646 56.5313 765.611 55.2739 762.445 55.2739C759.28 55.2739 756.244 56.5313 754.006 58.7696C751.768 61.0078 750.51 64.0435 750.51 67.2089C750.51 70.3742 751.768 73.4099 754.006 75.6482C756.244 77.8864 759.28 79.1438 762.445 79.1438C765.611 79.1438 768.646 77.8864 770.885 75.6482C773.123 73.4099 774.38 70.3742 774.38 67.2089ZM829.305 86.3287C829.305 84.1313 828.872 81.9554 828.031 79.9253C827.19 77.8952 825.958 76.0506 824.404 74.4968C822.85 72.943 821.006 71.7105 818.976 70.8696C816.945 70.0287 814.77 69.5959 812.572 69.5959C810.375 69.5959 808.199 70.0287 806.169 70.8696C804.139 71.7105 802.294 72.943 800.74 74.4968C799.186 76.0506 797.954 77.8952 797.113 79.9253C796.272 81.9554 795.839 84.1313 795.839 86.3287C795.839 90.7665 797.602 95.0226 800.74 98.1606C803.878 101.299 808.134 103.062 812.572 103.062C817.01 103.062 821.266 101.299 824.404 98.1606C827.542 95.0226 829.305 90.7665 829.305 86.3287ZM898.408 83.894C898.408 80.1145 896.907 76.4899 894.235 73.8174C891.562 71.145 887.938 69.6436 884.158 69.6436C880.379 69.6436 876.754 71.145 874.082 73.8174C871.409 76.4899 869.908 80.1145 869.908 83.894C869.908 87.6734 871.409 91.298 874.082 93.9705C876.754 96.643 880.379 98.1443 884.158 98.1443C887.938 98.1443 891.562 96.643 894.235 93.9705C896.907 91.298 898.408 87.6734 898.408 83.894ZM958.155 96.9986C958.155 92.2569 956.271 87.7094 952.918 84.3565C949.566 81.0036 945.018 79.12 940.276 79.12C935.535 79.12 930.987 81.0036 927.634 84.3565C924.281 87.7094 922.398 92.2569 922.398 96.9986C922.398 101.74 924.281 106.288 927.634 109.641C930.987 112.994 935.535 114.877 940.276 114.877C945.018 114.877 949.566 112.994 952.918 109.641C956.271 106.288 958.155 101.74 958.155 96.9986ZM760.034 112.586C760.034 108.8 758.53 105.169 755.854 102.492C753.177 99.8153 749.546 98.3114 745.76 98.3114C741.974 98.3114 738.344 99.8153 735.667 102.492C732.99 105.169 731.486 108.8 731.486 112.586C731.486 114.46 731.855 116.316 732.572 118.048C733.29 119.78 734.341 121.354 735.667 122.679C736.992 124.005 738.566 125.056 740.298 125.773C742.029 126.491 743.886 126.86 745.76 126.86C747.635 126.86 749.491 126.491 751.223 125.773C752.954 125.056 754.528 124.005 755.854 122.679C757.179 121.354 758.23 119.78 758.948 118.048C759.665 116.316 760.034 114.46 760.034 112.586Z"
      fill="#FE453A"
    />
    <path
      d="M962.213 140.561C978.636 149.13 992.504 157.485 1007.35 168.441C1022.41 179.565 1021.72 199.496 1003.22 206.394C995.416 209.307 984.508 206.967 974.912 210.5C974.556 210.628 974.174 210.67 973.799 210.623C973.424 210.576 973.064 210.441 972.751 210.23C972.437 210.018 972.177 209.736 971.993 209.405C971.809 209.075 971.705 208.706 971.689 208.328C971.307 198.279 969.255 192.717 960.709 186.558C898.647 141.969 819.375 141.659 757.17 185.055C749.198 190.608 745.386 198.414 745.736 208.471C745.768 209.362 745.347 209.736 744.471 209.593C735.814 208.177 727.293 207.675 718.907 208.089C715.533 208.264 711.594 206.028 707.091 201.382C701.41 195.478 699.349 189.105 700.909 182.262C703.129 172.69 718.549 160.588 726.975 154.883C797.606 106.976 886.617 101.152 962.213 140.561Z"
      fill="#FE453A"
    />
    <path
      d="M782.948 394.18C782.757 396.153 781.619 397.776 779.535 399.049C770.44 404.587 759.221 393.225 755.593 385.515C750.978 375.696 747.891 366.379 746.332 357.563C746.204 356.847 745.783 356.553 745.067 356.68L742.799 357.11C742.379 357.191 741.943 357.125 741.562 356.921C741.18 356.717 740.876 356.388 740.698 355.988C737.404 348.667 735.773 340.965 735.805 332.882C735.821 332.165 735.495 331.656 734.826 331.354C732.487 330.24 731.349 328.123 731.413 325.004C731.866 304.357 738.622 292.565 746.905 276.381C747.382 275.411 747.087 274.909 746.021 274.878C716.423 273.994 700.43 244.372 716.017 218.95C716.108 218.804 716.165 218.64 716.183 218.468C716.202 218.297 716.182 218.123 716.125 217.959C716.068 217.795 715.976 217.644 715.854 217.519C715.732 217.393 715.584 217.295 715.42 217.232C711.243 215.68 707.018 214.463 703.676 211.694C685.177 196.345 687.946 175.244 705.371 159.729C705.975 159.188 706.318 158.519 706.397 157.724C711.672 110.056 730.339 50.9535 771.658 22.5244C818.514 -9.7239 878.189 -11.7051 928.101 11.9023C974.504 33.8149 997.849 89.2171 1005.94 137.076C1007.01 143.458 1008.07 149.839 1009.14 156.22C1009.21 156.61 1009.36 156.98 1009.58 157.306C1009.8 157.631 1010.09 157.904 1010.43 158.106C1036.28 173.55 1032.46 208.113 1002.55 217.232C1002.31 217.305 1002.1 217.433 1001.92 217.605C1001.74 217.777 1001.6 217.988 1001.52 218.222C1001.44 218.456 1001.41 218.706 1001.44 218.953C1001.47 219.199 1001.56 219.435 1001.69 219.642C1015.39 240.314 1005.13 264.828 982.835 272.992C979.66 274.161 975.077 273.994 971.33 275.116C970.407 275.387 970.232 275.912 970.805 276.692C980.735 290.313 985.946 306.028 986.439 323.835C986.535 327.622 985.063 330.001 982.024 330.972C981.684 331.077 981.386 331.288 981.171 331.575C980.957 331.862 980.838 332.211 980.83 332.571C980.814 336.104 980.814 339.525 980.83 342.835C980.894 350.299 977.902 355.797 971.855 359.329C971.155 359.727 970.717 360.324 970.542 361.12C967.582 374.2 958.464 403.011 939.535 399.431C938.564 399.256 937.84 398.731 937.363 397.855L934.57 392.556C934.499 392.426 934.396 392.317 934.269 392.24C934.142 392.163 933.997 392.121 933.849 392.119C933.701 392.116 933.555 392.153 933.425 392.226C933.296 392.299 933.189 392.405 933.114 392.533C923.781 408.048 906.38 412.154 891.103 419.482C872.723 428.266 853.746 426.285 836.894 415.137C831.762 411.748 826.797 406.353 821.856 401.746C821.718 401.615 821.548 401.522 821.362 401.479C821.177 401.435 820.983 401.441 820.8 401.497C820.618 401.553 820.454 401.657 820.325 401.797C820.196 401.937 820.107 402.109 820.066 402.295C818.841 407.69 815.356 409.942 809.611 409.051C800.031 407.586 791.931 402.407 785.311 393.511C783.975 391.713 783.187 391.936 782.948 394.18ZM787.483 24.3385C776.869 30.3697 769.971 34.9925 766.788 38.207C738.096 67.1851 722.796 108.361 717.521 148.056C717.393 149.011 717.735 149.234 718.547 148.725C810.876 90.88 903.094 90.9357 995.2 148.892C997.619 150.404 998.613 149.751 998.183 146.935C990.975 99.1231 970.661 44.4609 924.879 20.8535C881.388 -1.56038 829.566 0.373085 787.483 24.3385ZM962.211 140.561C886.615 101.152 797.604 106.976 726.973 154.883C718.547 160.588 703.127 172.69 700.907 182.262C699.348 189.105 701.408 195.478 707.089 201.382C711.593 206.029 715.531 208.264 718.905 208.089C727.291 207.676 735.813 208.177 744.47 209.593C745.345 209.736 745.767 209.362 745.735 208.471C745.385 198.414 749.196 190.609 757.169 185.055C819.374 141.659 898.646 141.97 960.708 186.559C969.253 192.717 971.306 198.279 971.688 208.328C971.703 208.706 971.807 209.075 971.992 209.406C972.176 209.736 972.435 210.018 972.749 210.23C973.063 210.441 973.422 210.576 973.797 210.623C974.173 210.67 974.554 210.628 974.91 210.5C984.506 206.968 995.415 209.307 1003.22 206.395C1021.72 199.496 1022.41 179.565 1007.35 168.441C992.502 157.485 978.634 149.131 962.211 140.561ZM780.561 230.766C776.814 244.921 780.991 260.293 797.628 262.179C803.261 262.799 806.794 259.863 808.131 254.206C811.353 240.529 816.605 233.535 829.996 228.713C830.743 228.448 831.391 227.975 831.858 227.352C836.369 221.29 838.064 214.176 845.225 209.331C848.646 206.991 852.163 205.615 855.775 205.201C870.575 203.53 878.667 212.84 884.252 225.156C884.579 225.873 885.101 226.478 885.756 226.899C893.203 231.649 900.77 233.63 905.019 243.083C906.857 247.165 907.812 252.989 909.554 257.954C909.802 258.665 910.289 259.278 910.939 259.696C914.726 262.099 917.781 263.006 920.105 262.417C933.011 259.155 938.978 250.912 938.007 237.688C937.816 235.277 937.1 234.418 935.954 232.437C935.62 231.848 935.716 231.347 936.241 230.933C940.331 227.687 942.686 222.388 943.306 215.036C944.214 204.342 943.187 185.198 933.09 180.543C886.114 158.87 836.846 155.91 789.321 177.512C781.301 181.188 778.819 183.814 776.097 191.882C771.737 204.867 772.294 216.969 777.768 228.188C778.007 228.665 778.381 228.976 778.89 229.119C779.097 229.167 779.304 229.206 779.511 229.238C780.45 229.35 780.8 229.859 780.561 230.766ZM784.404 335.985C778.747 358.78 784.643 393.272 810.184 401.436C810.425 401.51 810.679 401.527 810.928 401.486C811.177 401.444 811.412 401.346 811.616 401.197C811.82 401.049 811.986 400.856 812.102 400.632C812.218 400.408 812.281 400.16 812.284 399.908C812.404 394.323 812.547 389.406 810.566 383.796C807.16 374.105 805.744 365.361 806.317 357.563C807.033 347.983 811.497 339.836 819.708 333.12C820.125 332.782 820.653 332.61 821.189 332.638C821.725 332.666 822.232 332.891 822.612 333.271C822.992 333.651 823.218 334.158 823.246 334.694C823.273 335.231 823.102 335.758 822.763 336.176C815.364 345.278 812.984 356.29 815.626 369.212C821.88 399.956 850.643 422.561 882.438 414.23C882.601 414.183 882.744 414.083 882.844 413.946C882.944 413.808 882.995 413.642 882.99 413.472C882.984 413.302 882.922 413.139 882.814 413.008C882.705 412.878 882.556 412.787 882.39 412.75C864.225 409.456 847.898 398.667 851.001 377.733C851.113 377.017 851.526 376.611 852.243 376.516L852.983 376.42C853.396 376.357 853.683 376.516 853.842 376.898C862.451 397.076 877.958 406.258 900.364 404.444C902.354 404.285 903.611 403.242 904.136 401.317C906.594 392.365 896.665 386.517 899.195 376.253C902.839 361.549 901.184 348.031 894.23 335.698C894.024 335.338 893.946 334.918 894.008 334.508C894.071 334.097 894.271 333.72 894.575 333.438C894.88 333.155 895.271 332.985 895.685 332.953C896.099 332.921 896.512 333.031 896.856 333.263C905.56 339.088 910.079 347.108 910.414 357.324C910.676 365.369 908.361 375.012 911.75 382.245C913.692 386.398 915.896 390.512 918.362 394.585C918.887 395.461 919.484 395.516 920.153 394.752C931.053 382.324 936.169 367.827 935.501 351.261C935.286 346.129 933.782 340.233 933.09 334.672C933.035 334.317 933.102 333.955 933.28 333.644C933.459 333.333 933.738 333.092 934.072 332.961C934.406 332.83 934.774 332.817 935.117 332.924C935.459 333.032 935.755 333.252 935.954 333.55C950.658 354.245 939.535 368.877 941.659 390.885C941.68 391.108 941.759 391.322 941.889 391.504C942.018 391.686 942.194 391.831 942.398 391.923C942.602 392.015 942.826 392.052 943.049 392.029C943.271 392.006 943.484 391.924 943.664 391.793C948.184 388.626 951.685 384.711 954.167 380.049C964.129 361.366 965.227 343.615 957.461 326.795C954.756 320.923 955.958 319.968 961.066 323.93C967.367 328.832 970.741 335.38 971.187 343.575C971.187 343.651 971.217 343.724 971.27 343.778C971.324 343.832 971.397 343.862 971.473 343.862C971.549 343.862 971.622 343.832 971.676 343.778C971.729 343.724 971.759 343.651 971.759 343.575C972.73 332.229 970.47 321.647 964.98 311.828C964.153 310.348 964.551 309.839 966.174 310.301C969.325 311.176 972.046 312.839 974.337 315.289C974.501 315.474 974.722 315.599 974.964 315.643C975.207 315.687 975.458 315.648 975.676 315.532C975.894 315.416 976.066 315.23 976.165 315.004C976.265 314.778 976.285 314.526 976.223 314.287C972.181 296.607 963.739 280.813 950.897 266.905C948.224 264.017 945.956 259.911 948.152 256.617C958.941 240.513 963.604 223.549 962.14 205.726C961.535 198.406 957.342 193.553 949.56 191.166C948.781 190.927 948.518 191.189 948.773 191.953C953.69 207.103 952.528 221.671 945.288 235.659C944.922 236.375 944.755 237.139 944.786 237.951C945.614 260.532 934.825 270.7 912.419 268.457C911.559 268.361 911.074 268.743 910.963 269.602C910.39 274.233 908.011 276.787 903.826 277.265C887.069 279.15 873.224 271.13 859.547 261.057C858.847 260.532 858.138 260.532 857.422 261.057C843.745 271.082 832.216 277.718 815.316 277.384C809.539 277.288 805.72 275.331 806.293 268.982C806.372 268.011 805.927 267.581 804.956 267.693C800.206 268.242 795.193 269.125 790.825 268.289C768.865 264.112 774.546 245.541 768.578 229.071C763.964 216.309 764.035 203.395 768.793 190.33C769.127 189.391 768.833 189.097 767.91 189.447C752.562 195.08 753.135 207.278 754.949 222.101C756.588 235.341 761.258 247.125 768.96 257.452C769.585 258.302 769.9 259.338 769.852 260.386C769.804 261.434 769.396 262.43 768.698 263.205C755.06 278.291 745.814 295.684 740.961 315.385C740.891 315.623 740.908 315.878 741.008 316.105C741.108 316.332 741.286 316.516 741.509 316.625C741.732 316.734 741.986 316.76 742.227 316.699C742.467 316.638 742.678 316.494 742.823 316.292C745.082 313.443 748.003 311.653 751.583 310.921C752.745 310.682 753.039 311.08 752.466 312.115C747.04 321.854 744.486 332.348 744.804 343.599C744.931 348.66 745.44 348.699 746.332 343.718C747.835 335.269 749.626 327.893 758.458 323.119C758.753 322.967 759.09 322.916 759.418 322.973C759.745 323.031 760.044 323.193 760.271 323.436C760.498 323.679 760.639 323.989 760.674 324.319C760.708 324.65 760.634 324.982 760.463 325.267C757.041 330.805 755.227 337.083 755.02 344.1C754.615 357.849 759.556 386.684 774.236 392.938C775.159 393.336 775.66 393.034 775.739 392.031C776.424 384.059 776.265 376.134 775.262 368.257C773.376 353.123 772.517 345.198 781.778 334.624C782.005 334.372 782.308 334.203 782.641 334.142C782.974 334.082 783.317 334.133 783.618 334.289C783.918 334.444 784.158 334.695 784.301 335.002C784.443 335.309 784.479 335.655 784.404 335.985ZM876.111 227.728C876.001 225.703 875.445 223.722 874.474 221.898C873.503 220.074 872.137 218.443 870.452 217.098C868.768 215.753 866.799 214.721 864.657 214.059C862.516 213.398 860.244 213.121 857.972 213.244C853.382 213.493 849.069 215.356 845.98 218.424C842.892 221.491 841.281 225.512 841.503 229.602C841.612 231.628 842.168 233.609 843.139 235.433C844.11 237.256 845.477 238.887 847.161 240.232C848.846 241.577 850.815 242.61 852.956 243.271C855.098 243.933 857.37 244.21 859.642 244.086C864.231 243.838 868.545 241.975 871.633 238.907C874.722 235.839 876.333 231.818 876.111 227.728ZM731.27 234.513C735.542 228.665 742.178 232.461 747.549 233.678C748.52 233.901 748.918 233.527 748.742 232.556L746.737 220.669C746.61 219.873 746.149 219.348 745.353 219.093C709.095 207.373 712.961 274.949 753.302 263.468C757.073 262.402 758.275 260.309 756.906 257.19C752.037 245.995 746.236 233.821 731.843 235.492C730.888 235.604 730.697 235.277 731.27 234.513ZM987.8 235.444C987.867 235.569 987.898 235.711 987.887 235.852C987.876 235.994 987.825 236.129 987.739 236.242C987.654 236.355 987.538 236.442 987.405 236.491C987.271 236.54 987.127 236.549 986.988 236.519C970.972 232.58 964.575 246.95 959.49 258.765C959.188 259.481 959.307 260.11 959.848 260.651C970.065 270.915 988.254 261.749 993.6 251.771C1001.53 236.972 998.112 225.785 983.36 218.21C981.26 217.144 977.671 217.454 972.595 219.141C972.229 219.265 971.899 219.478 971.637 219.762C971.374 220.045 971.186 220.39 971.091 220.764L968.251 232.365C968.202 232.574 968.209 232.791 968.269 232.996C968.33 233.202 968.442 233.388 968.596 233.537C968.75 233.686 968.939 233.793 969.147 233.847C969.354 233.901 969.571 233.9 969.778 233.845C975.602 232.198 983.933 228.57 987.8 235.444ZM816.629 268.671C830.784 268.266 843.267 262.871 853.484 253.18C854.232 252.464 854.136 251.899 853.197 251.485C845.814 248.207 840.141 243.019 836.178 235.922C836.056 235.705 835.893 235.514 835.697 235.361C835.502 235.207 835.278 235.094 835.038 235.027C834.799 234.961 834.548 234.942 834.301 234.973C834.055 235.004 833.816 235.083 833.6 235.206C821.013 242.271 815.244 253.323 816.294 268.361C816.31 268.568 816.422 268.671 816.629 268.671ZM864.034 251.724C863.949 251.765 863.875 251.826 863.818 251.901C863.761 251.977 863.722 252.065 863.706 252.158C863.69 252.252 863.696 252.347 863.724 252.438C863.752 252.528 863.801 252.611 863.867 252.678C873.781 262.577 885.684 267.915 899.577 268.695C900.834 268.775 901.423 268.178 901.343 266.905C900.364 251.175 897.07 243.536 883.059 235.588C882.358 235.19 881.802 235.333 881.388 236.017C877.187 243.051 871.402 248.286 864.034 251.724Z"
      fill="#2B2B2A"
    />
    <path
      d="M819.756 29.0172C819.756 32.1952 818.493 35.243 816.246 37.4902C813.999 39.7374 810.951 40.9999 807.773 40.9999C804.595 40.9999 801.547 39.7374 799.3 37.4902C797.053 35.243 795.79 32.1952 795.79 29.0172C795.79 25.8392 797.053 22.7913 799.3 20.5441C801.547 18.2969 804.595 17.0345 807.773 17.0345C810.951 17.0345 813.999 18.2969 816.246 20.5441C818.493 22.7913 819.756 25.8392 819.756 29.0172ZM812.666 29.041C812.666 27.7432 812.151 26.4986 811.233 25.5809C810.315 24.6632 809.071 24.1477 807.773 24.1477C806.475 24.1477 805.231 24.6632 804.313 25.5809C803.395 26.4986 802.88 27.7432 802.88 29.041C802.88 30.3388 803.395 31.5835 804.313 32.5012C805.231 33.4188 806.475 33.9344 807.773 33.9344C809.071 33.9344 810.315 33.4188 811.233 32.5012C812.151 31.5835 812.666 30.3388 812.666 29.041Z"
      fill="#2B2B2A"
    />
    <path
      d="M893.655 36.1779C893.655 41.2235 891.651 46.0624 888.083 49.6302C884.516 53.1979 879.677 55.2023 874.631 55.2023C869.585 55.2023 864.747 53.1979 861.179 49.6302C857.611 46.0624 855.607 41.2235 855.607 36.1779C855.607 31.1324 857.611 26.2935 861.179 22.7257C864.747 19.1579 869.585 17.1536 874.631 17.1536C879.677 17.1536 884.516 19.1579 888.083 22.7257C891.651 26.2935 893.655 31.1324 893.655 36.1779ZM886.566 36.2018C886.566 33.0301 885.306 29.9883 883.063 27.7456C880.821 25.5029 877.779 24.243 874.607 24.243C871.435 24.243 868.394 25.5029 866.151 27.7456C863.908 29.9883 862.648 33.0301 862.648 36.2018C862.648 39.3735 863.908 42.4153 866.151 44.658C868.394 46.9007 871.435 48.1607 874.607 48.1607C877.779 48.1607 880.821 46.9007 883.063 44.658C885.306 42.4153 886.566 39.3735 886.566 36.2018Z"
      fill="#2B2B2A"
    />
    <path
      d="M955.742 51.7413C955.742 55.2232 954.359 58.5624 951.897 61.0245C949.435 63.4866 946.096 64.8697 942.614 64.8697C939.132 64.8697 935.793 63.4866 933.331 61.0245C930.868 58.5624 929.485 55.2232 929.485 51.7413C929.485 48.2594 930.868 44.9201 933.331 42.458C935.793 39.996 939.132 38.6128 942.614 38.6128C946.096 38.6128 949.435 39.996 951.897 42.458C954.359 44.9201 955.742 48.2594 955.742 51.7413ZM948.653 51.6935C948.653 50.0982 948.019 48.5682 946.891 47.4401C945.763 46.312 944.233 45.6783 942.638 45.6783C941.042 45.6783 939.512 46.312 938.384 47.4401C937.256 48.5682 936.622 50.0982 936.622 51.6935C936.622 52.4835 936.778 53.2657 937.08 53.9955C937.383 54.7253 937.826 55.3884 938.384 55.9469C938.943 56.5055 939.606 56.9486 940.336 57.2509C941.066 57.5532 941.848 57.7088 942.638 57.7088C943.428 57.7088 944.21 57.5532 944.94 57.2509C945.669 56.9486 946.333 56.5055 946.891 55.9469C947.45 55.3884 947.893 54.7253 948.195 53.9955C948.497 53.2657 948.653 52.4835 948.653 51.6935Z"
      fill="#2B2B2A"
    />
    <path
      d="M774.381 67.209C774.381 70.3743 773.123 73.41 770.885 75.6483C768.647 77.8865 765.611 79.1439 762.446 79.1439C759.28 79.1439 756.245 77.8865 754.006 75.6483C751.768 73.41 750.511 70.3743 750.511 67.209C750.511 64.0436 751.768 61.0079 754.006 58.7697C756.245 56.5314 759.28 55.274 762.446 55.274C765.611 55.274 768.647 56.5314 770.885 58.7697C773.123 61.0079 774.381 64.0436 774.381 67.209ZM767.315 67.2567C767.315 66.6141 767.189 65.9778 766.943 65.3841C766.697 64.7904 766.336 64.251 765.882 63.7966C765.428 63.3422 764.888 62.9818 764.294 62.7359C763.701 62.4899 763.064 62.3634 762.422 62.3634C761.779 62.3634 761.143 62.4899 760.549 62.7359C759.956 62.9818 759.416 63.3422 758.962 63.7966C758.507 64.251 758.147 64.7904 757.901 65.3841C757.655 65.9778 757.528 66.6141 757.528 67.2567C757.528 68.5545 758.044 69.7991 758.962 70.7168C759.879 71.6345 761.124 72.15 762.422 72.15C763.72 72.15 764.964 71.6345 765.882 70.7168C766.8 69.7991 767.315 68.5545 767.315 67.2567Z"
      fill="#2B2B2A"
    />
    <path
      d="M829.306 86.3286C829.306 90.7665 827.543 95.0225 824.405 98.1605C821.267 101.299 817.011 103.061 812.573 103.061C808.135 103.061 803.879 101.299 800.741 98.1605C797.603 95.0225 795.84 90.7665 795.84 86.3286C795.84 84.1312 796.273 81.9554 797.114 79.9253C797.955 77.8951 799.187 76.0505 800.741 74.4967C802.295 72.9429 804.139 71.7104 806.17 70.8695C808.2 70.0286 810.376 69.5958 812.573 69.5958C814.77 69.5958 816.946 70.0286 818.976 70.8695C821.006 71.7104 822.851 72.9429 824.405 74.4967C825.959 76.0505 827.191 77.8951 828.032 79.9253C828.873 81.9554 829.306 84.1312 829.306 86.3286ZM822.097 86.2809C822.097 83.7486 821.091 81.32 819.3 79.5295C817.51 77.7389 815.081 76.7329 812.549 76.7329C810.017 76.7329 807.588 77.7389 805.798 79.5295C804.007 81.32 803.001 83.7486 803.001 86.2809C803.001 88.8132 804.007 91.2417 805.798 93.0323C807.588 94.8229 810.017 95.8289 812.549 95.8289C815.081 95.8289 817.51 94.8229 819.3 93.0323C821.091 91.2417 822.097 88.8132 822.097 86.2809Z"
      fill="#2B2B2A"
    />
    <path
      d="M898.406 83.8942C898.406 87.6737 896.905 91.2983 894.232 93.9708C891.56 96.6432 887.935 98.1446 884.156 98.1446C880.376 98.1446 876.752 96.6432 874.079 93.9708C871.407 91.2983 869.906 87.6737 869.906 83.8942C869.906 80.1148 871.407 76.4902 874.079 73.8177C876.752 71.1452 880.376 69.6439 884.156 69.6439C887.935 69.6439 891.56 71.1452 894.232 73.8177C896.905 76.4902 898.406 80.1148 898.406 83.8942ZM891.341 83.942C891.341 82.0491 890.589 80.2337 889.25 78.8953C887.912 77.5568 886.097 76.8048 884.204 76.8048C882.311 76.8048 880.495 77.5568 879.157 78.8953C877.818 80.2337 877.067 82.0491 877.067 83.942C877.067 85.8348 877.818 87.6502 879.157 88.9887C880.495 90.3271 882.311 91.0791 884.204 91.0791C886.097 91.0791 887.912 90.3271 889.25 88.9887C890.589 87.6502 891.341 85.8348 891.341 83.942Z"
      fill="#2B2B2A"
    />
    <path
      d="M958.153 96.9987C958.153 101.74 956.269 106.288 952.916 109.641C949.564 112.994 945.016 114.877 940.274 114.877C935.533 114.877 930.985 112.994 927.632 109.641C924.279 106.288 922.396 101.74 922.396 96.9987C922.396 92.257 924.279 87.7095 927.632 84.3566C930.985 81.0037 935.533 79.1201 940.274 79.1201C945.016 79.1201 949.564 81.0037 952.916 84.3566C956.269 87.7095 958.153 92.257 958.153 96.9987ZM950.92 97.0464C950.92 94.2166 949.796 91.5027 947.795 89.5017C945.794 87.5007 943.08 86.3766 940.25 86.3766C937.421 86.3766 934.707 87.5007 932.706 89.5017C930.705 91.5027 929.581 94.2166 929.581 97.0464C929.581 99.8763 930.705 102.59 932.706 104.591C934.707 106.592 937.421 107.716 940.25 107.716C943.08 107.716 945.794 106.592 947.795 104.591C949.796 102.59 950.92 99.8763 950.92 97.0464Z"
      fill="#2B2B2A"
    />
    <path
      d="M760.033 112.586C760.033 114.46 759.664 116.316 758.946 118.048C758.229 119.78 757.177 121.354 755.852 122.679C754.527 124.005 752.953 125.056 751.221 125.773C749.489 126.491 747.633 126.86 745.759 126.86C743.884 126.86 742.028 126.491 740.296 125.773C738.564 125.056 736.991 124.005 735.665 122.679C734.34 121.354 733.288 119.78 732.571 118.048C731.854 116.316 731.484 114.46 731.484 112.586C731.484 108.8 732.988 105.169 735.665 102.492C738.342 99.8154 741.973 98.3115 745.759 98.3115C749.544 98.3115 753.175 99.8154 755.852 102.492C758.529 105.169 760.033 108.8 760.033 112.586ZM752.848 112.61C752.848 110.723 752.099 108.914 750.765 107.58C749.431 106.246 747.621 105.496 745.735 105.496C743.848 105.496 742.039 106.246 740.705 107.58C739.371 108.914 738.621 110.723 738.621 112.61C738.621 114.496 739.371 116.305 740.705 117.639C742.039 118.973 743.848 119.723 745.735 119.723C747.621 119.723 749.431 118.973 750.765 117.639C752.099 116.305 752.848 114.496 752.848 112.61Z"
      fill="#2B2B2A"
    />
    <path
      d="M831.476 186.535C828.135 182.453 819.422 182.62 814.958 183.766C810.256 184.984 806.365 188.636 801.973 191.214C801.644 191.415 801.257 191.5 800.873 191.455C800.49 191.409 800.133 191.236 799.861 190.963C799.588 190.69 799.415 190.333 799.369 189.95C799.324 189.567 799.409 189.18 799.61 188.85C803.843 181.658 809.54 177.727 816.701 177.059C824.292 176.366 832.527 177.369 836.513 184.506C836.78 184.975 836.89 185.516 836.827 186.052C836.765 186.588 836.532 187.089 836.165 187.484C835.797 187.878 835.313 188.145 834.783 188.244C834.253 188.344 833.705 188.272 833.219 188.039C832.662 187.768 832.081 187.267 831.476 186.535Z"
      fill="#2B2B2A"
    />
    <path
      d="M915.952 191.715C906.117 184.769 895.591 178.873 884.634 187.753C884.213 188.09 883.686 188.266 883.147 188.25C882.608 188.233 882.093 188.025 881.693 187.663C881.294 187.301 881.036 186.808 880.967 186.273C880.898 185.739 881.022 185.197 881.316 184.745C890.172 171.402 912.729 175.292 918.267 189.925C918.385 190.231 918.401 190.568 918.312 190.885C918.224 191.201 918.036 191.48 917.776 191.681C917.516 191.883 917.198 191.994 916.869 192C916.541 192.006 916.219 191.906 915.952 191.715Z"
      fill="#2B2B2A"
    />
    <path
      d="M825.867 216.086C831.351 216.086 835.797 211.64 835.797 206.156C835.797 200.671 831.351 196.226 825.867 196.226C820.383 196.226 815.937 200.671 815.937 206.156C815.937 211.64 820.383 216.086 825.867 216.086Z"
      fill="#2B2B2A"
    />
    <path
      d="M891.819 216.206C897.342 216.206 901.82 211.728 901.82 206.204C901.82 200.68 897.342 196.203 891.819 196.203C886.295 196.203 881.817 200.68 881.817 206.204C881.817 211.728 886.295 216.206 891.819 216.206Z"
      fill="#2B2B2A"
    />
    <path
      d="M807.776 33.934C810.478 33.934 812.669 31.7432 812.669 29.0407C812.669 26.3382 810.478 24.1473 807.776 24.1473C805.073 24.1473 802.883 26.3382 802.883 29.0407C802.883 31.7432 805.073 33.934 807.776 33.934Z"
      fill="white"
    />
    <path
      d="M874.612 48.1606C881.216 48.1606 886.571 42.8065 886.571 36.2018C886.571 29.5971 881.216 24.243 874.612 24.243C868.007 24.243 862.653 29.5971 862.653 36.2018C862.653 42.8065 868.007 48.1606 874.612 48.1606Z"
      fill="white"
    />
    <path
      d="M942.641 57.7086C945.963 57.7086 948.656 55.0154 948.656 51.6933C948.656 48.3712 945.963 45.6781 942.641 45.6781C939.319 45.6781 936.626 48.3712 936.626 51.6933C936.626 55.0154 939.319 57.7086 942.641 57.7086Z"
      fill="white"
    />
    <path
      d="M762.424 72.1495C765.126 72.1495 767.317 69.9587 767.317 67.2562C767.317 64.5537 765.126 62.3629 762.424 62.3629C759.721 62.3629 757.53 64.5537 757.53 67.2562C757.53 69.9587 759.721 72.1495 762.424 72.1495Z"
      fill="white"
    />
    <path
      d="M812.55 95.8287C817.823 95.8287 822.098 91.5539 822.098 86.2807C822.098 81.0075 817.823 76.7327 812.55 76.7327C807.276 76.7327 803.002 81.0075 803.002 86.2807C803.002 91.5539 807.276 95.8287 812.55 95.8287Z"
      fill="white"
    />
    <path
      d="M884.206 91.0785C888.148 91.0785 891.343 87.8832 891.343 83.9414C891.343 79.9997 888.148 76.8043 884.206 76.8043C880.264 76.8043 877.069 79.9997 877.069 83.9414C877.069 87.8832 880.264 91.0785 884.206 91.0785Z"
      fill="white"
    />
    <path
      d="M940.254 107.716C946.147 107.716 950.924 102.939 950.924 97.0465C950.924 91.1537 946.147 86.3767 940.254 86.3767C934.361 86.3767 929.584 91.1537 929.584 97.0465C929.584 102.939 934.361 107.716 940.254 107.716Z"
      fill="white"
    />
    <path
      d="M745.738 119.722C749.667 119.722 752.851 116.538 752.851 112.609C752.851 108.681 749.667 105.496 745.738 105.496C741.809 105.496 738.625 108.681 738.625 112.609C738.625 116.538 741.809 119.722 745.738 119.722Z"
      fill="white"
    />
    <path
      d="M784.407 335.984C784.482 335.655 784.446 335.309 784.304 335.002C784.161 334.695 783.921 334.444 783.621 334.289C783.32 334.133 782.977 334.081 782.644 334.142C782.311 334.203 782.008 334.372 781.782 334.624C772.52 345.198 773.379 353.123 775.265 368.257C776.268 376.134 776.427 384.059 775.742 392.031C775.663 393.034 775.162 393.336 774.239 392.938C759.559 386.684 754.618 357.849 755.023 344.1C755.23 337.082 757.044 330.805 760.466 325.267C760.637 324.982 760.711 324.65 760.677 324.319C760.642 323.989 760.501 323.679 760.274 323.436C760.047 323.193 759.748 323.03 759.421 322.973C759.093 322.916 758.756 322.967 758.461 323.118C749.629 327.892 747.838 335.268 746.335 343.718C745.444 348.699 744.934 348.659 744.807 343.599C744.489 332.348 747.043 321.853 752.469 312.114C753.042 311.08 752.748 310.682 751.586 310.921C748.006 311.653 745.085 313.443 742.826 316.292C742.681 316.493 742.47 316.638 742.23 316.699C741.989 316.76 741.735 316.733 741.512 316.625C741.289 316.516 741.111 316.332 741.011 316.105C740.911 315.878 740.894 315.623 740.964 315.385C745.817 295.684 755.063 278.291 768.701 263.205C769.399 262.43 769.807 261.434 769.855 260.386C769.903 259.338 769.588 258.302 768.963 257.452C761.261 247.125 756.591 235.341 754.952 222.101C753.138 207.278 752.565 195.08 767.913 189.447C768.836 189.097 769.13 189.391 768.796 190.33C764.038 203.395 763.967 216.308 768.581 229.071C774.549 245.541 768.868 264.112 790.828 268.289C795.196 269.125 800.209 268.241 804.959 267.692C805.93 267.581 806.376 268.011 806.296 268.981C805.723 275.331 809.542 277.288 815.319 277.384C832.219 277.718 843.748 271.082 857.425 261.057C858.142 260.531 858.85 260.531 859.55 261.057C873.227 271.13 887.072 279.15 903.829 277.264C908.014 276.787 910.393 274.233 910.966 269.602C911.077 268.743 911.562 268.361 912.422 268.456C934.828 270.7 945.617 260.532 944.789 237.951C944.758 237.139 944.925 236.375 945.291 235.659C952.531 221.671 953.693 207.103 948.776 191.953C948.521 191.189 948.784 190.927 949.563 191.165C957.345 193.552 961.538 198.406 962.143 205.726C963.607 223.549 958.944 240.513 948.155 256.617C945.959 259.911 948.227 264.016 950.9 266.905C963.742 280.813 972.184 296.607 976.226 314.287C976.288 314.525 976.268 314.778 976.168 315.004C976.069 315.23 975.897 315.416 975.679 315.532C975.461 315.647 975.21 315.687 974.967 315.643C974.725 315.599 974.504 315.474 974.34 315.289C972.049 312.839 969.328 311.176 966.177 310.3C964.554 309.839 964.156 310.348 964.983 311.828C970.473 321.647 972.733 332.229 971.762 343.575C971.762 343.651 971.732 343.724 971.679 343.778C971.625 343.831 971.552 343.861 971.476 343.861C971.4 343.861 971.327 343.831 971.273 343.778C971.22 343.724 971.19 343.651 971.19 343.575C970.744 335.38 967.37 328.831 961.069 323.93C955.961 319.968 954.759 320.922 957.464 326.794C965.23 343.615 964.132 361.366 954.17 380.048C951.688 384.711 948.187 388.626 943.668 391.792C943.487 391.924 943.274 392.006 943.052 392.028C942.829 392.051 942.605 392.015 942.401 391.923C942.197 391.83 942.021 391.686 941.892 391.504C941.762 391.321 941.683 391.108 941.662 390.885C939.538 368.877 950.661 354.245 935.958 333.55C935.758 333.252 935.462 333.031 935.12 332.924C934.778 332.817 934.409 332.83 934.075 332.961C933.741 333.092 933.462 333.333 933.283 333.644C933.105 333.955 933.038 334.317 933.093 334.672C933.785 340.233 935.289 346.129 935.504 351.261C936.172 367.827 931.056 382.324 920.156 394.752C919.487 395.516 918.891 395.46 918.365 394.585C915.899 390.511 913.695 386.398 911.753 382.244C908.364 375.012 910.679 365.368 910.417 357.324C910.083 347.108 905.563 339.087 896.859 333.263C896.515 333.03 896.102 332.921 895.688 332.953C895.274 332.984 894.883 333.155 894.579 333.438C894.274 333.72 894.074 334.097 894.011 334.507C893.949 334.918 894.027 335.338 894.233 335.698C901.187 348.031 902.842 361.549 899.198 376.253C896.668 386.517 906.597 392.365 904.139 401.316C903.614 403.242 902.357 404.284 900.367 404.443C877.961 406.258 862.454 397.076 853.845 376.897C853.686 376.516 853.399 376.356 852.986 376.42L852.246 376.516C851.53 376.611 851.116 377.017 851.004 377.733C847.901 398.667 864.228 409.456 882.393 412.75C882.559 412.787 882.708 412.877 882.817 413.008C882.925 413.139 882.987 413.302 882.993 413.472C882.998 413.641 882.947 413.808 882.847 413.945C882.747 414.083 882.604 414.183 882.441 414.23C850.646 422.561 821.883 399.956 815.629 369.211C812.988 356.29 815.367 345.278 822.766 336.175C823.105 335.758 823.276 335.231 823.249 334.694C823.221 334.158 822.995 333.651 822.615 333.271C822.235 332.891 821.728 332.666 821.192 332.638C820.656 332.61 820.128 332.782 819.711 333.12C811.5 339.835 807.036 347.983 806.32 357.563C805.747 365.36 807.163 374.105 810.569 383.796C812.55 389.405 812.407 394.323 812.287 399.908C812.284 400.16 812.221 400.408 812.105 400.632C811.989 400.855 811.823 401.049 811.619 401.197C811.415 401.345 811.18 401.444 810.931 401.486C810.682 401.527 810.428 401.51 810.187 401.436C784.646 393.272 778.75 358.78 784.407 335.984Z"
      fill="white"
    />
    <path
      d="M853.487 253.179C843.271 262.87 830.787 268.265 816.632 268.671C816.425 268.671 816.314 268.567 816.298 268.36C815.247 253.322 821.016 242.27 833.603 235.205C833.819 235.082 834.058 235.003 834.304 234.972C834.551 234.942 834.802 234.96 835.041 235.027C835.281 235.093 835.505 235.206 835.701 235.36C835.896 235.513 836.06 235.704 836.181 235.921C840.144 243.018 845.817 248.206 853.201 251.484C854.139 251.898 854.235 252.463 853.487 253.179Z"
      fill="white"
    />
    <path
      d="M864.038 251.723C871.406 248.286 877.19 243.05 881.391 236.017C881.805 235.332 882.362 235.189 883.062 235.587C897.074 243.536 900.368 251.174 901.347 266.904C901.426 268.177 900.837 268.774 899.58 268.695C885.688 267.915 873.785 262.576 863.871 252.678C863.804 252.61 863.755 252.528 863.727 252.437C863.699 252.347 863.693 252.251 863.709 252.158C863.726 252.064 863.764 251.976 863.821 251.901C863.878 251.825 863.952 251.764 864.038 251.723Z"
      fill="white"
    />
    <path
      d="M779.513 229.238C779.306 229.206 779.099 229.166 778.892 229.119C778.383 228.975 778.009 228.665 777.77 228.188C772.296 216.969 771.739 204.867 776.099 191.881C778.821 183.813 781.303 181.188 789.323 177.512C836.848 155.909 886.116 158.869 933.092 180.543C943.189 185.198 944.216 204.341 943.308 215.035C942.688 222.387 940.333 227.686 936.243 230.933C935.718 231.346 935.622 231.848 935.957 232.436C937.102 234.418 937.818 235.277 938.009 237.688C938.98 250.912 933.013 259.155 920.107 262.417C917.784 263.006 914.728 262.099 910.941 259.696C910.291 259.278 909.804 258.664 909.556 257.953C907.814 252.988 906.859 247.164 905.021 243.082C900.772 233.63 893.205 231.649 885.758 226.899C885.103 226.478 884.581 225.873 884.254 225.156C878.669 212.839 870.577 203.53 855.777 205.201C852.165 205.615 848.648 206.991 845.227 209.33C838.066 214.176 836.371 221.289 831.86 227.352C831.393 227.974 830.745 228.448 829.998 228.713C816.607 233.534 811.355 240.528 808.133 254.206C806.796 259.863 803.263 262.799 797.63 262.178C780.993 260.293 776.816 244.92 780.563 230.766C780.802 229.858 780.452 229.349 779.513 229.238ZM831.478 186.535C832.082 187.267 832.663 187.768 833.22 188.038C833.706 188.272 834.254 188.344 834.784 188.244C835.314 188.144 835.798 187.877 836.166 187.483C836.534 187.089 836.766 186.587 836.829 186.051C836.891 185.516 836.781 184.974 836.514 184.506C832.528 177.368 824.293 176.366 816.702 177.058C809.541 177.727 803.844 181.657 799.611 188.85C799.41 189.179 799.325 189.566 799.37 189.95C799.416 190.333 799.589 190.69 799.862 190.963C800.135 191.235 800.492 191.409 800.875 191.454C801.258 191.499 801.645 191.415 801.975 191.213C806.367 188.635 810.257 184.983 814.96 183.766C819.423 182.62 828.136 182.453 831.478 186.535ZM884.636 187.752C895.592 178.872 906.119 184.768 915.954 191.714C916.221 191.906 916.542 192.006 916.871 192C917.2 191.994 917.517 191.882 917.777 191.681C918.037 191.48 918.226 191.2 918.314 190.884C918.403 190.567 918.387 190.231 918.269 189.924C912.731 175.292 890.174 171.401 881.318 184.744C881.024 185.196 880.9 185.738 880.969 186.273C881.038 186.808 881.296 187.3 881.695 187.662C882.095 188.025 882.61 188.233 883.149 188.249C883.688 188.265 884.215 188.089 884.636 187.752ZM835.798 206.156C835.798 203.522 834.752 200.996 832.89 199.134C831.028 197.272 828.502 196.226 825.868 196.226C823.235 196.226 820.709 197.272 818.847 199.134C816.985 200.996 815.938 203.522 815.938 206.156C815.938 207.46 816.195 208.751 816.694 209.956C817.193 211.16 817.925 212.255 818.847 213.177C819.769 214.099 820.864 214.831 822.068 215.33C823.273 215.829 824.564 216.086 825.868 216.086C828.502 216.086 831.028 215.039 832.89 213.177C834.752 211.315 835.798 208.789 835.798 206.156ZM901.823 206.203C901.823 203.551 900.769 201.007 898.893 199.131C897.017 197.256 894.474 196.202 891.821 196.202C889.168 196.202 886.625 197.256 884.749 199.131C882.873 201.007 881.82 203.551 881.82 206.203C881.82 208.856 882.873 211.4 884.749 213.276C886.625 215.151 889.168 216.205 891.821 216.205C894.474 216.205 897.017 215.151 898.893 213.276C900.769 211.4 901.823 208.856 901.823 206.203Z"
      fill="#FADDB3"
    />
    <path
      d="M859.644 244.086C869.2 243.569 876.574 236.245 876.113 227.728C875.651 219.211 867.53 212.726 857.973 213.244C848.416 213.761 841.043 221.085 841.504 229.602C841.965 238.119 850.087 244.604 859.644 244.086Z"
      fill="#FADDB3"
    />
    <path
      d="M731.845 235.492C746.239 233.821 752.039 245.995 756.908 257.19C758.277 260.309 757.076 262.402 753.304 263.468C712.964 274.949 709.097 207.373 745.355 219.093C746.151 219.348 746.613 219.873 746.74 220.669L748.745 232.556C748.92 233.527 748.522 233.901 747.551 233.678C742.181 232.461 735.545 228.665 731.272 234.513C730.699 235.277 730.89 235.604 731.845 235.492Z"
      fill="#FADDB3"
    />
    <path
      d="M987.802 235.444C983.935 228.57 975.604 232.198 969.78 233.845C969.573 233.9 969.355 233.9 969.148 233.846C968.941 233.792 968.751 233.686 968.598 233.537C968.444 233.388 968.331 233.202 968.271 232.996C968.21 232.791 968.204 232.574 968.252 232.365L971.093 220.764C971.188 220.39 971.376 220.045 971.638 219.761C971.901 219.478 972.23 219.265 972.597 219.141C977.673 217.454 981.261 217.144 983.362 218.21C998.114 225.785 1001.53 236.972 993.602 251.771C988.255 261.749 970.066 270.915 959.85 260.651C959.309 260.11 959.19 259.481 959.492 258.765C964.576 246.95 970.973 232.58 986.99 236.518C987.129 236.549 987.273 236.54 987.406 236.491C987.539 236.442 987.656 236.355 987.741 236.242C987.827 236.129 987.878 235.994 987.889 235.852C987.899 235.711 987.869 235.569 987.802 235.444Z"
      fill="#FADDB3"
    />
  </g>
  <defs>
    <clipPath id="clip0_82_112">
      <rect width="1028" height="425" fill="white" />
    </clipPath>
  </defs>
</svg>
